<svg xmlns="http://www.w3.org/2000/svg" width="118" height="118" viewBox="0 0 118 118">
  <g id="Grupo_9242" data-name="Grupo 9242" transform="translate(-396 -1232)">
    <g id="Elipse_554" data-name="Elipse 554" transform="translate(396 1232)" fill="#f0f0f0" stroke="#5f3bbf" stroke-width="2">
      <circle cx="59" cy="59" r="59" stroke="none"/>
      <circle cx="59" cy="59" r="58" fill="none"/>
    </g>
    <g id="Grupo_8826" data-name="Grupo 8826" transform="translate(2 771)">
      <g id="Grupo_8809" data-name="Grupo 8809" transform="translate(416.878 502.952)">
        <g id="Grupo_8808" data-name="Grupo 8808">
          <path id="Trazado_18529" data-name="Trazado 18529" d="M429.415,525.831a13.415,13.415,0,1,1,13.415-13.415A13.431,13.431,0,0,1,429.415,525.831Z" transform="translate(-416 -499)" fill="#3bdcf0"/>
        </g>
      </g>
      <g id="Grupo_8810" data-name="Grupo 8810" transform="translate(426.635 510.27)">
        <path id="Trazado_18530" data-name="Trazado 18530" d="M427.659,517.2A3.663,3.663,0,0,1,424,513.537h2.439a1.22,1.22,0,1,0,1.22-1.22,3.659,3.659,0,1,1,3.659-3.659h-2.439a1.22,1.22,0,1,0-1.22,1.22,3.659,3.659,0,0,1,0,7.318Z" transform="translate(-424 -505)"/>
      </g>
      <g id="Grupo_8811" data-name="Grupo 8811" transform="translate(429.074 507.831)">
        <rect id="Rectángulo_2226" data-name="Rectángulo 2226" width="3" height="3" transform="translate(-0.074 0.169)"/>
      </g>
      <g id="Grupo_8812" data-name="Grupo 8812" transform="translate(429.074 521.246)">
        <rect id="Rectángulo_2227" data-name="Rectángulo 2227" width="3" height="4" transform="translate(-0.074 -0.246)"/>
      </g>
      <g id="Grupo_8813" data-name="Grupo 8813" transform="translate(412 498.074)">
        <path id="Trazado_18531" data-name="Trazado 18531" d="M430.294,531.587a18.294,18.294,0,1,1,18.294-18.294A18.313,18.313,0,0,1,430.294,531.587Zm0-34.148a15.855,15.855,0,1,0,15.854,15.855A15.873,15.873,0,0,0,430.294,497.439Z" transform="translate(-412 -495)" fill="#5f3bbf"/>
      </g>
      <g id="Grupo_8814" data-name="Grupo 8814" transform="translate(424.196 532.725)">
        <path id="Trazado_18532" data-name="Trazado 18532" d="M428.1,547.3a6.1,6.1,0,0,1-6.1-6.1V523.412h2.439V541.2a3.659,3.659,0,1,0,7.317,0V523.412H434.2V541.2A6.1,6.1,0,0,1,428.1,547.3Z" transform="translate(-422 -523.412)" fill="#5f3bbf"/>
      </g>
      <g id="Grupo_8815" data-name="Grupo 8815" transform="translate(421.757 537.101)">
        <rect id="Rectángulo_2228" data-name="Rectángulo 2228" width="17" height="3" transform="translate(0.243 -0.101)" fill="#5f3bbf"/>
      </g>
      <g id="Grupo_8816" data-name="Grupo 8816" transform="translate(476.638 481)">
        <path id="Trazado_18533" data-name="Trazado 18533" d="M473.5,492.272l-2.365-.591,2.059-8.242H465V481h11.319Z" transform="translate(-465 -481)"/>
      </g>
      <g id="Grupo_8817" data-name="Grupo 8817" transform="translate(451.641 481.161)">
        <rect id="Rectángulo_2229" data-name="Rectángulo 2229" width="39.33" height="2.439" transform="translate(0 19.513) rotate(-29.744)" fill="#5f3bbf"/>
      </g>
      <g id="Grupo_8818" data-name="Grupo 8818" transform="translate(444.929 523.685)">
        <rect id="Rectángulo_2230" data-name="Rectángulo 2230" width="43" height="2" transform="translate(0.071 0.315)" fill="#5f3bbf"/>
      </g>
      <g id="Grupo_8825" data-name="Grupo 8825" transform="translate(453.466 494.415)">
        <g id="Grupo_8820" data-name="Grupo 8820" transform="translate(24.392)">
          <g id="Grupo_8819" data-name="Grupo 8819">
            <path id="Trazado_18534" data-name="Trazado 18534" d="M475.757,521.27H466V492h9.757Z" transform="translate(-466 -492)" fill="#3bdcf0"/>
          </g>
        </g>
        <g id="Grupo_8822" data-name="Grupo 8822" transform="translate(12.196 4.878)">
          <g id="Grupo_8821" data-name="Grupo 8821">
            <path id="Trazado_18535" data-name="Trazado 18535" d="M465.757,520.392H456V496h9.757Z" transform="translate(-456 -496)" fill="#3bdcf0"/>
          </g>
        </g>
        <g id="Grupo_8824" data-name="Grupo 8824" transform="translate(0 9.757)">
          <g id="Grupo_8823" data-name="Grupo 8823">
            <path id="Trazado_18536" data-name="Trazado 18536" d="M455.757,519.513H446V500h9.757Z" transform="translate(-446 -500)" fill="#3bdcf0"/>
          </g>
        </g>
      </g>
    </g>
  </g>
</svg>
