<svg xmlns="http://www.w3.org/2000/svg" width="118" height="118" viewBox="0 0 118 118">
  <g id="Grupo_9241" data-name="Grupo 9241" transform="translate(-396 -1364)">
    <g id="Elipse_554" data-name="Elipse 554" transform="translate(396 1364)" fill="#f0f0f0" stroke="#5f3bbf" stroke-width="2">
      <circle cx="59" cy="59" r="59" stroke="none"/>
      <circle cx="59" cy="59" r="58" fill="none"/>
    </g>
    <g id="Grupo_8901" data-name="Grupo 8901" transform="translate(2 3)">
      <g id="Grupo_8881" data-name="Grupo 8881" transform="translate(432.742 1389.581)">
        <rect id="Rectángulo_2258" data-name="Rectángulo 2258" width="39" height="5" transform="translate(0.258 0.419)" fill="#3bdcf0"/>
      </g>
      <g id="Grupo_8882" data-name="Grupo 8882" transform="translate(438.468 1402.177)">
        <path id="Trazado_18561" data-name="Trazado 18561" d="M452.323,425.726,443.161,420,434,425.726V453.21h18.323Z" transform="translate(-434 -420)" fill="#3bdcf0"/>
      </g>
      <g id="Grupo_8883" data-name="Grupo 8883" transform="translate(423.581 1438.823)">
        <rect id="Rectángulo_2259" data-name="Rectángulo 2259" width="36" height="4" transform="translate(0.419 0.177)" fill="#3bdcf0"/>
      </g>
      <g id="Grupo_8884" data-name="Grupo 8884" transform="translate(464.807 1450.274)">
        <rect id="Rectángulo_2260" data-name="Rectángulo 2260" width="23" height="6" transform="translate(0.193 -0.274)" fill="#3bdcf0"/>
      </g>
      <g id="Grupo_8885" data-name="Grupo 8885" transform="translate(462.516 1444.548)">
        <path id="Trazado_18562" data-name="Trazado 18562" d="M482.484,463.871H455v-1.145A5.732,5.732,0,0,1,460.726,457h16.032a5.732,5.732,0,0,1,5.726,5.726Zm-25-2.29H480a3.442,3.442,0,0,0-3.24-2.29H460.726A3.442,3.442,0,0,0,457.486,461.581Z" transform="translate(-455 -457)" fill="#5f3bbf"/>
      </g>
      <g id="Grupo_8886" data-name="Grupo 8886" transform="translate(468.01 1437.677)">
        <path id="Trazado_18563" data-name="Trazado 18563" d="M473.579,459.651l-1.906-1.27,1.866-2.8-1.527-2.29h-7.935l-1.527,2.29,1.866,2.8-1.906,1.27-2.714-4.071L462.852,451h10.387l3.054,4.581Z" transform="translate(-459.798 -451)" fill="#5f3bbf"/>
      </g>
      <g id="Grupo_8887" data-name="Grupo 8887" transform="translate(469.387 1417.065)">
        <path id="Trazado_18564" data-name="Trazado 18564" d="M471.306,454.758h-2.29v-1.509a25.224,25.224,0,0,1,2.96-11.346,4.581,4.581,0,1,0-8.143.128,22.148,22.148,0,0,1,2.893,10.473v2.255h-2.29V452.5a19.887,19.887,0,0,0-2.62-9.388,6.873,6.873,0,1,1,12.211-.191,22.984,22.984,0,0,0-2.72,10.325Z" transform="translate(-461 -433.001)" fill="#5f3bbf"/>
      </g>
      <g id="Grupo_8888" data-name="Grupo 8888" transform="translate(419 1385)">
        <path id="Trazado_18565" data-name="Trazado 18565" d="M462.277,469.129H417v-54.3L426.832,405h47.426v33.21h-2.29V407.29H427.781l-8.49,8.49v51.058h42.987Z" transform="translate(-417 -405)" fill="#5f3bbf"/>
      </g>
      <g id="Grupo_8889" data-name="Grupo 8889" transform="translate(420.145 1386.145)">
        <path id="Trazado_18566" data-name="Trazado 18566" d="M428.306,416.306H418v-2.29h8.016V406h2.29Z" transform="translate(-418 -406)" fill="#5f3bbf"/>
      </g>
      <g id="Grupo_8890" data-name="Grupo 8890" transform="translate(443.048 1412.484)">
        <path id="Trazado_18567" data-name="Trazado 18567" d="M442.581,445.032A4.585,4.585,0,0,1,438,440.452h2.29a2.29,2.29,0,1,0,2.29-2.29,4.581,4.581,0,1,1,4.581-4.581h-2.29a2.29,2.29,0,1,0-2.29,2.29,4.581,4.581,0,0,1,0,9.161Z" transform="translate(-438 -429)"/>
      </g>
      <g id="Grupo_8891" data-name="Grupo 8891" transform="translate(446.484 1410.194)">
        <rect id="Rectángulo_2261" data-name="Rectángulo 2261" width="3" height="4" transform="translate(-0.484 -0.194)"/>
      </g>
      <g id="Grupo_8892" data-name="Grupo 8892" transform="translate(446.484 1427.371)">
        <rect id="Rectángulo_2262" data-name="Rectángulo 2262" width="3" height="4" transform="translate(-0.484 -0.371)"/>
      </g>
      <g id="Grupo_8893" data-name="Grupo 8893" transform="translate(428.658 1400.787)">
        <path id="Trazado_18568" data-name="Trazado 18568" d="M462.079,433.717,444.4,421.566l-17.674,12.15-1.3-1.888L444.4,418.786l18.971,13.043Z" transform="translate(-425.434 -418.786)" fill="#5f3bbf"/>
      </g>
      <g id="Grupo_8894" data-name="Grupo 8894" transform="translate(433.887 1411.339)">
        <rect id="Rectángulo_2263" data-name="Rectángulo 2263" width="2" height="24" transform="translate(0.113 -0.339)" fill="#5f3bbf"/>
      </g>
      <g id="Grupo_8895" data-name="Grupo 8895" transform="translate(459.081 1411.339)">
        <rect id="Rectángulo_2264" data-name="Rectángulo 2264" width="2" height="24" transform="translate(-0.081 -0.339)" fill="#5f3bbf"/>
      </g>
      <g id="Grupo_8896" data-name="Grupo 8896" transform="translate(437.323 1389.581)">
        <rect id="Rectángulo_2265" data-name="Rectángulo 2265" width="35" height="2" transform="translate(-0.323 0.419)" fill="#5f3bbf"/>
      </g>
      <g id="Grupo_8897" data-name="Grupo 8897" transform="translate(432.742 1389.581)">
        <rect id="Rectángulo_2266" data-name="Rectángulo 2266" width="2" height="2" transform="translate(0.258 0.419)"/>
      </g>
      <g id="Grupo_8898" data-name="Grupo 8898" transform="translate(432.742 1394.161)">
        <rect id="Rectángulo_2267" data-name="Rectángulo 2267" width="39" height="2" transform="translate(0.258 -0.161)" fill="#5f3bbf"/>
      </g>
      <g id="Grupo_8899" data-name="Grupo 8899" transform="translate(423.581 1437.677)">
        <rect id="Rectángulo_2268" data-name="Rectángulo 2268" width="42" height="2" transform="translate(0.419 0.323)" fill="#5f3bbf"/>
      </g>
      <g id="Grupo_8900" data-name="Grupo 8900" transform="translate(423.581 1442.258)">
        <rect id="Rectángulo_2269" data-name="Rectángulo 2269" width="36" height="3" transform="translate(0.419 -0.258)" fill="#5f3bbf"/>
      </g>
    </g>
  </g>
</svg>
