<svg xmlns="http://www.w3.org/2000/svg" width="454" height="421" viewBox="0 0 454 421">
  <g id="Grupo_9251" data-name="Grupo 9251" transform="translate(-966 -4607)">
    <g id="Grupo_8941" data-name="Grupo 8941" transform="translate(856 3475)">
      <rect id="Rectángulo_760" data-name="Rectángulo 760" width="454" height="421" transform="translate(110 1132)" fill="#d3faff"/>
      <rect id="Rectángulo_761" data-name="Rectángulo 761" width="454" height="5" transform="translate(110 1548)" fill="#5f3bbf"/>
    </g>
    <text id="Por_lo_cual_el_valor_sin_IVA_del_abrigo_es_de_25.510_y_el_IVA_deducida_de_esta_transacción_es_de_4.490._" data-name="Por lo cual, el valor sin IVA del abrigo es de $25.510 y el IVA deducida de esta transacción es de $4.490.

" transform="translate(1001 4853)" fill="#00223d" font-size="18" font-family="OpenSans-Regular, Open Sans"><tspan x="0" y="19">Por lo cual, el valor sin IVA del abrigo es de </tspan><tspan x="0" y="49">$25.510 y </tspan><tspan y="49" font-family="OpenSans-Semibold, Open Sans" font-weight="600">el IVA deducida de esta </tspan><tspan x="0" y="79" font-family="OpenSans-Semibold, Open Sans" font-weight="600">transacción es de $4.490.</tspan><tspan x="0" y="109"></tspan><tspan x="0" y="139"></tspan></text>
    <g id="Grupo_8959" data-name="Grupo 8959" transform="translate(980.781 4484.543)">
      <g id="Grupo_8952" data-name="Grupo 8952" transform="translate(37.218 210.671)">
        <path id="Trazado_18646" data-name="Trazado 18646" d="M57.9,299.211l-13.165,44.2,7.815,2.06,11.721-22.76Z" transform="translate(-42.232 -269.74)" fill="#fff"/>
        <g id="Grupo_8942" data-name="Grupo 8942" transform="translate(1.949 28.934)">
          <path id="Trazado_18647" data-name="Trazado 18647" d="M56.259,297.988l-4.448,14.934-7.09,23.8q-.814,2.733-1.628,5.465a.559.559,0,0,0,.385.679l7.815,2.06a.561.561,0,0,0,.623-.254l10.147-19.7a29.275,29.275,0,0,0,1.518-2.948,3.069,3.069,0,0,0-.25-1.865l-3.255-12.009-2.755-10.164a.552.552,0,0,0-1.064.294l5.678,20.95.506,1.865c.03.111.294.983.214.476-.051-.324.077-.2-.044-.073a2.281,2.281,0,0,0-.242.469l-.822,1.6-5.978,11.609-4.606,8.944.623-.254-7.815-2.06.385.679,4.448-14.934,7.089-23.8,1.628-5.465A.552.552,0,0,0,56.259,297.988Z" transform="translate(-43.074 -297.598)" fill="#3d3d3d"/>
        </g>
        <path id="Trazado_18648" data-name="Trazado 18648" d="M48.26,437.021l-9.367-2.529,1.289-3.582,9.367,2.529Z" transform="translate(-38.336 -357.603)" fill="#fff"/>
        <g id="Grupo_8943" data-name="Grupo 8943" transform="translate(0 72.756)">
          <path id="Trazado_18649" data-name="Trazado 18649" d="M47.289,435.384l-9.367-2.529.385.679,1.289-3.582-.679.385,9.366,2.529-.385-.679-1.289,3.582c-.241.67.825.958,1.064.294l1.289-3.582a.557.557,0,0,0-.385-.679l-9.366-2.529a.565.565,0,0,0-.679.385l-1.289,3.581a.558.558,0,0,0,.385.679L47,436.448A.552.552,0,0,0,47.289,435.384Z" transform="translate(-37.218 -429.254)" fill="#3d3d3d"/>
        </g>
        <path id="Trazado_18650" data-name="Trazado 18650" d="M210.858,299.211l13.165,44.2-7.815,2.06-11.721-22.76Z" transform="translate(-148.811 -269.74)" fill="#fff"/>
        <g id="Grupo_8944" data-name="Grupo 8944" transform="translate(55.121 28.933)">
          <path id="Trazado_18651" data-name="Trazado 18651" d="M209.214,298.281l4.448,14.934,7.089,23.8,1.628,5.465.385-.679-7.815,2.06.623.254-10-19.422-1.062-2.063a5.808,5.808,0,0,0-.575-1.116c-.238-.273-.179.433.028.067a6.025,6.025,0,0,0,.351-1.294l3.268-12.057q1.349-4.977,2.7-9.953a.552.552,0,0,0-1.064-.294l-5.752,21.221a9.022,9.022,0,0,0-.639,2.43,7.386,7.386,0,0,0,1.119,2.3l5.972,11.6,4.705,9.137a.56.56,0,0,0,.623.254l7.815-2.06a.558.558,0,0,0,.385-.679L219,327.257l-7.089-23.8q-.814-2.733-1.628-5.466A.552.552,0,0,0,209.214,298.281Z" transform="translate(-202.821 -297.597)" fill="#3d3d3d"/>
        </g>
        <path id="Trazado_18652" data-name="Trazado 18652" d="M127.429,273.737l-20.9-8.672-20.9,8.672a4.065,4.065,0,0,0-2.623,4.806L88.679,298.5a27.016,27.016,0,0,1,1.034,7.389v21.19h33.638V305.89a27.017,27.017,0,0,1,1.034-7.389l5.667-19.959A4.065,4.065,0,0,0,127.429,273.737Z" transform="translate(-67.675 -246.96)" fill="#a9d3e0"/>
        <path id="Trazado_18653" data-name="Trazado 18653" d="M90.886,298.5l-5.667-19.959a4.065,4.065,0,0,1,2.622-4.806l19.794-8.214-1.1-.458-20.9,8.672a4.065,4.065,0,0,0-2.623,4.806L88.679,298.5a27.016,27.016,0,0,1,1.034,7.389v21.19H91.92V305.89A27.017,27.017,0,0,0,90.886,298.5Z" transform="translate(-67.675 -246.96)" fill="#fff"/>
        <path id="Trazado_18654" data-name="Trazado 18654" d="M172.642,273.737l-20.9-8.672-1.1.458,19.794,8.214a4.065,4.065,0,0,1,2.622,4.806L167.39,298.5a27.029,27.029,0,0,0-1.034,7.389v21.19h2.207V305.89A27.016,27.016,0,0,1,169.6,298.5l5.667-19.959A4.065,4.065,0,0,0,172.642,273.737Z" transform="translate(-112.888 -246.96)" fill="#d1d3d4" style="mix-blend-mode: multiply;isolation: isolate"/>
        <g id="Grupo_8945" data-name="Grupo 8945" transform="translate(14.681 17.565)">
          <path id="Trazado_18655" data-name="Trazado 18655" d="M126.546,272.121l-18.953-7.865c-.6-.249-1.556-.9-2.237-.807a10.575,10.575,0,0,0-2.266.94L91.5,269.2c-2.512,1.042-5.221,1.911-7.625,3.194a4.63,4.63,0,0,0-2.381,5.376c.319,1.18.668,2.352,1,3.528l3.475,12.238c1.064,3.746,2.145,7.38,2.159,11.334.022,6.818,0,13.636,0,20.454V326a.56.56,0,0,0,.552.552h33.638a.56.56,0,0,0,.552-.552V305.568a37.519,37.519,0,0,1,1.686-10.371l3.517-12.385c.457-1.611.926-3.22,1.372-4.834a4.731,4.731,0,0,0-2.77-5.8c-.642-.291-1.2.66-.557.953a3.64,3.64,0,0,1,2.368,4.186c-.059.25-.141.5-.211.743l-1.293,4.553-3.428,12.075a38.278,38.278,0,0,0-1.787,10.531q-.005,5.311,0,10.622V326l.552-.552H88.682l.552.552V306.18a35.923,35.923,0,0,0-1.345-9.934L84.753,285.2c-.743-2.618-1.619-5.234-2.239-7.885-.888-3.8,4.28-4.975,6.888-6.058l11.851-4.918,3.839-1.593a1.6,1.6,0,0,0,.393-.163c.189-.166.193.053-.127-.067.225.084.444.184.666.276l19.672,8.164.556.231C126.907,273.457,127.193,272.39,126.546,272.121Z" transform="translate(-81.326 -263.441)" fill="#3d3d3d"/>
        </g>
        <path id="Trazado_18656" data-name="Trazado 18656" d="M120.245,451.38H103.426v3.752h33.638V451.38Z" transform="translate(-81.389 -371.259)" fill="#fff"/>
        <g id="Grupo_8946" data-name="Grupo 8946" transform="translate(21.486 79.569)">
          <path id="Trazado_18657" data-name="Trazado 18657" d="M119.14,449.722H102.321a.56.56,0,0,0-.552.552v3.752a.56.56,0,0,0,.552.552h33.638a.56.56,0,0,0,.552-.552v-3.752a.56.56,0,0,0-.552-.552H119.14a.552.552,0,0,0,0,1.1h16.819l-.552-.552v3.752l.552-.552H102.321l.552.552v-3.752l-.552.552H119.14A.552.552,0,0,0,119.14,449.722Z" transform="translate(-101.769 -449.722)" fill="#3d3d3d"/>
        </g>
        <path id="Trazado_18658" data-name="Trazado 18658" d="M238.3,437.021l9.366-2.529-1.289-3.582-9.367,2.529Z" transform="translate(-170.506 -357.603)" fill="#fff"/>
        <g id="Grupo_8947" data-name="Grupo 8947" transform="translate(65.942 72.756)">
          <path id="Trazado_18659" data-name="Trazado 18659" d="M237.325,436.448l9.366-2.529a.556.556,0,0,0,.385-.679l-1.289-3.581a.564.564,0,0,0-.679-.385l-9.367,2.529a.556.556,0,0,0-.385.679l1.289,3.582c.239.663,1.305.377,1.064-.294l-1.289-3.582-.385.679,9.366-2.529-.679-.385,1.289,3.582.386-.679-9.367,2.529A.552.552,0,0,0,237.325,436.448Z" transform="translate(-235.331 -429.253)" fill="#3d3d3d"/>
        </g>
        <path id="Trazado_18660" data-name="Trazado 18660" d="M140.1,230.2a10.434,10.434,0,0,0,1.17-5.308,12.634,12.634,0,0,0-25.267,0,13.1,13.1,0,0,0,1.141,5.308c2.235,4.323,11.492,15.712,11.492,15.712S137.631,234.39,140.1,230.2Z" transform="translate(-89.778 -211.73)" fill="#fff"/>
        <g id="Grupo_8948" data-name="Grupo 8948" transform="translate(25.671)">
          <path id="Trazado_18661" data-name="Trazado 18661" d="M139.47,229.42c2.7-4.872,1.013-11.529-2.925-15.207a13.183,13.183,0,0,0-22.194,9.979c.151,4.871,3.206,8.573,5.986,12.31q3.3,4.443,6.8,8.742a.552.552,0,0,0,.78,0q2.438-3.124,4.816-6.295a108.1,108.1,0,0,0,6.734-9.529.552.552,0,0,0-.953-.557,106.378,106.378,0,0,1-6.58,9.325q-2.371,3.159-4.8,6.276h.78q-2.457-3.024-4.821-6.124a65.583,65.583,0,0,1-6.515-9.345c-2.4-4.64-.945-10.662,2.816-14.1a12.089,12.089,0,0,1,19.349,4.435,11.624,11.624,0,0,1-.231,9.532C138.173,229.484,139.125,230.042,139.47,229.42Z" transform="translate(-114.344 -210.671)" fill="#3d3d3d"/>
        </g>
        <path id="Trazado_18662" data-name="Trazado 18662" d="M143.648,241.556a7.763,7.763,0,0,0,.87-3.949,9.4,9.4,0,1,0-18.8,0,9.74,9.74,0,0,0,.849,3.949c1.663,3.216,8.549,11.688,8.549,11.688S141.812,244.673,143.648,241.556Z" transform="translate(-96.263 -222.371)" fill="#156e82"/>
        <path id="Trazado_18663" data-name="Trazado 18663" d="M135.119,228.209a9.4,9.4,0,0,0-9.4,9.4,9.74,9.74,0,0,0,.849,3.949c1.663,3.216,8.549,11.688,8.549,11.688s6.693-8.572,8.529-11.688a7.763,7.763,0,0,0,.87-3.949A9.4,9.4,0,0,0,135.119,228.209Zm6.689,13.928c-1.44,2.445-6.689,9.168-6.689,9.168s-5.4-6.645-6.706-9.168a7.641,7.641,0,0,1-.666-3.1,7.372,7.372,0,0,1,14.743,0A6.086,6.086,0,0,1,141.808,242.137Z" transform="translate(-96.263 -222.371)" fill="#d1d3d4" style="mix-blend-mode: multiply;isolation: isolate"/>
        <g id="Grupo_8949" data-name="Grupo 8949" transform="translate(28.906 5.303)">
          <path id="Trazado_18664" data-name="Trazado 18664" d="M143.016,240.764c2-3.7.8-8.66-2.176-11.464a9.949,9.949,0,0,0-16.771,7.593c.157,3.63,2.41,6.373,4.488,9.165q2.46,3.306,5.064,6.506a.552.552,0,0,0,.78,0,117.493,117.493,0,0,0,8.615-11.8.552.552,0,0,0-.953-.557,115.222,115.222,0,0,1-8.442,11.577h.78a86.845,86.845,0,0,1-8.2-11.093,8.846,8.846,0,0,1,11.847-12.027c3.945,2.045,6.234,7.437,4.011,11.543C141.726,240.832,142.678,241.389,143.016,240.764Z" transform="translate(-124.061 -226.604)" fill="#3d3d3d"/>
        </g>
        <g id="Grupo_8950" data-name="Grupo 8950" transform="translate(33.172 27.119)">
          <path id="Trazado_18665" data-name="Trazado 18665" d="M136.877,292.68v14.84a.552.552,0,0,0,1.1,0V292.68a.552.552,0,0,0-1.1,0Z" transform="translate(-136.877 -292.147)" fill="#3d3d3d"/>
        </g>
        <g id="Grupo_8951" data-name="Grupo 8951" transform="translate(43.269 27.119)">
          <path id="Trazado_18666" data-name="Trazado 18666" d="M167.212,292.68v10.646a.552.552,0,0,0,1.1,0V292.68a.552.552,0,0,0-1.1,0Z" transform="translate(-167.212 -292.147)" fill="#3d3d3d"/>
        </g>
        <path id="Trazado_18667" data-name="Trazado 18667" d="M137.469,336.2a1.062,1.062,0,1,1-1.062-1.061A1.062,1.062,0,0,1,137.469,336.2Z" transform="translate(-102.684 -293.711)" fill="#3d3d3d"/>
        <path id="Trazado_18668" data-name="Trazado 18668" d="M167.8,323.605a1.062,1.062,0,1,1-1.062-1.061A1.062,1.062,0,0,1,167.8,323.605Z" transform="translate(-122.921 -285.307)" fill="#3d3d3d"/>
      </g>
    </g>
    <path id="Trazado_18669" data-name="Trazado 18669" d="M1473.565,282.456a.642.642,0,0,1-.642-.642V254.867h-12.729a.642.642,0,0,1-.494-1.052l24.772-29.836a.664.664,0,0,1,.988,0l24.777,29.836a.642.642,0,0,1-.494,1.052h-13.4v16.041a.642.642,0,1,1-1.283,0V254.225a.642.642,0,0,1,.642-.641h12.677l-23.411-28.189-23.406,28.189h12a.642.642,0,0,1,.642.641v27.59A.642.642,0,0,1,1473.565,282.456Z" transform="translate(1390.759 3261.614) rotate(90)" fill="#5f3bbf"/>
    <text id="_4.490_IVA" data-name="$ 4.490 IVA" transform="translate(1190 4755)" fill="#5f3bbf" font-size="30" font-family="OpenSans-Semibold, Open Sans" font-weight="600"><tspan x="0" y="0">$ 4.490 IVA</tspan></text>
  </g>
</svg>
