<svg xmlns="http://www.w3.org/2000/svg" width="709.024" height="286.306" viewBox="0 0 709.024 286.306">
  <g id="Grupo_9237" data-name="Grupo 9237" transform="translate(-605 -4555.43)">
    <g id="Grupo_8789" data-name="Grupo 8789" transform="translate(493.414 4068.189)">
      <path id="Rectángulo_2122" data-name="Rectángulo 2122" d="M5.385,0H79.576a5.386,5.386,0,0,1,5.386,5.386v38.3a5.385,5.385,0,0,1-5.385,5.385H5.386A5.386,5.386,0,0,1,0,43.687V5.385A5.385,5.385,0,0,1,5.385,0Z" transform="matrix(0.003, -1, 1, 0.003, 646.94, 762.413)" fill="#a9b2bd" opacity="0.6" style="mix-blend-mode: multiply;isolation: isolate"/>
      <path id="Trazado_18286" data-name="Trazado 18286" d="M855.9,583.969,798,662.2c11.292,6.326,23.227,15.58,35.473,26.255l57.9-78.231A334.692,334.692,0,0,1,855.9,583.969Z" transform="translate(-207.209 -18.376)" fill="#a9b2bd" opacity="0.6" style="mix-blend-mode: multiply;isolation: isolate"/>
      <path id="Trazado_18287" data-name="Trazado 18287" d="M892,600.538l-57.9,78.231c-12.247-10.674-24.182-19.929-35.473-26.255l57.9-78.231A334.74,334.74,0,0,0,892,600.538Z" transform="translate(-207.424 -15.063)" fill="#bae1fe"/>
      <path id="Trazado_18288" data-name="Trazado 18288" d="M833.462,679.511l-.853-.743c-13.927-12.14-25.143-20.443-35.3-26.131l-1.035-.58,59.269-80.08.851.719a335.2,335.2,0,0,0,35.362,26.173l.942.6Zm-34.1-28.112c9.8,5.618,20.583,13.62,33.765,25.052l56.564-76.426A337.582,337.582,0,0,1,855.9,575.01Z" transform="translate(-206.621 -14.275)" fill="#2b537f"/>
      <path id="Trazado_18289" data-name="Trazado 18289" d="M839.54,672.519l-.473-.519a2.831,2.831,0,0,0-2.4-1.052,2.778,2.778,0,0,0-1.97,1.767l-.332.7-.569-.523a100.754,100.754,0,0,0-19.919-14.407l-.544-.3.34-.518a3.17,3.17,0,0,0-.693-4.523l-.493-.329.347-.48,47.579-65.786.47.406a2.866,2.866,0,0,0,2.333.824,3.172,3.172,0,0,0,2.119-1.542l.362-.592.511.469a110.667,110.667,0,0,0,19.93,14.414l.506.289-.3.5a4.055,4.055,0,0,0-.6,2.961,2.521,2.521,0,0,0,1.254,1.563l.544.317-.369.511Zm-3.836-2.471a3.108,3.108,0,0,1,.791-.228,3.751,3.751,0,0,1,2.914.932L885.9,606.475a3.494,3.494,0,0,1-1.265-1.915,4.992,4.992,0,0,1,.453-3.319,111.972,111.972,0,0,1-19.177-13.853,4.167,4.167,0,0,1-2.52,1.518,3.766,3.766,0,0,1-2.765-.708L814.08,652.554a4.212,4.212,0,0,1,.849,5.206,101.859,101.859,0,0,1,19.1,13.8A3.827,3.827,0,0,1,835.7,670.048Z" transform="translate(-212.163 -18.949)" fill="#5c8ebc"/>
      <path id="Trazado_18290" data-name="Trazado 18290" d="M866.289,658.9a13.625,13.625,0,0,1-13.529-1.22c-6.174-4.466-7.282-13.514-2.468-20.17s13.753-8.438,19.929-3.972h0c6.174,4.465,7.281,13.514,2.468,20.17A15.662,15.662,0,0,1,866.289,658.9Zm-9.138-25.54a14.525,14.525,0,0,0-5.935,4.819c-4.445,6.146-3.453,14.48,2.212,18.576s13.89,2.429,18.335-3.716,3.453-14.48-2.212-18.576A12.482,12.482,0,0,0,857.151,633.362Z" transform="translate(-224.069 -34.487)" fill="#5c8ebc"/>
      <path id="Trazado_18291" data-name="Trazado 18291" d="M871.227,655.547l-1.72-1.3a14.1,14.1,0,0,1-3.564,2.869l-.326.185-4.045-3.047.836-.409a15.842,15.842,0,0,0,2.516-1.552,9.32,9.32,0,0,0,1.871-1.779,2.627,2.627,0,0,0,.556-1.018c.016-.091.015-.164-.131-.274A.223.223,0,0,0,867,649.2a4.425,4.425,0,0,0-.977.449c-.463.261-1.076.64-1.825,1.127a9.81,9.81,0,0,1-2.5,1.207,4.753,4.753,0,0,1-2.225.146,5.2,5.2,0,0,1-2.11-1.013,4.243,4.243,0,0,1-1.838-3.13,6.521,6.521,0,0,1,.95-3.55l-1.293-.974,2.1-2.784,1.255.946a14.17,14.17,0,0,1,3.414-2.682l.49-.28,2.348,4.011-.513.282a10.052,10.052,0,0,0-3.238,2.614,2.1,2.1,0,0,0-.478.867.153.153,0,0,0,.075.171.234.234,0,0,0,.206.053,3.161,3.161,0,0,0,.821-.351c.405-.22.946-.559,1.6-1.007a9.27,9.27,0,0,1,3.821-1.661,4.379,4.379,0,0,1,3.235.946,4.718,4.718,0,0,1,1.966,3.2,6.132,6.132,0,0,1-.769,3.611l1.808,1.361Zm-1.9-2.858L871,653.949l.724-.961-1.694-1.275.253-.438a5.355,5.355,0,0,0,.868-3.333,3.572,3.572,0,0,0-1.521-2.443,3.237,3.237,0,0,0-2.411-.725,8.33,8.33,0,0,0-3.322,1.476c-.684.465-1.256.824-1.7,1.063a4.233,4.233,0,0,1-1.157.47,1.373,1.373,0,0,1-1.1-.263,1.287,1.287,0,0,1-.523-1.2,3.066,3.066,0,0,1,.7-1.435,10.628,10.628,0,0,1,3.091-2.635l-1.186-2.025a12.538,12.538,0,0,0-2.981,2.543l-.348.413-1.2-.9-.724.961,1.194.9-.265.44a5.863,5.863,0,0,0-1.046,3.324,3.114,3.114,0,0,0,1.386,2.3,4.1,4.1,0,0,0,1.639.8,3.623,3.623,0,0,0,1.692-.122,8.612,8.612,0,0,0,2.2-1.067c.767-.5,1.4-.891,1.885-1.163a5.43,5.43,0,0,1,1.259-.562,1.354,1.354,0,0,1,1.182.22,1.377,1.377,0,0,1,.571,1.376,3.7,3.7,0,0,1-.77,1.514,10.459,10.459,0,0,1-2.1,2.006,17.524,17.524,0,0,1-1.888,1.237l1.981,1.492a12.929,12.929,0,0,0,3.282-2.829Z" transform="translate(-226.765 -37.08)" fill="#5c8ebc"/>
      <path id="Trazado_18292" data-name="Trazado 18292" d="M822.018,689.725a.619.619,0,0,1-.79.086.648.648,0,0,1-.26-.588,8.831,8.831,0,0,1,.094-2.458.692.692,0,0,1,.275-.4.509.509,0,0,1,.594-.012c.637.461,1.209.874,1.839,1.345l3.721,2.691a.635.635,0,0,1-.794.981c-.75-.542-2.129-1.6-3.413-2.525-.384-.278-.837-.619-1.193-.877.038.54.049.977.054,1.367A.57.57,0,0,1,822.018,689.725Z" transform="translate(-215.062 -53.358)" fill="#5c8ebc"/>
      <path id="Trazado_18293" data-name="Trazado 18293" d="M825.811,679.31c1.119-1.546,3.091-1.49,5.05-.074,2.024,1.465,2.374,3.43,1.4,4.779s-2.926,1.638-4.754.317C825.7,683.023,824.544,681.063,825.811,679.31Zm2.348,3.94c1.087.786,2.465,1.012,3.122.1.644-.89.266-2.106-1.1-3.095-1.255-.909-2.723-1.228-3.428-.253C825.9,681.176,827.015,682.422,828.159,683.249Z" transform="translate(-216.538 -50.588)" fill="#5c8ebc"/>
      <path id="Trazado_18294" data-name="Trazado 18294" d="M832.25,670.407c1.119-1.546,3.091-1.49,5.05-.073,2.024,1.464,2.374,3.43,1.4,4.779s-2.926,1.638-4.754.316C832.134,674.121,830.982,672.16,832.25,670.407Zm2.348,3.939c1.087.787,2.465,1.013,3.122.1.644-.89.266-2.106-1.1-3.1-1.256-.908-2.724-1.227-3.429-.253C832.342,672.273,833.454,673.519,834.6,674.346Z" transform="translate(-218.74 -47.544)" fill="#5c8ebc"/>
      <path id="Trazado_18295" data-name="Trazado 18295" d="M897.893,630.843a.618.618,0,0,1-.79.086.644.644,0,0,1-.26-.587,8.841,8.841,0,0,1,.094-2.459.7.7,0,0,1,.275-.4.509.509,0,0,1,.594-.013c.638.461,1.209.874,1.84,1.345l3.721,2.691a.635.635,0,0,1-.8.981c-.75-.542-2.129-1.6-3.412-2.525-.384-.278-.837-.619-1.193-.877.038.54.049.977.054,1.367A.572.572,0,0,1,897.893,630.843Z" transform="translate(-241.01 -33.221)" fill="#5c8ebc"/>
      <path id="Trazado_18296" data-name="Trazado 18296" d="M901.687,620.427c1.118-1.546,3.091-1.49,5.049-.074,2.025,1.465,2.373,3.43,1.4,4.779s-2.926,1.638-4.754.316C901.57,624.141,900.419,622.181,901.687,620.427Zm2.347,3.939c1.087.786,2.466,1.013,3.123.1.644-.89.266-2.106-1.1-3.1-1.256-.909-2.724-1.228-3.429-.253C901.779,622.294,902.891,623.54,904.034,624.366Z" transform="translate(-242.486 -30.451)" fill="#5c8ebc"/>
      <path id="Trazado_18297" data-name="Trazado 18297" d="M908.125,611.525c1.119-1.546,3.091-1.49,5.05-.073,2.025,1.464,2.374,3.429,1.4,4.778s-2.926,1.638-4.754.317C908.009,615.238,906.857,613.278,908.125,611.525Zm2.348,3.94c1.087.786,2.466,1.012,3.123.1.644-.891.266-2.106-1.1-3.1-1.255-.908-2.724-1.227-3.428-.253C908.218,613.39,909.33,614.637,910.473,615.464Z" transform="translate(-244.688 -27.407)" fill="#5c8ebc"/>
      <path id="Trazado_18298" data-name="Trazado 18298" d="M832.946,545.259l-45.434,86.071c12.117,4.549,25.312,11.9,39.029,20.6l45.435-86.071A334.945,334.945,0,0,1,832.946,545.259Z" transform="translate(-203.623 -5.137)" fill="#a9b2bd" opacity="0.6" style="mix-blend-mode: multiply;isolation: isolate"/>
      <path id="Trazado_18299" data-name="Trazado 18299" d="M871.134,556.191,825.7,642.262c-13.717-8.7-26.912-16.053-39.029-20.6l45.434-86.071A334.85,334.85,0,0,0,871.134,556.191Z" transform="translate(-203.336 -1.83)" fill="#bae1fe"/>
      <path id="Trazado_18300" data-name="Trazado 18300" d="M825.328,642.986l-.955-.606c-15.6-9.9-27.941-16.416-38.836-20.506l-1.11-.417,46.507-88.1.95.581A335.339,335.339,0,0,0,870.79,554.47l1.021.454Zm-37.95-22.646c10.533,4.074,22.4,10.358,37.157,19.671l44.386-84.086a337.593,337.593,0,0,1-37.179-19.63Z" transform="translate(-202.568 -1.065)" fill="#2b537f"/>
      <path id="Trazado_18301" data-name="Trazado 18301" d="M829.268,635.63l-.545-.442a2.828,2.828,0,0,0-2.535-.677,2.778,2.778,0,0,0-1.681,2.043l-.223.74-.642-.431a100.774,100.774,0,0,0-21.865-11.237l-.583-.211.258-.563a3.17,3.17,0,0,0-1.367-4.367l-.536-.251.27-.527L836.926,547.5l.526.33a2.869,2.869,0,0,0,2.431.463,3.173,3.173,0,0,0,1.862-1.845l.268-.64.576.386a110.669,110.669,0,0,0,21.877,11.241l.544.21-.221.539a4.059,4.059,0,0,0-.149,3.018,2.523,2.523,0,0,0,1.476,1.356l.585.231-.288.561Zm-4.164-1.864a3.094,3.094,0,0,1,.747-.345,3.752,3.752,0,0,1,3.021.482l36.258-70.555a3.5,3.5,0,0,1-1.54-1.7,5,5,0,0,1-.053-3.35,111.963,111.963,0,0,1-21.047-10.8,4.173,4.173,0,0,1-2.262,1.881,3.763,3.763,0,0,1-2.839-.283l-36.3,70.641a4.213,4.213,0,0,1,1.625,5.019,101.844,101.844,0,0,1,20.963,10.76A3.82,3.82,0,0,1,825.1,633.766Z" transform="translate(-207.739 -5.324)" fill="#5c8ebc"/>
      <path id="Trazado_18302" data-name="Trazado 18302" d="M849.52,621.031a13.626,13.626,0,0,1-13.559.835c-6.777-3.483-9.237-12.261-5.483-19.567s12.322-10.416,19.1-6.934h0c6.777,3.483,9.237,12.26,5.482,19.567A15.661,15.661,0,0,1,849.52,621.031Zm-12.887-23.869a14.533,14.533,0,0,0-5.14,5.66c-3.466,6.746-1.229,14.834,4.99,18.03s14.1.306,17.564-6.44,1.229-14.835-4.99-18.03A12.484,12.484,0,0,0,836.633,597.162Z" transform="translate(-217.716 -21.785)" fill="#5c8ebc"/>
      <path id="Trazado_18303" data-name="Trazado 18303" d="M853.141,617.675l-1.9-1.022a14.109,14.109,0,0,1-3.091,3.374l-.293.232-4.459-2.4.765-.53a15.771,15.771,0,0,0,2.253-1.914A9.326,9.326,0,0,0,848,613.372a2.627,2.627,0,0,0,.4-1.09c0-.092-.01-.164-.17-.251a.224.224,0,0,0-.22.007,4.441,4.441,0,0,0-.9.591c-.418.328-.967.8-1.635,1.39a9.817,9.817,0,0,1-2.292,1.57,4.751,4.751,0,0,1-2.177.48,5.2,5.2,0,0,1-2.239-.683,4.245,4.245,0,0,1-2.289-2.817,6.517,6.517,0,0,1,.4-3.652l-1.425-.768,1.653-3.068,1.383.746a14.141,14.141,0,0,1,2.97-3.166l.442-.351,2.927,3.61-.465.356a10.054,10.054,0,0,0-2.806,3.072,2.1,2.1,0,0,0-.342.929.154.154,0,0,0,.1.158.238.238,0,0,0,.212.022,3.187,3.187,0,0,0,.759-.471c.368-.279.851-.7,1.433-1.238a9.275,9.275,0,0,1,3.527-2.218,4.378,4.378,0,0,1,3.341.447,4.72,4.72,0,0,1,2.428,2.87,6.138,6.138,0,0,1-.215,3.686l1.993,1.074Zm-2.305-2.538,1.842.992.57-1.06-1.867-1,.184-.471a5.353,5.353,0,0,0,.354-3.426,3.568,3.568,0,0,0-1.872-2.186,3.236,3.236,0,0,0-2.493-.353,8.335,8.335,0,0,0-3.062,1.96c-.606.563-1.118,1-1.516,1.307a4.22,4.22,0,0,1-1.073.639,1.371,1.371,0,0,1-1.127-.094,1.286,1.286,0,0,1-.7-1.109,3.068,3.068,0,0,1,.477-1.524,10.632,10.632,0,0,1,2.658-3.072l-1.478-1.822a12.529,12.529,0,0,0-2.564,2.964l-.282.46-1.319-.71-.571,1.06,1.316.709-.2.476a5.861,5.861,0,0,0-.532,3.443,3.114,3.114,0,0,0,1.718,2.069,4.106,4.106,0,0,0,1.742.547,3.625,3.625,0,0,0,1.654-.376,8.626,8.626,0,0,0,2.015-1.387c.682-.609,1.251-1.093,1.688-1.435a5.445,5.445,0,0,1,1.159-.745,1.354,1.354,0,0,1,1.2.039,1.376,1.376,0,0,1,.771,1.274,3.7,3.7,0,0,1-.532,1.613,10.475,10.475,0,0,1-1.772,2.3,17.7,17.7,0,0,1-1.68,1.508l2.183,1.176a12.939,12.939,0,0,0,2.818-3.291Z" transform="translate(-220.019 -24.648)" fill="#5c8ebc"/>
      <path id="Trazado_18304" data-name="Trazado 18304" d="M809.355,659.4a.619.619,0,0,1-.767.2.646.646,0,0,1-.345-.542,8.806,8.806,0,0,1-.278-2.444.691.691,0,0,1,.211-.438.51.51,0,0,1,.586-.1c.7.359,1.327.681,2.021,1.052l4.084,2.1a.635.635,0,0,1-.638,1.09c-.823-.423-2.345-1.257-3.755-1.982-.422-.217-.921-.486-1.312-.686.118.528.2.959.26,1.342A.574.574,0,0,1,809.355,659.4Z" transform="translate(-210.61 -43.017)" fill="#5c8ebc"/>
      <path id="Trazado_18305" data-name="Trazado 18305" d="M811.652,648.352c.872-1.7,2.831-1.939,4.981-.835,2.222,1.142,2.864,3.033,2.1,4.514s-2.645,2.06-4.652,1.03C812.1,652.04,810.664,650.276,811.652,648.352Zm2.915,3.539c1.194.614,2.59.629,3.1-.369.5-.977-.055-2.121-1.556-2.893-1.378-.708-2.877-.8-3.427.267C812.026,650.182,813.313,651.247,814.567,651.891Z" transform="translate(-211.769 -39.878)" fill="#5c8ebc"/>
      <path id="Trazado_18306" data-name="Trazado 18306" d="M816.674,638.579c.872-1.7,2.831-1.939,4.981-.834,2.222,1.142,2.864,3.032,2.1,4.514s-2.645,2.06-4.651,1.03C817.12,642.268,815.685,640.5,816.674,638.579Zm2.915,3.54c1.194.613,2.59.629,3.1-.369.5-.977-.054-2.121-1.556-2.894-1.379-.708-2.878-.8-3.428.268C817.047,640.41,818.334,641.474,819.589,642.119Z" transform="translate(-213.487 -36.536)" fill="#5c8ebc"/>
      <path id="Trazado_18307" data-name="Trazado 18307" d="M875.478,589.742a.619.619,0,0,1-.768.2.644.644,0,0,1-.346-.542,8.833,8.833,0,0,1-.278-2.444.7.7,0,0,1,.211-.438.51.51,0,0,1,.586-.1c.7.359,1.327.682,2.021,1.052l4.084,2.1a.635.635,0,0,1-.638,1.09c-.823-.423-2.345-1.257-3.755-1.981-.422-.217-.921-.487-1.311-.688.118.529.2.959.259,1.344A.569.569,0,0,1,875.478,589.742Z" transform="translate(-233.222 -19.196)" fill="#5c8ebc"/>
      <path id="Trazado_18308" data-name="Trazado 18308" d="M877.775,578.7c.872-1.7,2.831-1.939,4.981-.834,2.222,1.142,2.864,3.032,2.1,4.513s-2.646,2.061-4.651,1.03C878.221,582.384,876.786,580.62,877.775,578.7Zm2.914,3.539c1.194.613,2.59.629,3.1-.369.5-.977-.055-2.122-1.556-2.894-1.379-.708-2.877-.8-3.428.268C878.148,580.526,879.435,581.59,880.69,582.235Z" transform="translate(-234.382 -16.057)" fill="#5c8ebc"/>
      <path id="Trazado_18309" data-name="Trazado 18309" d="M882.8,568.923c.873-1.7,2.831-1.939,4.981-.834,2.222,1.142,2.863,3.031,2.1,4.513s-2.646,2.061-4.652,1.03C883.243,572.611,881.808,570.847,882.8,568.923Zm2.915,3.54c1.194.613,2.59.628,3.1-.369.5-.977-.055-2.122-1.556-2.894-1.378-.708-2.878-.8-3.428.268C883.17,570.754,884.457,571.818,885.711,572.463Z" transform="translate(-236.1 -12.715)" fill="#5c8ebc"/>
      <path id="Trazado_18310" data-name="Trazado 18310" d="M792.216,527.361l-16.032,96c12.933.5,27.77,3.325,43.53,7.269l16.032-96A334.677,334.677,0,0,1,792.216,527.361Z" transform="translate(-199.749 0.984)" fill="#a9b2bd" opacity="0.6" style="mix-blend-mode: multiply;isolation: isolate"/>
      <path id="Trazado_18311" data-name="Trazado 18311" d="M831.9,525.717l-16.032,96c-15.759-3.944-30.6-6.766-43.529-7.27l16.032-96A334.8,334.8,0,0,0,831.9,525.717Z" transform="translate(-198.436 4.032)" fill="#bae1fe"/>
      <path id="Trazado_18312" data-name="Trazado 18312" d="M816.079,622.342l-1.1-.274c-17.924-4.486-31.689-6.787-43.316-7.239l-1.185-.046,16.411-98.266,1.085.253a335.382,335.382,0,0,0,43.394,7.247l1.113.109Zm-43.149-9.548c11.28.551,24.522,2.779,41.461,6.974l15.663-93.783a337.611,337.611,0,0,1-41.469-6.929Z" transform="translate(-197.799 4.692)" fill="#2b537f"/>
      <path id="Trazado_18313" data-name="Trazado 18313" d="M815.268,614.782l-.657-.247a2.829,2.829,0,0,0-2.62.155,2.778,2.778,0,0,0-.952,2.468l.021.772-.744-.207a100.713,100.713,0,0,0-24.291-3.783l-.619-.017.067-.616a3.169,3.169,0,0,0-2.672-3.714l-.588-.069.091-.586,12.492-80.222.6.148a2.866,2.866,0,0,0,2.452-.326,3.175,3.175,0,0,0,1.186-2.337l.053-.692.669.186a110.712,110.712,0,0,0,24.3,3.784l.582.028-.04.582a4.061,4.061,0,0,0,.809,2.912,2.529,2.529,0,0,0,1.828.823l.628.035-.1.622Zm-4.54-.459a3.114,3.114,0,0,1,.6-.562,3.75,3.75,0,0,1,3.019-.494l12.206-78.382a3.489,3.489,0,0,1-2-1.13,5,5,0,0,1-1.1-3.163,111.969,111.969,0,0,1-23.377-3.626,4.17,4.17,0,0,1-1.555,2.5,3.765,3.765,0,0,1-2.785.625l-12.219,78.477a4.212,4.212,0,0,1,3.122,4.251,101.852,101.852,0,0,1,23.284,3.614A3.826,3.826,0,0,1,810.728,614.323Z" transform="translate(-201.811 1.616)" fill="#5c8ebc"/>
      <path id="Trazado_18314" data-name="Trazado 18314" d="M819.853,598.709a13.626,13.626,0,0,1-12.607,5.061c-7.529-1.173-12.627-8.73-11.363-16.846s8.417-13.766,15.948-12.594h0c7.529,1.173,12.627,8.729,11.363,16.846A15.668,15.668,0,0,1,819.853,598.709Zm-19.746-18.6a14.528,14.528,0,0,0-3.1,6.989c-1.167,7.494,3.5,14.467,10.411,15.543S820.9,598.495,822.066,591s-3.5-14.467-10.411-15.542A12.483,12.483,0,0,0,800.108,580.11Z" transform="translate(-206.42 -15.027)" fill="#5c8ebc"/>
      <path id="Trazado_18315" data-name="Trazado 18315" d="M821.055,596.117l-2.121-.373a14.106,14.106,0,0,1-1.871,4.175l-.206.313-4.989-.876.559-.744a15.812,15.812,0,0,0,1.536-2.526,9.3,9.3,0,0,0,.859-2.435,2.626,2.626,0,0,0,.033-1.159c-.028-.088-.061-.153-.241-.184a.223.223,0,0,0-.207.076,4.454,4.454,0,0,0-.666.844c-.294.443-.668,1.06-1.113,1.834a9.8,9.8,0,0,1-1.682,2.212,4.748,4.748,0,0,1-1.916,1.141,5.2,5.2,0,0,1-2.34.057,4.242,4.242,0,0,1-3.058-1.953,6.515,6.515,0,0,1-.767-3.594l-1.594-.28.6-3.433,1.547.272a14.149,14.149,0,0,1,1.823-3.94l.309-.472,3.915,2.505-.33.485a10.052,10.052,0,0,0-1.7,3.8,2.088,2.088,0,0,0-.032.99.152.152,0,0,0,.144.118.234.234,0,0,0,.207-.046,3.142,3.142,0,0,0,.573-.686c.261-.38.588-.928.971-1.627a9.278,9.278,0,0,1,2.65-3.216,4.38,4.38,0,0,1,3.312-.626,4.72,4.72,0,0,1,3.207,1.96,6.132,6.132,0,0,1,.956,3.566l2.23.391Zm-2.987-1.684,2.061.363.207-1.186-2.088-.367.026-.5a5.35,5.35,0,0,0-.742-3.364,3.568,3.568,0,0,0-2.466-1.485,3.231,3.231,0,0,0-2.477.449,8.33,8.33,0,0,0-2.289,2.824c-.4.725-.744,1.305-1.028,1.717a4.2,4.2,0,0,1-.817.944,1.374,1.374,0,0,1-1.1.265,1.287,1.287,0,0,1-1.013-.833,3.067,3.067,0,0,1-.026-1.6,10.613,10.613,0,0,1,1.556-3.752l-1.977-1.265a12.553,12.553,0,0,0-1.5,3.62l-.122.526-1.475-.259-.208,1.185,1.473.259-.036.513a5.856,5.856,0,0,0,.578,3.435,3.111,3.111,0,0,0,2.282,1.423,4.1,4.1,0,0,0,1.825-.028,3.629,3.629,0,0,0,1.452-.878,8.644,8.644,0,0,0,1.475-1.951c.456-.793.844-1.43,1.15-1.893a5.441,5.441,0,0,1,.867-1.072,1.356,1.356,0,0,1,1.153-.341,1.378,1.378,0,0,1,1.134.967,3.7,3.7,0,0,1,0,1.7,10.476,10.476,0,0,1-.958,2.742,17.692,17.692,0,0,1-1.12,1.96l2.443.428a12.928,12.928,0,0,0,1.639-4.011Z" transform="translate(-208.328 -18.752)" fill="#5c8ebc"/>
      <path id="Trazado_18316" data-name="Trazado 18316" d="M791.771,650.446a.619.619,0,0,1-.665.435c-.274-.043-.369-.186-.5-.405a8.853,8.853,0,0,1-1.034-2.233.692.692,0,0,1,.063-.482.51.51,0,0,1,.523-.281c.777.121,1.475.229,2.25.362l4.538.706c.353.056.48.38.427.722a.568.568,0,0,1-.688.513c-.915-.142-2.622-.455-4.188-.7-.469-.072-1.028-.171-1.461-.239.279.465.488.848.669,1.193A.572.572,0,0,1,791.771,650.446Z" transform="translate(-204.322 -40.093)" fill="#5c8ebc"/>
      <path id="Trazado_18317" data-name="Trazado 18317" d="M790.76,638.769c.293-1.886,2.077-2.732,4.465-2.36,2.469.385,3.673,1.977,3.416,3.622s-1.862,2.789-4.091,2.442C792.345,642.129,790.428,640.906,790.76,638.769Zm3.882,2.443c1.326.207,2.655-.219,2.828-1.327.169-1.086-.719-2-2.388-2.256-1.531-.239-2.984.143-3.169,1.333C791.691,640.389,793.248,640.994,794.642,641.211Z" transform="translate(-204.721 -36.28)" fill="#5c8ebc"/>
      <path id="Trazado_18318" data-name="Trazado 18318" d="M792.45,627.912c.294-1.885,2.077-2.731,4.465-2.36,2.469.385,3.673,1.977,3.416,3.622s-1.863,2.789-4.091,2.442C794.035,631.273,792.117,630.05,792.45,627.912Zm3.882,2.443c1.326.207,2.656-.219,2.828-1.327.169-1.086-.719-2-2.388-2.257-1.531-.239-2.983.144-3.169,1.333C793.382,629.533,794.938,630.137,796.332,630.355Z" transform="translate(-205.299 -32.567)" fill="#5c8ebc"/>
      <path id="Trazado_18319" data-name="Trazado 18319" d="M832.606,563.517a.617.617,0,0,1-.664.435c-.274-.043-.37-.186-.5-.4a8.9,8.9,0,0,1-1.034-2.233.7.7,0,0,1,.063-.482.509.509,0,0,1,.524-.282c.777.121,1.474.229,2.25.362l4.537.706c.354.056.48.38.427.723a.568.568,0,0,1-.69.513c-.914-.143-2.622-.455-4.187-.7-.469-.073-1.027-.172-1.461-.239.279.464.488.848.669,1.194A.571.571,0,0,1,832.606,563.517Z" transform="translate(-218.287 -10.365)" fill="#5c8ebc"/>
      <path id="Trazado_18320" data-name="Trazado 18320" d="M831.6,551.84c.293-1.886,2.076-2.732,4.464-2.36,2.469.384,3.672,1.977,3.417,3.622s-1.863,2.789-4.091,2.442C833.18,555.2,831.263,553.978,831.6,551.84Zm3.88,2.443c1.327.206,2.657-.218,2.829-1.327.169-1.086-.72-2-2.388-2.256-1.531-.239-2.984.144-3.169,1.332C832.527,553.46,834.083,554.065,835.477,554.282Z" transform="translate(-218.687 -6.552)" fill="#5c8ebc"/>
      <path id="Trazado_18321" data-name="Trazado 18321" d="M833.286,540.983c.294-1.885,2.077-2.731,4.464-2.359,2.469.384,3.672,1.976,3.417,3.622s-1.863,2.789-4.091,2.442C834.871,544.344,832.953,543.121,833.286,540.983Zm3.881,2.443c1.326.206,2.656-.219,2.83-1.327.168-1.086-.72-2-2.389-2.257-1.531-.239-2.984.144-3.169,1.332C834.217,542.6,835.774,543.209,837.167,543.427Z" transform="translate(-219.265 -2.839)" fill="#5c8ebc"/>
      <g id="Grupo_8756" data-name="Grupo 8756" transform="translate(668.457 614.549)" opacity="0.6" style="mix-blend-mode: multiply;isolation: isolate">
        <path id="Trazado_18322" data-name="Trazado 18322" d="M941.3,518.565,920.08,483.4a25.354,25.354,0,1,0-10.737,6.479l21.218,35.164c1.292,2.141,4.765,2.436,7.719.654S942.59,520.707,941.3,518.565Zm-55.351-43.649a18.319,18.319,0,1,1,25.149,6.221A18.319,18.319,0,0,1,885.947,474.916Z" transform="translate(-876.657 -440.243)" fill="#a9b2bd"/>
      </g>
      <g id="Grupo_8757" data-name="Grupo 8757" transform="translate(668.441 614.768)">
        <circle id="Elipse_568" data-name="Elipse 568" cx="17.966" cy="17.966" r="17.966" transform="translate(0 20.403) rotate(-34.599)" fill="#a9b2bd"/>
      </g>
      <path id="Trazado_18323" data-name="Trazado 18323" d="M764,694.433l-1.04-.158L742.356,829.453h1.064Z" transform="translate(-188.181 -56.099)" fill="#a9b2bd"/>
      <path id="Trazado_18324" data-name="Trazado 18324" d="M778.378,696.607l-1.04-.158L756.949,830.2h1.064Z" transform="translate(-193.171 -56.842)" fill="#a9b2bd"/>
      <path id="Trazado_18325" data-name="Trazado 18325" d="M792.753,698.781l-1.04-.158L771.541,830.94H772.6Z" transform="translate(-198.161 -57.586)" fill="#a9b2bd"/>
      <path id="Trazado_18326" data-name="Trazado 18326" d="M807.127,700.955l-1.039-.158L786.134,831.683H787.2Z" transform="translate(-203.152 -58.329)" fill="#a9b2bd"/>
      <path id="Trazado_18327" data-name="Trazado 18327" d="M745.989,616.66l-177.942-2.44-2.629,188.047H743.395Z" transform="translate(-127.67 -28.721)" fill="#a9b2bd" opacity="0.6" style="mix-blend-mode: multiply;isolation: isolate"/>
      <path id="Trazado_18328" data-name="Trazado 18328" d="M733.2,616.326l-177.942-2.488-2.63,188.107H730.6Z" transform="translate(-123.294 -28.59)" fill="#fff"/>
      <path id="Trazado_18329" data-name="Trazado 18329" d="M555.845,614.455l175.407,2.452-2.578,184.369h2.536l2.613-186.869-180.477-2.523L550.7,801.277h2.536Z" transform="translate(-122.635 -27.922)" fill="#2b537f"/>
      <path id="Trazado_18330" data-name="Trazado 18330" d="M743.979,618.765l-1.051-.015-2.585,184.875h1.052Z" transform="translate(-187.492 -30.27)" fill="#a9b2bd"/>
      <path id="Trazado_18344" data-name="Trazado 18344" d="M957.542,541.424h0c-2.952,1.782-6.426,1.488-7.718-.654l-23.467-38.89c-1.292-2.142,1.647-2.733,4.6-4.514l.565-.515c2.953-1.782,4.28-3.593,5.573-1.451l23.466,38.89C961.854,536.432,960.5,539.642,957.542,541.424Z" transform="translate(-225.09 155.775)" fill="#bae1fe"/>
      <path id="Trazado_18345" data-name="Trazado 18345" d="M951.627,542.79a4.513,4.513,0,0,1-2.889-2.023l-23.467-38.89a2.359,2.359,0,0,1-.35-1.9c.331-1.153,1.588-1.789,3.182-2.594.64-.324,1.3-.659,1.971-1.059l.631-.554c.649-.392,1.227-.792,1.737-1.145,1.271-.88,2.275-1.575,3.328-1.349a2.545,2.545,0,0,1,1.59,1.311l23.467,38.89a4.775,4.775,0,0,1,.134,4.417,8.795,8.795,0,0,1-8.377,5.055A6.255,6.255,0,0,1,951.627,542.79Zm-20.04-45.714-.632.555c-.742.448-1.484.824-2.14,1.155-1.1.556-2.236,1.131-2.377,1.622a.9.9,0,0,0,.185.653l23.466,38.891a3.246,3.246,0,0,0,2.627,1.419,6.786,6.786,0,0,0,4.008-1.034h0a6.784,6.784,0,0,0,2.783-3.063,3.248,3.248,0,0,0-.031-2.987L936.01,495.4c-.207-.342-.4-.544-.57-.584-.385-.083-1.218.493-2.1,1.1C932.829,496.273,932.25,496.673,931.587,497.076Z" transform="translate(-224.68 156.186)" fill="#2b537f"/>
      <path id="Trazado_18346" data-name="Trazado 18346" d="M892.524,439.63a25.356,25.356,0,1,0,34.809,8.61A25.355,25.355,0,0,0,892.524,439.63Zm22.18,37.245a18.319,18.319,0,1,1,6.22-25.149A18.319,18.319,0,0,1,914.7,476.875Z" transform="translate(-209.434 175.764)" fill="#bae1fe"/>
      <path id="Trazado_18347" data-name="Trazado 18347" d="M899.006,486.353l-.1-.024a26.177,26.177,0,0,1-7.239-47.824h0a26.177,26.177,0,1,1,7.336,47.848Zm-6.487-46.441a24.534,24.534,0,0,0,6.785,44.822l.091.022a24.534,24.534,0,1,0-6.876-44.844Zm7.766,39.454-.071-.018a19.141,19.141,0,1,1,14.485-2.192h0A19.014,19.014,0,0,1,900.284,479.366Zm8.66-35.591a17.493,17.493,0,0,0-8.337,33.978l.066.016a17.493,17.493,0,1,0,8.271-33.994Z" transform="translate(-209.004 176.186)" fill="#2b537f"/>
      <path id="Trazado_18348" data-name="Trazado 18348" d="M1103.825,531.021l-.318-81.219c-.007-1.7-1.74-3.095-3.853-3.089h-.494l-.111-8.408c-.015-1.171-1.468-2.124-3.228-2.119s-3.188.965-3.172,2.135l.11,8.409-5.136.013-.11-8.409c-.015-1.17-1.468-2.123-3.228-2.119s-3.188.966-3.173,2.136l.111,8.409-5.136.013-.11-8.409c-.016-1.17-1.469-2.124-3.229-2.119s-3.188.965-3.172,2.136l.11,8.408-5.285.014-.106-8.03c-.015-1.17-1.468-2.124-3.228-2.119s-3.188.965-3.172,2.136l.105,8.03-5.135.012-.106-8.03c-.015-1.171-1.468-2.124-3.228-2.119h0c-1.761,0-3.188.965-3.173,2.135l.106,8.03-5.136.013-.105-8.03c-.016-1.17-1.469-2.123-3.229-2.12s-3.188.966-3.172,2.136l.106,8.03-4.986.013-.11-8.409c-.015-1.17-1.468-2.123-3.228-2.119s-3.188.966-3.173,2.136l.112,8.461a3.614,3.614,0,0,0-3.043,2.331,2.786,2.786,0,0,0-.253,1.155l.026,6.675h.146l.291,74.164c.007,1.7,1.74,3.069,3.853,3.064l75.437-.205C1102.109,534.138,1103.832,532.725,1103.825,531.021Z" transform="translate(-283.215 110.303)" fill="#a9b2bd" opacity="0.6" style="mix-blend-mode: multiply;isolation: isolate"/>
      <path id="Trazado_18349" data-name="Trazado 18349" d="M1092.536,535.738l-75.437.183c-2.112.005-3.846-1.316-3.853-2.936l-.318-77.192c-.007-1.62,1.716-2.95,3.828-2.954l75.437-.183c2.113-.005,3.846,1.316,3.853,2.936l.318,77.192C1096.371,534.4,1094.648,535.732,1092.536,535.738Z" transform="translate(-280.713 104.671)" fill="#ccf5ff"/>
      <path id="Trazado_18350" data-name="Trazado 18350" d="M1015.231,536.089c-1.928-.455-3.335-1.833-3.342-3.459l-.318-77.192c-.009-2,2.109-3.636,4.719-3.642l75.437-.183c2.612-.007,4.741,1.617,4.749,3.619l.318,77.193c.008,2-2.109,3.636-4.719,3.642l-75.437.183A6.077,6.077,0,0,1,1015.231,536.089Zm77.378-83.006a3.759,3.759,0,0,0-.876-.1l-75.437.182c-1.625,0-2.943,1.021-2.937,2.267l.318,77.191a2.023,2.023,0,0,0,.872,1.594,3.43,3.43,0,0,0,2.083.659l75.437-.182c1.625,0,2.943-1.021,2.937-2.267l-.318-77.193A2.433,2.433,0,0,0,1092.609,453.084Z" transform="translate(-280.248 105.027)" fill="#2b537f"/>
      <path id="Trazado_18351" data-name="Trazado 18351" d="M1012.8,481.35l-.064-21.639c-.017-5.324,1.7-9.686,3.81-9.693l75.437-.238c2.112-.007,3.855,4.344,3.871,9.669l.068,21.9Z" transform="translate(-280.647 105.654)" fill="#67c1ff"/>
      <path id="Trazado_18352" data-name="Trazado 18352" d="M1011.515,481.642l-.45-28.331a4.929,4.929,0,0,1,4.907-4.938l75.437-.238a4.929,4.929,0,0,1,4.938,4.907l.03,28.682Zm80.721-31.222a2.765,2.765,0,0,0-.819-.122l-75.437.238a2.761,2.761,0,0,0-2.75,2.767l.022,26.415,80.955-.332-.024-26.338A2.764,2.764,0,0,0,1092.235,450.42Z" transform="translate(-280.075 106.217)" fill="#2b537f"/>
      <path id="Trazado_18353" data-name="Trazado 18353" d="M1020.919,448.119h0a3,3,0,0,1-3.229-2.626l-.141-13.275a2.942,2.942,0,0,1,3.172-2.647h0a3,3,0,0,1,3.229,2.627l.141,13.274A2.942,2.942,0,0,1,1020.919,448.119Z" transform="translate(-282.293 112.565)" fill="#67c1ff"/>
      <path id="Trazado_18354" data-name="Trazado 18354" d="M1018.914,448.426a3.826,3.826,0,0,1-2.868-3.484l-.141-13.274a3.428,3.428,0,0,1,1.025-2.446,4.561,4.561,0,0,1,3.227-1.294,4.064,4.064,0,0,1,4.314,3.7l.141,13.274a3.427,3.427,0,0,1-1.024,2.445,4.557,4.557,0,0,1-3.227,1.3h0A4.855,4.855,0,0,1,1018.914,448.426Zm2.058-18.214a2.7,2.7,0,0,0-.809-.119,2.416,2.416,0,0,0-1.693.65,1.281,1.281,0,0,0-.4.9l.142,13.274c.009.847.988,1.559,2.143,1.556a2.417,2.417,0,0,0,1.693-.651,1.281,1.281,0,0,0,.4-.9l-.141-13.275A1.688,1.688,0,0,0,1020.972,430.211Z" transform="translate(-281.73 113.127)" fill="#2b537f"/>
      <path id="Trazado_18355" data-name="Trazado 18355" d="M1038.231,448.777h0a3,3,0,0,1-3.228-2.626l-.142-13.275a2.942,2.942,0,0,1,3.173-2.647h0a3,3,0,0,1,3.228,2.626l.141,13.275A2.942,2.942,0,0,1,1038.231,448.777Z" transform="translate(-288.213 112.34)" fill="#67c1ff"/>
      <path id="Trazado_18356" data-name="Trazado 18356" d="M1036.226,449.083a3.824,3.824,0,0,1-2.868-3.484l-.142-13.274a3.428,3.428,0,0,1,1.024-2.445,4.56,4.56,0,0,1,3.227-1.3,4.064,4.064,0,0,1,4.314,3.7l.141,13.274A3.427,3.427,0,0,1,1040.9,448a4.557,4.557,0,0,1-3.228,1.3h0A4.859,4.859,0,0,1,1036.226,449.083Zm2.058-18.215a2.734,2.734,0,0,0-.81-.119,2.416,2.416,0,0,0-1.692.651,1.28,1.28,0,0,0-.4.9l.141,13.275c.009.848.992,1.559,2.143,1.556a2.417,2.417,0,0,0,1.693-.651,1.278,1.278,0,0,0,.4-.9l-.141-13.275A1.686,1.686,0,0,0,1038.284,430.868Z" transform="translate(-287.651 112.903)" fill="#2b537f"/>
      <path id="Trazado_18357" data-name="Trazado 18357" d="M1055.764,448.722h0a3,3,0,0,1-3.229-2.626l-.141-13.275a2.941,2.941,0,0,1,3.172-2.646h0a2.994,2.994,0,0,1,3.228,2.626l.142,13.275A2.942,2.942,0,0,1,1055.764,448.722Z" transform="translate(-294.209 112.359)" fill="#67c1ff"/>
      <path id="Trazado_18358" data-name="Trazado 18358" d="M1053.758,449.028a3.828,3.828,0,0,1-2.868-3.484l-.14-13.274a3.423,3.423,0,0,1,1.024-2.445,4.556,4.556,0,0,1,3.226-1.3,4.066,4.066,0,0,1,4.315,3.7l.141,13.275a3.432,3.432,0,0,1-1.025,2.446,4.562,4.562,0,0,1-3.227,1.295h0A4.844,4.844,0,0,1,1053.758,449.028Zm2.059-18.215a2.735,2.735,0,0,0-.81-.119,2.418,2.418,0,0,0-1.693.651,1.284,1.284,0,0,0-.4.9l.141,13.275c.009.847.992,1.559,2.144,1.556a2.416,2.416,0,0,0,1.692-.651,1.28,1.28,0,0,0,.4-.9l-.141-13.274A1.688,1.688,0,0,0,1055.817,430.813Z" transform="translate(-293.647 112.922)" fill="#2b537f"/>
      <path id="Trazado_18359" data-name="Trazado 18359" d="M1073.3,448.667h0a3,3,0,0,1-3.228-2.627l-.142-13.274a2.943,2.943,0,0,1,3.172-2.647h0a3,3,0,0,1,3.229,2.627l.141,13.275A2.943,2.943,0,0,1,1073.3,448.667Z" transform="translate(-300.205 112.378)" fill="#67c1ff"/>
      <path id="Trazado_18360" data-name="Trazado 18360" d="M1071.291,448.973a3.826,3.826,0,0,1-2.868-3.484l-.141-13.275a3.428,3.428,0,0,1,1.024-2.445,4.557,4.557,0,0,1,3.227-1.295,4.065,4.065,0,0,1,4.315,3.7l.141,13.275a3.433,3.433,0,0,1-1.024,2.445,4.562,4.562,0,0,1-3.227,1.3h0A4.841,4.841,0,0,1,1071.291,448.973Zm2.058-18.215a2.729,2.729,0,0,0-.81-.119,2.413,2.413,0,0,0-1.692.651,1.281,1.281,0,0,0-.4.9l.141,13.275c.009.847.992,1.56,2.143,1.556a2.416,2.416,0,0,0,1.693-.651,1.286,1.286,0,0,0,.4-.9l-.141-13.275A1.688,1.688,0,0,0,1073.349,430.758Z" transform="translate(-299.643 112.94)" fill="#2b537f"/>
      <path id="Trazado_18361" data-name="Trazado 18361" d="M1091.048,447.9h0a3,3,0,0,1-3.228-2.626L1087.678,432a2.943,2.943,0,0,1,3.173-2.646h0a3,3,0,0,1,3.228,2.626l.141,13.275A2.942,2.942,0,0,1,1091.048,447.9Z" transform="translate(-306.276 112.641)" fill="#67c1ff"/>
      <path id="Trazado_18362" data-name="Trazado 18362" d="M1089.042,448.2a3.825,3.825,0,0,1-2.867-3.484l-.141-13.274a3.43,3.43,0,0,1,1.024-2.445,4.559,4.559,0,0,1,3.227-1.3,4.065,4.065,0,0,1,4.315,3.7l.141,13.275a3.432,3.432,0,0,1-1.024,2.445,4.56,4.56,0,0,1-3.227,1.295h0A4.854,4.854,0,0,1,1089.042,448.2Zm2.06-18.215a2.757,2.757,0,0,0-.81-.119,2.417,2.417,0,0,0-1.693.651,1.279,1.279,0,0,0-.4.9l.141,13.275c.009.846.991,1.559,2.143,1.556h0a2.422,2.422,0,0,0,1.692-.65,1.278,1.278,0,0,0,.4-.9l-.141-13.275A1.688,1.688,0,0,0,1091.1,429.99Z" transform="translate(-305.714 113.203)" fill="#2b537f"/>
      <path id="Trazado_18363" data-name="Trazado 18363" d="M1108.581,447.843h0a3,3,0,0,1-3.229-2.626l-.141-13.275a2.942,2.942,0,0,1,3.172-2.647h0a3,3,0,0,1,3.229,2.626l.141,13.275A2.942,2.942,0,0,1,1108.581,447.843Z" transform="translate(-312.272 112.66)" fill="#67c1ff"/>
      <path id="Trazado_18364" data-name="Trazado 18364" d="M1106.574,448.149a3.826,3.826,0,0,1-2.867-3.484l-.141-13.274a3.431,3.431,0,0,1,1.024-2.445,4.562,4.562,0,0,1,3.227-1.3,4.064,4.064,0,0,1,4.315,3.7l.141,13.274a3.429,3.429,0,0,1-1.025,2.446,4.556,4.556,0,0,1-3.226,1.294h0A4.872,4.872,0,0,1,1106.574,448.149Zm2.059-18.215a2.722,2.722,0,0,0-.809-.119,2.417,2.417,0,0,0-1.693.651,1.286,1.286,0,0,0-.4.9l.141,13.275c.01.847.991,1.559,2.143,1.556h0a2.418,2.418,0,0,0,1.692-.649,1.285,1.285,0,0,0,.4-.9l-.142-13.274A1.687,1.687,0,0,0,1108.633,429.934Z" transform="translate(-311.709 113.222)" fill="#2b537f"/>
      <path id="Trazado_18365" data-name="Trazado 18365" d="M1125.783,448.173h0a3,3,0,0,1-3.228-2.627l-.142-13.275a2.943,2.943,0,0,1,3.173-2.647h0a3,3,0,0,1,3.228,2.627l.141,13.274A2.943,2.943,0,0,1,1125.783,448.173Z" transform="translate(-318.155 112.547)" fill="#67c1ff"/>
      <path id="Trazado_18366" data-name="Trazado 18366" d="M1123.777,448.479A3.826,3.826,0,0,1,1120.91,445l-.141-13.274a3.427,3.427,0,0,1,1.025-2.446,4.556,4.556,0,0,1,3.227-1.295,4.066,4.066,0,0,1,4.314,3.7l.141,13.275a3.428,3.428,0,0,1-1.025,2.446,4.559,4.559,0,0,1-3.226,1.294h0A4.872,4.872,0,0,1,1123.777,448.479Zm2.06-18.215a2.713,2.713,0,0,0-.81-.119,2.416,2.416,0,0,0-1.693.65,1.278,1.278,0,0,0-.4.9l.141,13.274c.009.848.991,1.56,2.143,1.556h0a2.416,2.416,0,0,0,1.693-.65,1.282,1.282,0,0,0,.4-.9l-.141-13.274A1.689,1.689,0,0,0,1125.837,430.264Z" transform="translate(-317.592 113.109)" fill="#2b537f"/>
      <path id="Trazado_18367" data-name="Trazado 18367" d="M1044.532,538.745l6.157-.028-.072-16.376-5.309.024-.018-4.059a19.756,19.756,0,0,0,7.038-2.62l4.818-.022.1,23.023,5.31-.023.024,5.31-18.026.08Z" transform="translate(-291.521 83.122)" fill="#2b537f"/>
      <path id="Trazado_18368" data-name="Trazado 18368" d="M1077.156,540.459l2.927-4.162a9.11,9.11,0,0,0,6.125,2.784c2.9-.013,4.768-1.538,4.755-4.438-.013-2.855-1.849-4.365-4.482-4.353a6.712,6.712,0,0,0-4.188,1.446l-2.952-1.861.74-14.326,16.063-.072.024,5.533-10.4.046-.467,5.312a7.1,7.1,0,0,1,3.165-.684c4.863-.021,9.025,2.727,9.051,8.751.028,6.292-4.82,9.927-10.353,9.951A13.451,13.451,0,0,1,1077.156,540.459Z" transform="translate(-302.678 83.186)" fill="#2b537f"/>
      <path id="Trazado_18369" data-name="Trazado 18369" d="M1037.428,467.589l3.838-.007,4.447,14.134-3.383.005-.873-3.36-4.316.007-.862,3.362-3.254.005Zm.36,8.284,3.015,0-.328-1.3c-.392-1.408-.785-3.078-1.156-4.552h-.087c-.344,1.5-.711,3.147-1.1,4.556Z" transform="translate(-287.585 99.566)" fill="#fff"/>
      <path id="Trazado_18370" data-name="Trazado 18370" d="M1054.609,467.564l4.858-.007c3.1-.005,5.619,1.119,5.624,4.545.005,3.318-2.53,4.8-5.522,4.8l-1.757,0,.007,4.793-3.187.005Zm4.761,6.8c1.757,0,2.6-.784,2.6-2.259s-.958-2.015-2.692-2.013l-1.475,0,.007,4.272Z" transform="translate(-294.967 99.575)" fill="#fff"/>
      <path id="Trazado_18371" data-name="Trazado 18371" d="M1074.249,467.533l5.1-.009c2.992,0,5.446,1.033,5.45,4.394a4.132,4.132,0,0,1-2.509,4.081l3.218,5.656-3.578.006-2.72-5.092-1.757,0,.009,5.1-3.188,0Zm4.846,6.5c1.67,0,2.58-.72,2.578-2.108s-.913-1.863-2.584-1.861l-1.648,0,.006,3.968Z" transform="translate(-301.684 99.586)" fill="#fff"/>
      <path id="Trazado_18372" data-name="Trazado 18372" d="M1094.449,467.5l3.188-.005.022,14.14-3.188.005Z" transform="translate(-308.592 99.595)" fill="#fff"/>
      <path id="Trazado_18373" data-name="Trazado 18373" d="M1104.368,467.486l3.188-.005.018,11.451,5.6-.009,0,2.689-8.783.013Z" transform="translate(-311.984 99.601)" fill="#fff"/>
      <path id="Rectángulo_2123" data-name="Rectángulo 2123" d="M5.385,0H79.576a5.386,5.386,0,0,1,5.386,5.386v38.3a5.385,5.385,0,0,1-5.385,5.385H5.386A5.386,5.386,0,0,1,0,43.687V5.385A5.385,5.385,0,0,1,5.385,0Z" transform="matrix(0.003, -1, 1, 0.003, 641.973, 758.478)" fill="#67c1ff"/>
      <path id="Trazado_18374" data-name="Trazado 18374" d="M920.787,833.6h-.014l-41.985-.134a4.594,4.594,0,0,1-4.574-4.6l.249-77.875a4.593,4.593,0,0,1,4.588-4.574h.015l41.985.134a4.6,4.6,0,0,1,4.574,4.6l-.249,77.874A4.594,4.594,0,0,1,920.787,833.6ZM879.051,748.5a2.5,2.5,0,0,0-2.5,2.49l-.25,77.875a2.5,2.5,0,0,0,2.491,2.506l41.984.134h.009a2.5,2.5,0,0,0,2.5-2.491l.249-77.873a2.5,2.5,0,0,0-2.491-2.508l-41.985-.134Z" transform="translate(-233.274 -73.929)" fill="#2b537f"/>
      <rect id="Rectángulo_2124" data-name="Rectángulo 2124" width="84.962" height="11.107" transform="translate(651.258 758.508) rotate(-89.817)" fill="#2b537f"/>
      <rect id="Rectángulo_2125" data-name="Rectángulo 2125" width="33.889" height="4.838" transform="translate(666.661 711.198) rotate(-89.817)" fill="#fff"/>
      <circle id="Elipse_569" data-name="Elipse 569" cx="19.318" cy="19.318" r="19.318" transform="translate(669.835 644.199) rotate(-60.169)" fill="#fff"/>
      <path id="Trazado_18376" data-name="Trazado 18376" d="M904.051,483.272a19.54,19.54,0,1,1,13.321-36.481h0a19.54,19.54,0,0,1-13.321,36.481Zm9.134-37.545a19.106,19.106,0,1,0,3.99,1.459A19.13,19.13,0,0,0,913.185,445.727Z" transform="translate(-212.467 172.765)" fill="#fff"/>
      <path id="Trazado_18377" data-name="Trazado 18377" d="M386.418,625.467,264.58,654.525l31.66,151.589H459.678Z" transform="translate(-24.787 -32.567)" fill="#a9b2bd" opacity="0.6" style="mix-blend-mode: multiply;isolation: isolate"/>
      <path id="Trazado_18378" data-name="Trazado 18378" d="M429.281,613.356,271.814,646.294l32.534,155.534H468.705Z" transform="translate(-27.261 -28.426)" fill="#fff"/>
      <path id="Trazado_18379" data-name="Trazado 18379" d="M272.465,646.477l155.224-32.47L466.83,801.123h2.341L429.464,611.295,270.874,644.469l-1.122.234,32.719,156.421h2.342Z" transform="translate(-26.556 -27.721)" fill="#2b537f"/>
      <ellipse id="Elipse_570" data-name="Elipse 570" cx="20.721" cy="20.952" rx="20.721" ry="20.952" transform="translate(348.068 668.965)" fill="#cdd0da"/>
      <path id="Trazado_18380" data-name="Trazado 18380" d="M460.421,759.156,460.6,738.2s16.822-.592,20.425,18.721Z" transform="translate(-91.762 -71.121)" fill="#fce2b4"/>
      <path id="Trazado_18381" data-name="Trazado 18381" d="M450.306,761.944l-16.417,12.087c-.93,2.408-16.319-28.262,16.249-32.966Z" transform="translate(-81.171 -72.1)" fill="#61d0f7"/>
      <path id="Trazado_18382" data-name="Trazado 18382" d="M481.51,757.19,459.3,759.6l.192-22.5.7-.025a21.29,21.29,0,0,1,9.206,2.191c4.4,2.142,10.049,6.853,11.967,17.134Zm-20.732.752,18.984-2.056c-1.546-7.318-5.227-12.448-10.947-15.255a20.8,20.8,0,0,0-7.872-2.058Z" transform="translate(-91.377 -70.735)" fill="#2b537f"/>
      <path id="Trazado_18383" data-name="Trazado 18383" d="M453.956,773.595l-16.684,12.4-.87-1.2,16.684-12.4Z" transform="translate(-83.548 -82.816)" fill="#2b537f"/>
      <path id="Trazado_18384" data-name="Trazado 18384" d="M453.863,782.864a21.485,21.485,0,0,1-25.4-16.787,21.716,21.716,0,0,1,16.6-25.68,21.484,21.484,0,0,1,25.4,16.788A21.716,21.716,0,0,1,453.863,782.864ZM445.37,741.85A20.229,20.229,0,0,0,429.9,765.772a20.013,20.013,0,0,0,23.659,15.638,20.229,20.229,0,0,0,15.466-23.922A20.014,20.014,0,0,0,445.37,741.85Z" transform="translate(-80.678 -71.713)" fill="#2b537f"/>
      <path id="Trazado_18385" data-name="Trazado 18385" d="M427.643,643.931,298.026,671.374a2.759,2.759,0,0,1-3.266-2.158h0a2.789,2.789,0,0,1,2.135-3.3l129.617-27.442a2.759,2.759,0,0,1,3.266,2.158h0A2.789,2.789,0,0,1,427.643,643.931Z" transform="translate(-35.088 -36.994)" fill="#cdd0da"/>
      <path id="Trazado_18386" data-name="Trazado 18386" d="M432.429,660.832,300.152,688.838a1.4,1.4,0,0,1-1.658-1.1h0a1.416,1.416,0,0,1,1.084-1.676l132.277-28.006a1.4,1.4,0,0,1,1.657,1.1h0A1.415,1.415,0,0,1,432.429,660.832Z" transform="translate(-36.375 -43.704)" fill="#cdd0da"/>
      <path id="Trazado_18387" data-name="Trazado 18387" d="M435.135,673.9,302.858,701.906a1.4,1.4,0,0,1-1.658-1.1h0a1.416,1.416,0,0,1,1.084-1.676l132.277-28.006a1.4,1.4,0,0,1,1.657,1.1h0A1.415,1.415,0,0,1,435.135,673.9Z" transform="translate(-37.301 -48.173)" fill="#cdd0da"/>
      <path id="Trazado_18388" data-name="Trazado 18388" d="M437.841,686.967,305.564,714.973a1.4,1.4,0,0,1-1.658-1.1h0a1.415,1.415,0,0,1,1.084-1.675L437.267,684.2a1.4,1.4,0,0,1,1.657,1.1h0A1.416,1.416,0,0,1,437.841,686.967Z" transform="translate(-38.226 -52.641)" fill="#cdd0da"/>
      <path id="Trazado_18389" data-name="Trazado 18389" d="M440.547,700.034,308.27,728.04a1.4,1.4,0,0,1-1.658-1.1h0a1.416,1.416,0,0,1,1.084-1.675l132.277-28.006a1.4,1.4,0,0,1,1.657,1.095h0A1.416,1.416,0,0,1,440.547,700.034Z" transform="translate(-39.152 -57.11)" fill="#cdd0da"/>
      <path id="Trazado_18390" data-name="Trazado 18390" d="M379.809,759.465l-63.051,13.394c-1.117.237-2.269-.764-2.575-2.237l-.026-.128c-.306-1.473.351-2.858,1.468-3.1L378.676,754c1.117-.237,2.27.764,2.575,2.236l.027.129C381.583,757.842,380.925,759.227,379.809,759.465Z" transform="translate(-41.716 -76.514)" fill="#cdd0da"/>
      <path id="Trazado_18391" data-name="Trazado 18391" d="M384.535,776.247,319.343,790.1c-.526.112-1.068-.359-1.212-1.052l-.055-.262a1.167,1.167,0,0,1,.691-1.457l65.192-13.849c.526-.111,1.068.36,1.212,1.053l.055.262A1.166,1.166,0,0,1,384.535,776.247Z" transform="translate(-43.071 -83.179)" fill="#cdd0da"/>
      <path id="Trazado_18392" data-name="Trazado 18392" d="M387.248,789.313l-65.192,13.849c-.525.112-1.068-.359-1.211-1.052l-.055-.262a1.166,1.166,0,0,1,.691-1.457l65.192-13.849c.525-.112,1.068.359,1.212,1.052l.054.262A1.166,1.166,0,0,1,387.248,789.313Z" transform="translate(-43.998 -87.647)" fill="#cdd0da"/>
      <path id="Trazado_18393" data-name="Trazado 18393" d="M389.961,802.379l-65.192,13.849c-.525.111-1.068-.36-1.212-1.052l-.054-.262a1.166,1.166,0,0,1,.691-1.457l65.192-13.849c.525-.112,1.068.359,1.211,1.052l.055.262A1.166,1.166,0,0,1,389.961,802.379Z" transform="translate(-44.926 -92.116)" fill="#cdd0da"/>
      <path id="Trazado_18394" data-name="Trazado 18394" d="M392.674,815.445l-65.192,13.849c-.526.111-1.068-.36-1.212-1.053l-.054-.262a1.165,1.165,0,0,1,.691-1.456L392.1,812.674c.526-.112,1.068.359,1.212,1.052l.055.262A1.167,1.167,0,0,1,392.674,815.445Z" transform="translate(-45.854 -96.584)" fill="#cdd0da"/>
      <path id="Trazado_18395" data-name="Trazado 18395" d="M494.937,829.769l-74.554,15.784a2.661,2.661,0,0,1-3.15-2.082l-.04-.193a2.692,2.692,0,0,1,2.06-3.185l74.554-15.784a2.662,2.662,0,0,1,3.15,2.083l.04.193A2.691,2.691,0,0,1,494.937,829.769Z" transform="translate(-76.959 -100.549)" fill="#cdd0da"/>
      <path id="Trazado_18396" data-name="Trazado 18396" d="M499.8,846.642,422.41,863.028a1.21,1.21,0,0,1-1.432-.947l-.078-.376a1.223,1.223,0,0,1,.936-1.448l77.394-16.386a1.21,1.21,0,0,1,1.433.947l.078.375A1.224,1.224,0,0,1,499.8,846.642Z" transform="translate(-78.238 -107.25)" fill="#cdd0da"/>
      <path id="Trazado_18397" data-name="Trazado 18397" d="M502.51,859.709,425.116,876.1a1.21,1.21,0,0,1-1.432-.947l-.078-.375a1.224,1.224,0,0,1,.936-1.449l77.394-16.386a1.21,1.21,0,0,1,1.432.947l.078.375A1.224,1.224,0,0,1,502.51,859.709Z" transform="translate(-79.163 -111.719)" fill="#cdd0da"/>
      <path id="Trazado_18398" data-name="Trazado 18398" d="M505.216,872.776l-77.394,16.386a1.21,1.21,0,0,1-1.432-.947l-.078-.375a1.224,1.224,0,0,1,.936-1.449l77.394-16.386a1.211,1.211,0,0,1,1.432.947l.078.376A1.224,1.224,0,0,1,505.216,872.776Z" transform="translate(-80.089 -116.187)" fill="#cdd0da"/>
      <path id="Trazado_18399" data-name="Trazado 18399" d="M348.189,896.161l-1.538-7.387-9.089,1.9,1.14,5.483Z" transform="translate(-49.746 -122.615)" fill="#ffda66"/>
      <path id="Trazado_18400" data-name="Trazado 18400" d="M366.981,897.374l-1.055-5.053-9.089,1.9.656,3.149Z" transform="translate(-56.338 -123.828)" fill="#ff8089"/>
      <path id="Trazado_18401" data-name="Trazado 18401" d="M385.316,891.748l-3.3-15.877-9.089,1.9,2.9,13.973Z" transform="translate(-61.842 -118.202)" fill="#30a9de"/>
      <path id="Trazado_18402" data-name="Trazado 18402" d="M405.436,895.441l-1.825-8.771-9.089,1.9,1.426,6.868Z" transform="translate(-69.226 -121.895)" fill="#fce2b4"/>
      <path id="Trazado_18403" data-name="Trazado 18403" d="M522.059,884.374l-.078-.376a1.239,1.239,0,0,0-1.432-.988l-52.958,11.171h13.662l39.87-8.4A1.183,1.183,0,0,0,522.059,884.374Z" transform="translate(-94.214 -120.635)" fill="#bae1fe"/>
      <path id="Trazado_18404" data-name="Trazado 18404" d="M649.009,677.04l-1.04-.158L625.617,823.5h1.064Z" transform="translate(-148.257 -50.15)" fill="#a9b2bd"/>
      <path id="Trazado_18405" data-name="Trazado 18405" d="M663.383,679.214l-1.04-.159L640.209,824.248h1.064Z" transform="translate(-153.247 -50.894)" fill="#a9b2bd"/>
      <path id="Trazado_18406" data-name="Trazado 18406" d="M677.758,681.388l-1.04-.158L654.8,824.992h1.064Z" transform="translate(-158.238 -51.637)" fill="#a9b2bd"/>
      <path id="Trazado_18407" data-name="Trazado 18407" d="M692.132,683.562l-1.039-.158-21.7,142.332h1.064Z" transform="translate(-163.228 -52.381)" fill="#a9b2bd"/>
      <path id="Trazado_18408" data-name="Trazado 18408" d="M706.506,685.736l-1.04-.159-21.481,140.9h1.064Z" transform="translate(-168.219 -53.124)" fill="#a9b2bd"/>
      <path id="Trazado_18409" data-name="Trazado 18409" d="M720.881,687.91l-1.04-.158L698.579,827.222h1.064Z" transform="translate(-173.209 -53.868)" fill="#a9b2bd"/>
      <path id="Trazado_18410" data-name="Trazado 18410" d="M735.255,690.084l-1.04-.159-21.044,138.04h1.064Z" transform="translate(-178.2 -54.611)" fill="#a9b2bd"/>
      <path id="Trazado_18411" data-name="Trazado 18411" d="M628.576,617.151l-1.051-.015-2.6,185.937h1.052Z" transform="translate(-148.02 -29.718)" fill="#a9b2bd"/>
      <path id="Trazado_18412" data-name="Trazado 18412" d="M643,617.353l-1.051-.015-2.6,185.8H640.4Z" transform="translate(-152.954 -29.787)" fill="#a9b2bd"/>
      <path id="Trazado_18413" data-name="Trazado 18413" d="M657.426,617.554l-1.051-.015-2.6,185.671h1.052Z" transform="translate(-157.888 -29.856)" fill="#a9b2bd"/>
      <path id="Trazado_18414" data-name="Trazado 18414" d="M671.852,617.756l-1.051-.015L668.206,803.28h1.052Z" transform="translate(-162.822 -29.925)" fill="#a9b2bd"/>
      <path id="Trazado_18415" data-name="Trazado 18415" d="M686.277,617.958l-1.052-.015-2.592,185.406h1.052Z" transform="translate(-167.756 -29.994)" fill="#a9b2bd"/>
      <path id="Trazado_18416" data-name="Trazado 18416" d="M700.7,618.159l-1.051-.015-2.59,185.273h1.052Z" transform="translate(-172.69 -30.063)" fill="#a9b2bd"/>
      <path id="Trazado_18417" data-name="Trazado 18417" d="M715.128,618.361l-1.051-.015-2.589,185.14h1.052Z" transform="translate(-177.624 -30.132)" fill="#a9b2bd"/>
      <path id="Trazado_18418" data-name="Trazado 18418" d="M729.553,618.563l-1.052-.015-2.587,185.008h1.052Z" transform="translate(-182.558 -30.201)" fill="#a9b2bd"/>
      <rect id="Rectángulo_2126" data-name="Rectángulo 2126" width="1.966" height="20.949" transform="translate(490.202 607.213)" fill="#278cd4"/>
      <rect id="Rectángulo_2127" data-name="Rectángulo 2127" width="1.966" height="73.511" transform="translate(490.322 652.655)" fill="#278cd4"/>
      <rect id="Rectángulo_2128" data-name="Rectángulo 2128" width="1.966" height="20.949" transform="translate(517.17 607.213)" fill="#278cd4"/>
      <rect id="Rectángulo_2129" data-name="Rectángulo 2129" width="23.909" height="2.849" transform="translate(503.813 671.388)" fill="#278cd4"/>
      <rect id="Rectángulo_2130" data-name="Rectángulo 2130" width="23.909" height="2.849" transform="translate(503.813 714.5)" fill="#278cd4"/>
      <rect id="Rectángulo_2131" data-name="Rectángulo 2131" width="15.551" height="60.723" transform="translate(584.315 706.514) rotate(0.805)" fill="#67c1ff"/>
      <rect id="Rectángulo_2132" data-name="Rectángulo 2132" width="5.238" height="46.263" transform="translate(556.487 649.73) rotate(-89.192)" fill="#bae1fe"/>
      <rect id="Rectángulo_2133" data-name="Rectángulo 2133" width="5.238" height="46.263" transform="translate(556.487 661.676) rotate(-89.192)" fill="#bae1fe"/>
      <rect id="Rectángulo_2134" data-name="Rectángulo 2134" width="5.238" height="46.263" transform="translate(556.487 672.832) rotate(-89.192)" fill="#bae1fe"/>
      <rect id="Rectángulo_2135" data-name="Rectángulo 2135" width="15.551" height="41.687" transform="translate(564.163 725.268) rotate(0.805)" fill="#67c1ff"/>
      <path id="Trazado_18419" data-name="Trazado 18419" d="M710.254,806.634l21.124-21.126,19.962,4.413,9.2-18.665,16.1-12.027" transform="translate(-177.202 -78.312)" fill="#fff"/>
      <path id="Trazado_18420" data-name="Trazado 18420" d="M710.727,807.039l-1.97-1.97L730.421,783.4l19.64,4.343,8.863-17.985L775.3,757.533l1.667,2.232-15.836,11.827-9.532,19.345-20.284-4.484Z" transform="translate(-176.69 -77.732)" fill="#2b537f"/>
      <path id="Trazado_18421" data-name="Trazado 18421" d="M688.43,655.342l29.845,1.33,10.215,17.709,19.98-5.809,19.743,3.767" transform="translate(-169.739 -42.784)" fill="#fff"/>
      <path id="Trazado_18422" data-name="Trazado 18422" d="M727.8,675.3l-10.379-17.995-29.082-1.3.124-2.782,30.608,1.364,10.05,17.424,19.251-5.6,20.072,3.83-.522,2.736-19.415-3.7Z" transform="translate(-169.707 -42.061)" fill="#2b537f"/>
      <path id="Trazado_18423" data-name="Trazado 18423" d="M614.169,892.748l-.158,1.04,23.225,3.541h6.977Z" transform="translate(-144.288 -123.974)" fill="#a9b2bd"/>
      <path id="Trazado_18424" data-name="Trazado 18424" d="M616.393,878.161l-.159,1.039,86.187,13.139H709.4Z" transform="translate(-145.048 -118.985)" fill="#a9b2bd"/>
      <path id="Trazado_18425" data-name="Trazado 18425" d="M570.874,616.344l-1.051-.015L567.216,802.8h1.052Z" transform="translate(-128.285 -29.443)" fill="#a9b2bd"/>
      <path id="Trazado_18426" data-name="Trazado 18426" d="M585.3,616.546l-1.051-.015-2.605,186.335h1.052Z" transform="translate(-133.219 -29.511)" fill="#a9b2bd"/>
      <path id="Trazado_18427" data-name="Trazado 18427" d="M599.725,616.748l-1.051-.015-2.6,186.2h1.052Z" transform="translate(-138.153 -29.58)" fill="#a9b2bd"/>
      <path id="Trazado_18428" data-name="Trazado 18428" d="M614.15,616.949l-1.051-.015L610.5,803h1.052Z" transform="translate(-143.086 -29.649)" fill="#a9b2bd"/>
      <path id="Trazado_18429" data-name="Trazado 18429" d="M658.25,540.328a2.682,2.682,0,0,0-2.677-2.672H462.07a2.682,2.682,0,0,0-2.677,2.672V775.892H658.25Z" transform="translate(-91.411 -2.537)" fill="#a9b2bd" opacity="0.6" style="mix-blend-mode: multiply;isolation: isolate"/>
      <path id="Trazado_18430" data-name="Trazado 18430" d="M640.236,539.643a2.644,2.644,0,0,0-2.6-2.676H449.978a2.644,2.644,0,0,0-2.6,2.676V775.656H640.236Z" transform="translate(-87.304 -2.302)" fill="#a9b2bd" opacity="0.6" style="mix-blend-mode: multiply;isolation: isolate"/>
      <path id="Trazado_18431" data-name="Trazado 18431" d="M646.591,536.35a2.951,2.951,0,0,0-2.943-2.943H462.092a2.951,2.951,0,0,0-2.943,2.943V774.439H646.591Z" transform="translate(-91.327 -1.084)" fill="#fff"/>
      <path id="Rectángulo_2136" data-name="Rectángulo 2136" d="M2.167,0H80.005a2.167,2.167,0,0,1,2.167,2.167v0a2.167,2.167,0,0,1-2.167,2.167H2.167A2.167,2.167,0,0,1,0,2.167v0A2.167,2.167,0,0,1,2.167,0Z" transform="translate(461.542 560.955)" fill="#bae1fe"/>
      <path id="Rectángulo_2137" data-name="Rectángulo 2137" d="M2.167,0H80.005a2.167,2.167,0,0,1,2.167,2.167v0a2.167,2.167,0,0,1-2.167,2.167H2.167A2.167,2.167,0,0,1,0,2.167v0A2.167,2.167,0,0,1,2.167,0Z" transform="translate(461.542 576.717)" fill="#bae1fe"/>
      <path id="Trazado_18432" data-name="Trazado 18432" d="M638.877,629.161H478.867a2.173,2.173,0,0,1-2.167-2.167h0a2.173,2.173,0,0,1,2.167-2.167h160.01a2.173,2.173,0,0,1,2.167,2.167h0A2.173,2.173,0,0,1,638.877,629.161Z" transform="translate(-97.33 -32.348)" fill="#67c1ff"/>
      <path id="Trazado_18433" data-name="Trazado 18433" d="M638.877,556.982H478.867a2.173,2.173,0,0,1-2.167-2.167h0a2.173,2.173,0,0,1,2.167-2.167h160.01a2.173,2.173,0,0,1,2.167,2.167h0A2.173,2.173,0,0,1,638.877,556.982Z" transform="translate(-97.33 -7.664)" fill="#67c1ff"/>
      <rect id="Rectángulo_2138" data-name="Rectángulo 2138" width="82.172" height="4.334" rx="2.167" transform="translate(379.37 608.24)" fill="#bae1fe"/>
      <rect id="Rectángulo_2139" data-name="Rectángulo 2139" width="82.172" height="4.334" rx="2.167" transform="translate(379.37 624.002)" fill="#bae1fe"/>
      <path id="Trazado_18434" data-name="Trazado 18434" d="M638.877,701.021H478.867a2.173,2.173,0,0,1-2.167-2.167h0a2.173,2.173,0,0,1,2.167-2.167h160.01a2.173,2.173,0,0,1,2.167,2.167h0A2.173,2.173,0,0,1,638.877,701.021Z" transform="translate(-97.33 -56.924)" fill="#bae1fe"/>
      <path id="Trazado_18435" data-name="Trazado 18435" d="M638.877,844.742H478.867a2.173,2.173,0,0,1-2.167-2.167h0a2.173,2.173,0,0,1,2.167-2.167h160.01a2.173,2.173,0,0,1,2.167,2.167h0A2.174,2.174,0,0,1,638.877,844.742Z" transform="translate(-97.33 -106.074)" fill="#bae1fe"/>
      <path id="Trazado_18436" data-name="Trazado 18436" d="M638.877,868.7H478.867a2.173,2.173,0,0,1-2.167-2.167h0a2.173,2.173,0,0,1,2.167-2.167h160.01a2.173,2.173,0,0,1,2.167,2.167h0A2.173,2.173,0,0,1,638.877,868.7Z" transform="translate(-97.33 -114.266)" fill="#bae1fe"/>
      <path id="Trazado_18437" data-name="Trazado 18437" d="M615.827,811.677c-.14.01-.277.027-.413.049l-.03.032Z" transform="translate(-144.758 -96.249)" fill="#a9b2bd"/>
      <path id="Trazado_18438" data-name="Trazado 18438" d="M684.685,669.7H607.319v-22.5h77.366Zm-75.276-2.09H682.6V649.282H609.409Z" transform="translate(-142 -39.997)" fill="#278cd4"/>
      <rect id="Rectángulo_2140" data-name="Rectángulo 2140" width="1.966" height="73.511" transform="translate(426.615 652.655)" fill="#278cd4"/>
      <rect id="Rectángulo_2141" data-name="Rectángulo 2141" width="78.547" height="49.662" transform="translate(379.114 547.151)" fill="#67c1ff"/>
      <path id="Trazado_18439" data-name="Trazado 18439" d="M492.361,577.525h-6.826V572.8h19.3v4.728H498V597.66h-5.644Z" transform="translate(-100.351 -14.555)" fill="#fff"/>
      <path id="Trazado_18440" data-name="Trazado 18440" d="M521.422,572.8h6.75l7.779,24.863H530l-1.525-5.91h-7.589l-1.525,5.91h-5.719Zm.61,14.567h5.3l-.572-2.288c-.686-2.479-1.373-5.415-2.021-8.009h-.153c-.61,2.631-1.259,5.529-1.945,8.009Z" transform="translate(-109.964 -14.555)" fill="#fff"/>
      <path id="Trazado_18441" data-name="Trazado 18441" d="M554.39,584.885,547.906,572.8h6.254l2.173,4.69c.572,1.144,1.106,2.441,1.792,4h.153c.572-1.563,1.105-2.86,1.6-4l1.983-4.69h5.987l-6.445,12.355,6.864,12.508h-6.254l-2.479-5.072c-.61-1.3-1.182-2.555-1.869-4.08h-.153c-.572,1.525-1.144,2.783-1.677,4.08l-2.326,5.072h-6.025Z" transform="translate(-121.538 -14.555)" fill="#fff"/>
      <path id="Trazado_18442" data-name="Trazado 18442" d="M639.714,789.516H475.141V715H639.714Zm-162.521-2.052H637.662V717.05H477.193Z" transform="translate(-96.796 -63.186)" fill="#278cd4"/>
      <path id="Trazado_18443" data-name="Trazado 18443" d="M639.463,753.594H475.141V730.776H639.463Zm-162.27-2.052H637.41V732.829H477.193Z" transform="translate(-96.796 -68.582)" fill="#278cd4"/>
      <path id="Trazado_18444" data-name="Trazado 18444" d="M639.463,785.152H475.141V762.334H639.463ZM477.193,783.1H637.41V764.386H477.193Z" transform="translate(-96.796 -79.374)" fill="#278cd4"/>
      <path id="Trazado_18445" data-name="Trazado 18445" d="M639.463,816.709H475.141V793.892H639.463Zm-162.27-2.052H637.41V795.944H477.193Z" transform="translate(-96.796 -90.167)" fill="#278cd4"/>
      <rect id="Rectángulo_2142" data-name="Rectángulo 2142" width="23.909" height="2.849" transform="translate(391.181 671.388)" fill="#278cd4"/>
      <rect id="Rectángulo_2143" data-name="Rectángulo 2143" width="23.909" height="2.849" transform="translate(391.181 692.944)" fill="#278cd4"/>
      <rect id="Rectángulo_2144" data-name="Rectángulo 2144" width="23.909" height="2.849" transform="translate(391.181 714.5)" fill="#278cd4"/>
      <rect id="Rectángulo_2145" data-name="Rectángulo 2145" width="23.909" height="2.849" transform="translate(446.939 692.944)" fill="#278cd4"/>
      <rect id="Rectángulo_2146" data-name="Rectángulo 2146" width="23.909" height="2.849" transform="translate(446.939 714.5)" fill="#278cd4"/>
      <path id="Trazado_18446" data-name="Trazado 18446" d="M650.607,840.325a9.9,9.9,0,0,1,.414-5.383l34.059-98.028,13.562,4.712-34.059,98.028a10.9,10.9,0,0,1-1.767,3.227h3.2a14.1,14.1,0,0,0,1.072-2.357l34.494-99.281.436-1.252-18.572-6.452L648.516,834.073a12.44,12.44,0,0,0-.488,6.874,7.955,7.955,0,0,0,.738,1.935h3.6A3.705,3.705,0,0,1,650.607,840.325Z" transform="translate(-155.825 -69.527)" fill="#2b537f"/>
      <rect id="Rectángulo_2147" data-name="Rectángulo 2147" width="85.18" height="104.705" rx="9.413" transform="translate(278.093 527.551) rotate(30.35)" fill="#a9b2bd" opacity="0.6" style="mix-blend-mode: multiply;isolation: isolate"/>
      <path id="Trazado_18447" data-name="Trazado 18447" d="M309.281,646.619l-62.817-36.781a6.194,6.194,0,0,1-2.215-8.475L290.9,521.7a6.194,6.194,0,0,1,8.475-2.215l62.817,36.781a6.194,6.194,0,0,1,2.215,8.475L317.755,644.4A6.194,6.194,0,0,1,309.281,646.619Z" transform="translate(-17.544 3.968)" fill="#fff"/>
      <path id="Trazado_18448" data-name="Trazado 18448" d="M311.724,648.089a7.447,7.447,0,0,1-3.773-1.025h0l-62.817-36.782a7.5,7.5,0,0,1-2.679-10.251L289.1,520.366a7.491,7.491,0,0,1,10.251-2.679l62.817,36.781a7.5,7.5,0,0,1,2.68,10.251L318.2,644.384A7.5,7.5,0,0,1,311.724,648.089Zm-2.46-3.266a4.9,4.9,0,0,0,6.7-1.752l46.647-79.665a4.9,4.9,0,0,0-1.751-6.7L298.04,519.927a4.9,4.9,0,0,0-6.7,1.75L244.7,601.344a4.9,4.9,0,0,0,1.751,6.7l62.817,36.782Z" transform="translate(-16.87 4.645)" fill="#2b537f"/>
      <rect id="Rectángulo_2148" data-name="Rectángulo 2148" width="73.119" height="17.604" transform="matrix(0.863, 0.505, -0.505, 0.863, 278.193, 529.188)" fill="#67c1ff"/>
      <rect id="Rectángulo_2149" data-name="Rectángulo 2149" width="62.779" height="7.66" transform="matrix(0.863, 0.505, -0.505, 0.863, 280.688, 535.159)" fill="#fff"/>
      <rect id="Rectángulo_2150" data-name="Rectángulo 2150" width="14.561" height="11.142" transform="translate(267.422 547.584) rotate(30.35)" fill="#67c1ff"/>
      <rect id="Rectángulo_2151" data-name="Rectángulo 2151" width="14.561" height="11.142" transform="translate(284.266 557.447) rotate(30.35)" fill="#67c1ff"/>
      <rect id="Rectángulo_2152" data-name="Rectángulo 2152" width="14.561" height="11.142" transform="matrix(0.863, 0.505, -0.505, 0.863, 301.111, 567.31)" fill="#67c1ff"/>
      <rect id="Rectángulo_2153" data-name="Rectángulo 2153" width="14.561" height="11.142" transform="matrix(0.863, 0.505, -0.505, 0.863, 317.955, 577.173)" fill="#67c1ff"/>
      <rect id="Rectángulo_2154" data-name="Rectángulo 2154" width="14.561" height="11.142" transform="translate(259.915 560.404) rotate(30.351)" fill="#67c1ff"/>
      <rect id="Rectángulo_2155" data-name="Rectángulo 2155" width="14.561" height="11.142" transform="matrix(0.863, 0.505, -0.505, 0.863, 276.76, 570.267)" fill="#67c1ff"/>
      <rect id="Rectángulo_2156" data-name="Rectángulo 2156" width="14.561" height="11.142" transform="matrix(0.863, 0.505, -0.505, 0.863, 293.604, 580.13)" fill="#67c1ff"/>
      <rect id="Rectángulo_2157" data-name="Rectángulo 2157" width="14.561" height="11.142" transform="translate(310.449 589.993) rotate(30.351)" fill="#67c1ff"/>
      <rect id="Rectángulo_2158" data-name="Rectángulo 2158" width="14.561" height="11.142" transform="matrix(0.863, 0.505, -0.505, 0.863, 252.409, 573.224)" fill="#67c1ff"/>
      <rect id="Rectángulo_2159" data-name="Rectángulo 2159" width="14.561" height="11.142" transform="matrix(0.863, 0.505, -0.505, 0.863, 269.253, 583.087)" fill="#67c1ff"/>
      <rect id="Rectángulo_2160" data-name="Rectángulo 2160" width="14.561" height="11.142" transform="matrix(0.863, 0.505, -0.505, 0.863, 286.098, 592.95)" fill="#67c1ff"/>
      <rect id="Rectángulo_2161" data-name="Rectángulo 2161" width="14.561" height="11.142" transform="matrix(0.863, 0.505, -0.505, 0.863, 302.942, 602.813)" fill="#67c1ff"/>
      <rect id="Rectángulo_2162" data-name="Rectángulo 2162" width="14.561" height="11.142" transform="matrix(0.863, 0.505, -0.505, 0.863, 244.902, 586.044)" fill="#67c1ff"/>
      <rect id="Rectángulo_2163" data-name="Rectángulo 2163" width="14.561" height="11.142" transform="matrix(0.863, 0.505, -0.505, 0.863, 261.747, 595.907)" fill="#67c1ff"/>
      <rect id="Rectángulo_2164" data-name="Rectángulo 2164" width="14.561" height="11.142" transform="matrix(0.863, 0.505, -0.505, 0.863, 278.591, 605.77)" fill="#67c1ff"/>
      <rect id="Rectángulo_2165" data-name="Rectángulo 2165" width="14.561" height="11.142" transform="matrix(0.863, 0.505, -0.505, 0.863, 295.436, 615.633)" fill="#67c1ff"/>
      <rect id="Rectángulo_2166" data-name="Rectángulo 2166" width="14.561" height="11.142" transform="matrix(0.863, 0.505, -0.505, 0.863, 237.396, 598.864)" fill="#67c1ff"/>
      <rect id="Rectángulo_2167" data-name="Rectángulo 2167" width="14.561" height="11.142" transform="matrix(0.863, 0.505, -0.505, 0.863, 254.24, 608.727)" fill="#67c1ff"/>
      <rect id="Rectángulo_2168" data-name="Rectángulo 2168" width="14.561" height="11.142" transform="matrix(0.863, 0.505, -0.505, 0.863, 271.085, 618.59)" fill="#67c1ff"/>
      <rect id="Rectángulo_2169" data-name="Rectángulo 2169" width="14.561" height="11.142" transform="matrix(0.863, 0.505, -0.505, 0.863, 287.929, 628.453)" fill="#2b537f"/>
      <circle id="Elipse_571" data-name="Elipse 571" cx="17.021" cy="17.021" r="17.021" transform="matrix(0.815, -0.58, 0.58, 0.815, 206.075, 506.975)" fill="#288ed6"/>
      <circle id="Elipse_572" data-name="Elipse 572" cx="14.659" cy="14.659" r="14.659" transform="translate(210.125 517.474) rotate(-63.263)" fill="#ccf5ff"/>
      <path id="Trazado_18449" data-name="Trazado 18449" d="M246.7,503.666a16.111,16.111,0,0,1-5.849.557l-1.431-4.27a19.514,19.514,0,0,0,3.665.182,11.823,11.823,0,0,0,3.244-.522,3.854,3.854,0,0,0,1.513-.8.964.964,0,0,0,.213-1.051.946.946,0,0,0-.607-.6,6.013,6.013,0,0,0-1.446-.259q-.98-.087-2.61-.127a11.012,11.012,0,0,1-3.091-.474,4.99,4.99,0,0,1-2.024-1.2,5.55,5.55,0,0,1-1.234-2.169,4.411,4.411,0,0,1,.252-3.774,7.624,7.624,0,0,1,3.594-2.849l-.59-1.762,2.662-.892.582,1.736a15.921,15.921,0,0,1,5.579-.467l-.3,4.178a12.65,12.65,0,0,0-5.254.416,3.166,3.166,0,0,0-1.363.735.857.857,0,0,0-.17.88.958.958,0,0,0,.538.6,4.46,4.46,0,0,0,1.255.266q.86.091,2.335.1a10.559,10.559,0,0,1,4.584.875,4.564,4.564,0,0,1,2.22,2.739,4.973,4.973,0,0,1-.193,3.97,7.035,7.035,0,0,1-3.434,3.009l.832,2.483-2.662.892Z" transform="translate(-15.267 15.927)" fill="#288ed6"/>
      <circle id="Elipse_573" data-name="Elipse 573" cx="17.021" cy="17.021" r="17.021" transform="translate(167.059 604.63) rotate(-71.192)" fill="#288ed6"/>
      <circle id="Elipse_574" data-name="Elipse 574" cx="14.659" cy="14.659" r="14.659" transform="matrix(0.863, -0.506, 0.506, 0.863, 168.597, 588.778)" fill="#ccf5ff"/>
      <path id="Trazado_18450" data-name="Trazado 18450" d="M184.158,629.844a16.111,16.111,0,0,1-5.849.557l-1.431-4.269a19.57,19.57,0,0,0,3.665.181,11.822,11.822,0,0,0,3.244-.521,3.863,3.863,0,0,0,1.513-.8.965.965,0,0,0,.213-1.052.946.946,0,0,0-.607-.6,6.007,6.007,0,0,0-1.446-.259q-.98-.086-2.61-.127a11.014,11.014,0,0,1-3.091-.474,4.99,4.99,0,0,1-2.024-1.2,5.552,5.552,0,0,1-1.234-2.168,4.413,4.413,0,0,1,.252-3.775,7.628,7.628,0,0,1,3.594-2.849l-.59-1.762,2.662-.892.582,1.736a15.936,15.936,0,0,1,5.579-.467l-.3,4.178a12.641,12.641,0,0,0-5.254.415,3.167,3.167,0,0,0-1.363.735.857.857,0,0,0-.17.88.956.956,0,0,0,.538.6,4.464,4.464,0,0,0,1.255.266q.86.091,2.335.1a10.552,10.552,0,0,1,4.584.874,4.564,4.564,0,0,1,2.219,2.739,4.973,4.973,0,0,1-.193,3.97,7.033,7.033,0,0,1-3.434,3.01l.832,2.482-2.662.892Z" transform="translate(6.122 -27.224)" fill="#288ed6"/>
      <circle id="Elipse_576" data-name="Elipse 576" cx="14.659" cy="14.659" r="14.659" transform="translate(111.586 606.456)" fill="#ccf5ff"/>
      <path id="Trazado_18451" data-name="Trazado 18451" d="M84.706,670.627a16.112,16.112,0,0,1-5.317-2.5l.944-4.4a19.506,19.506,0,0,0,3.061,2.023,11.856,11.856,0,0,0,3.058,1.2,3.843,3.843,0,0,0,1.709.081.963.963,0,0,0,.719-.8.946.946,0,0,0-.218-.824,6.008,6.008,0,0,0-1.112-.96q-.8-.573-2.181-1.438a11.022,11.022,0,0,1-2.419-1.982,4.994,4.994,0,0,1-1.132-2.06,5.547,5.547,0,0,1,.043-2.495A4.411,4.411,0,0,1,84,653.358a7.629,7.629,0,0,1,4.544-.62l.39-1.817,2.745.588-.384,1.791a15.913,15.913,0,0,1,5.039,2.44l-2.389,3.441a12.654,12.654,0,0,0-4.732-2.319,3.168,3.168,0,0,0-1.548-.061.853.853,0,0,0-.594.67.957.957,0,0,0,.157.79,4.46,4.46,0,0,0,.944.869q.694.516,1.96,1.273a10.572,10.572,0,0,1,3.5,3.087,4.566,4.566,0,0,1,.514,3.488,4.97,4.97,0,0,1-2.189,3.318,7.033,7.033,0,0,1-4.488.841l-.549,2.56-2.745-.589Z" transform="translate(38.546 -41.272)" fill="#288ed6"/>
      <g id="Grupo_8783" data-name="Grupo 8783" transform="translate(488.547 647.454)" opacity="0.6" style="mix-blend-mode: multiply;isolation: isolate">
        <path id="Trazado_18464" data-name="Trazado 18464" d="M644.849,829.831l5.4,1.861a12.069,12.069,0,0,0-.048,2.775h19.6l34.17-98.347.436-1.252s-1.349-26.293-1.423-26.382a.38.38,0,0,0-.124-.11c-.049-.016-17.026,20.04-17.026,20.04l-32.668,94.028-2.029-.7,16.3-47.281a3.307,3.307,0,0,0-6.254-2.155L642.8,825.626A3.317,3.317,0,0,0,644.849,829.831Z" transform="translate(-642.619 -708.375)" fill="#a9b2bd"/>
      </g>
      <path id="Trazado_18474" data-name="Trazado 18474" d="M394.417,890.367h.672l-3.19-15.51c-.076-.368.125-.752.336-.8l7.531-1.563a.36.36,0,0,1,.263.063.79.79,0,0,1,.315.49l3.561,17.317h.672l-3.589-17.451a1.445,1.445,0,0,0-.6-.907,1,1,0,0,0-.758-.156l-7.531,1.563a1.317,1.317,0,0,0-.845,1.573Z" transform="translate(-68.098 -116.821)" fill="#2b537f"/>
      <path id="Trazado_18475" data-name="Trazado 18475" d="M373.488,882.6h.672l-6.206-30.073a1.125,1.125,0,0,1,.628-1.33l6.758-1.4a.714.714,0,0,1,.537.119,1.279,1.279,0,0,1,.522.805l6.577,31.879h.672l-6.6-32.012a1.926,1.926,0,0,0-.806-1.223,1.356,1.356,0,0,0-1.032-.211l-6.758,1.4a1.757,1.757,0,0,0-1.138,2.107Z" transform="translate(-59.905 -109.056)" fill="#2b537f"/>
      <path id="Trazado_18476" data-name="Trazado 18476" d="M355.725,891.118h.672l-2.872-13.974c-.082-.4.124-.865.407-.926l7.343-1.524a.446.446,0,0,1,.33.076.911.911,0,0,1,.365.567l3.243,15.781h.672l-3.27-15.914a1.575,1.575,0,0,0-.65-.985,1.1,1.1,0,0,0-.824-.169l-7.343,1.525a1.418,1.418,0,0,0-.916,1.7Z" transform="translate(-54.974 -117.572)" fill="#2b537f"/>
      <path id="Trazado_18477" data-name="Trazado 18477" d="M336.884,886.313l-4.735-22.972a1.077,1.077,0,0,1,.6-1.275l6.839-1.417a.672.672,0,0,1,.508.112,1.223,1.223,0,0,1,.5.772l5.106,24.779h.673L341.238,861.4a1.874,1.874,0,0,0-.784-1.19,1.317,1.317,0,0,0-1-.205l-6.839,1.417a1.71,1.71,0,0,0-1.108,2.051l4.708,22.839Z" transform="translate(-47.661 -112.767)" fill="#2b537f"/>
      <g id="Grupo_8784" data-name="Grupo 8784" transform="translate(366.408 530.739)">
        <path id="Trazado_18478" data-name="Trazado 18478" d="M647.166,773.807V535.526A4.438,4.438,0,0,0,642.913,531H461.357A4.526,4.526,0,0,0,457,535.526V773.807ZM459.632,535.526c0-.855.87-1.236,1.725-1.236H642.913c.855,0,1.621.382,1.621,1.236V773.755h-184.9Z" transform="translate(-457 -531)" fill="#2b537f"/>
      </g>
      <g id="Grupo_8785" data-name="Grupo 8785" transform="translate(486.637 756.264)">
        <rect id="Rectángulo_2217" data-name="Rectángulo 2217" width="6.472" height="9.693" transform="translate(3.158 0) rotate(19.016)" fill="#2b537f"/>
      </g>
      <path id="Trazado_18479" data-name="Trazado 18479" d="M666.524,840.966l34.494-99.28L684.952,736.1l-34.494,99.28c-1.134,3.262-.832,6.525.561,8.374h14.128A12.492,12.492,0,0,0,666.524,840.966Z" transform="translate(-156.515 -70.404)" fill="#cdd0da"/>
      <path id="Trazado_18480" data-name="Trazado 18480" d="M650.929,835.018l34.133-98.242,13.991,4.86-34.134,98.243a11.234,11.234,0,0,1-1.685,3.153h2.636A13.6,13.6,0,0,0,667,840.6L702.14,740.142l-18.432-6.164L648.853,834.3a10.946,10.946,0,0,0,.308,8.734h2.856C650.272,841.847,649.751,838.411,650.929,835.018Z" transform="translate(-155.948 -69.677)" fill="#2b537f"/>
      <g id="Grupo_8787" data-name="Grupo 8787" transform="translate(527.619 643.973)">
        <g id="Grupo_8786" data-name="Grupo 8786">
          <path id="Trazado_18481" data-name="Trazado 18481" d="M719.147,703.194a.371.371,0,0,0-.124-.11c-.048-.017-17.025,20.04-17.025,20.04l18.572,6.452S719.221,703.283,719.147,703.194Z" transform="translate(-701.998 -703.084)" fill="#2b537f"/>
        </g>
      </g>
      <g id="Grupo_8788" data-name="Grupo 8788" transform="translate(484.408 705.676)">
        <path id="Trazado_18482" data-name="Trazado 18482" d="M638.557,856.608h0a3.317,3.317,0,0,1-2.049-4.2l18.376-53.319a3.317,3.317,0,0,1,4.2-2.049h0a3.318,3.318,0,0,1,2.05,4.2l-18.376,53.319A3.317,3.317,0,0,1,638.557,856.608Z" transform="translate(-636.328 -796.856)" fill="#2b537f"/>
      </g>
      <path id="Trazado_18483" data-name="Trazado 18483" d="M724.3,706.207l-4.964,6.207,5.119,1.648Z" transform="translate(-180.308 -60.18)" fill="#cdd0da"/>
    </g>
  </g>
</svg>
