<svg xmlns="http://www.w3.org/2000/svg" width="118" height="118" viewBox="0 0 118 118">
  <g id="Grupo_9239" data-name="Grupo 9239" transform="translate(-396 -1628)">
    <g id="Elipse_554" data-name="Elipse 554" transform="translate(396 1628)" fill="#f0f0f0" stroke="#5f3bbf" stroke-width="2">
      <circle cx="59" cy="59" r="59" stroke="none"/>
      <circle cx="59" cy="59" r="58" fill="none"/>
    </g>
    <g id="Grupo_8880" data-name="Grupo 8880" transform="translate(2 1432)">
      <g id="Grupo_8849" data-name="Grupo 8849" transform="translate(431.516 233.565)">
        <path id="Trazado_18549" data-name="Trazado 18549" d="M443.516,234.839V230H429v24.194h29.032V234.839Z" transform="translate(-429 -230)" fill="#3bdcf0"/>
      </g>
      <g id="Grupo_8850" data-name="Grupo 8850" transform="translate(417 263.806)">
        <path id="Trazado_18550" data-name="Trazado 18550" d="M447.527,267.1H423.048a6.048,6.048,0,1,1,0-12.1h24.479l6.433,3.215a3.169,3.169,0,0,1,0,5.666Zm-24.479-9.677a3.629,3.629,0,0,0,0,7.258h23.908l5.92-2.96a.747.747,0,0,0,0-1.338l-5.919-2.96Z" transform="translate(-417 -255)" fill="#5f3bbf"/>
      </g>
      <g id="Grupo_8851" data-name="Grupo 8851" transform="translate(424.258 265.016)">
        <rect id="Rectángulo_2240" data-name="Rectángulo 2240" width="3" height="10" transform="translate(-0.258 -0.016)" fill="#5f3bbf"/>
      </g>
      <g id="Grupo_8852" data-name="Grupo 8852" transform="translate(429.097 265.016)">
        <rect id="Rectángulo_2241" data-name="Rectángulo 2241" width="3" height="10" transform="translate(-0.097 -0.016)" fill="#5f3bbf"/>
      </g>
      <g id="Grupo_8853" data-name="Grupo 8853" transform="translate(430.306 268.645)">
        <rect id="Rectángulo_2242" data-name="Rectángulo 2242" width="17" height="2" transform="translate(-0.307 0.355)" fill="#5f3bbf"/>
      </g>
      <g id="Grupo_8854" data-name="Grupo 8854" transform="translate(446.032 265.016)">
        <rect id="Rectángulo_2243" data-name="Rectángulo 2243" width="2" height="10" transform="translate(-0.032 -0.016)" fill="#5f3bbf"/>
      </g>
      <g id="Grupo_8855" data-name="Grupo 8855" transform="translate(436.355 213)">
        <path id="Trazado_18551" data-name="Trazado 18551" d="M459.613,229.935H433v-12.1h7.38a6.048,6.048,0,0,1,11.852,0h7.38Zm-24.194-2.419h21.774v-7.258h-7.258v-1.21a3.629,3.629,0,1,0-7.258,0v1.21h-7.258Z" transform="translate(-433 -213)" fill="#5f3bbf"/>
      </g>
      <g id="Grupo_8856" data-name="Grupo 8856" transform="translate(441.194 222.677)">
        <rect id="Rectángulo_2244" data-name="Rectángulo 2244" width="3" height="2" transform="translate(-0.193 0.323)"/>
      </g>
      <g id="Grupo_8857" data-name="Grupo 8857" transform="translate(455.71 222.677)">
        <rect id="Rectángulo_2245" data-name="Rectángulo 2245" width="2" height="2" transform="translate(0.291 0.323)"/>
      </g>
      <g id="Grupo_8858" data-name="Grupo 8858" transform="translate(461.758 225.097)">
        <path id="Trazado_18552" data-name="Trazado 18552" d="M464.887,231.266h-2.419v-5.846H454V223h10.887Z" transform="translate(-454 -223)" fill="#5f3bbf"/>
      </g>
      <g id="Grupo_8859" data-name="Grupo 8859" transform="translate(426.677 274.694)">
        <path id="Trazado_18553" data-name="Trazado 18553" d="M470.968,272.468H425V264h2.419v6.048h41.129V265.21h2.419Z" transform="translate(-425 -264)" fill="#5f3bbf"/>
      </g>
      <g id="Grupo_8860" data-name="Grupo 8860" transform="translate(426.677 225.097)">
        <path id="Trazado_18554" data-name="Trazado 18554" d="M427.419,262.919H425V223h10.887v2.419h-8.468Z" transform="translate(-425 -223)" fill="#5f3bbf"/>
      </g>
      <g id="Grupo_8861" data-name="Grupo 8861" transform="translate(421.839 220.258)">
        <path id="Trazado_18555" data-name="Trazado 18555" d="M423.419,263.758H421v-38.71A6.055,6.055,0,0,1,427.048,219h9.677v2.419h-9.677a3.633,3.633,0,0,0-3.629,3.629Z" transform="translate(-421 -219)" fill="#5f3bbf"/>
      </g>
      <g id="Grupo_8862" data-name="Grupo 8862" transform="translate(421.839 274.694)">
        <path id="Trazado_18556" data-name="Trazado 18556" d="M470.6,277.306H427.048A6.055,6.055,0,0,1,421,271.258V264h2.419v7.258a3.633,3.633,0,0,0,3.629,3.629H470.6a3.633,3.633,0,0,0,3.629-3.629V265.21h2.419v6.048A6.055,6.055,0,0,1,470.6,277.306Z" transform="translate(-421 -264)" fill="#5f3bbf"/>
      </g>
      <g id="Grupo_8863" data-name="Grupo 8863" transform="translate(461.758 220.258)">
        <path id="Trazado_18557" data-name="Trazado 18557" d="M469.726,231.1h-2.419v-6.048a3.633,3.633,0,0,0-3.629-3.629H454V219h9.677a6.055,6.055,0,0,1,6.048,6.048Z" transform="translate(-454 -219)" fill="#5f3bbf"/>
      </g>
      <g id="Grupo_8865" data-name="Grupo 8865" transform="translate(462.968 231.145)">
        <g id="Grupo_8864" data-name="Grupo 8864">
          <path id="Trazado_18558" data-name="Trazado 18558" d="M468.306,254.613a13.306,13.306,0,1,1,13.306-13.306A13.322,13.322,0,0,1,468.306,254.613Z" transform="translate(-455 -228)" fill="#3bdcf0"/>
        </g>
      </g>
      <g id="Grupo_8866" data-name="Grupo 8866" transform="translate(472.645 238.403)">
        <path id="Trazado_18559" data-name="Trazado 18559" d="M466.629,246.1A3.633,3.633,0,0,1,463,242.468h2.419a1.21,1.21,0,1,0,1.21-1.21,3.629,3.629,0,1,1,3.629-3.629h-2.419a1.21,1.21,0,1,0-1.21,1.21,3.629,3.629,0,0,1,0,7.258Z" transform="translate(-463 -234)"/>
      </g>
      <g id="Grupo_8867" data-name="Grupo 8867" transform="translate(475.065 235.984)">
        <rect id="Rectángulo_2246" data-name="Rectángulo 2246" width="2" height="4" transform="translate(-0.064 0.016)"/>
      </g>
      <g id="Grupo_8868" data-name="Grupo 8868" transform="translate(475.065 249.29)">
        <rect id="Rectángulo_2247" data-name="Rectángulo 2247" width="2" height="4" transform="translate(-0.064 -0.29)"/>
      </g>
      <g id="Grupo_8869" data-name="Grupo 8869" transform="translate(458.129 255.339)">
        <path id="Trazado_18560" data-name="Trazado 18560" d="M484.871,266.145H451v-2.419h31.452V248h2.419Z" transform="translate(-451 -248)" fill="#5f3bbf"/>
      </g>
      <g id="Grupo_8870" data-name="Grupo 8870" transform="translate(467.806 263.806)">
        <rect id="Rectángulo_2248" data-name="Rectángulo 2248" width="2" height="8" transform="translate(0.193 0.194)" fill="#5f3bbf"/>
      </g>
      <g id="Grupo_8871" data-name="Grupo 8871" transform="translate(475.065 261.387)">
        <rect id="Rectángulo_2249" data-name="Rectángulo 2249" width="2" height="11" transform="translate(-0.064 -0.387)" fill="#5f3bbf"/>
      </g>
      <g id="Grupo_8872" data-name="Grupo 8872" transform="translate(482.323 258.968)">
        <rect id="Rectángulo_2250" data-name="Rectángulo 2250" width="3" height="13" transform="translate(-0.323 0.032)" fill="#5f3bbf"/>
      </g>
      <g id="Grupo_8875" data-name="Grupo 8875" transform="translate(431.516 242.032)">
        <rect id="Rectángulo_2253" data-name="Rectángulo 2253" width="29" height="2" transform="translate(0.484 -0.032)" fill="#5f3bbf"/>
      </g>
      <g id="Grupo_8876" data-name="Grupo 8876" transform="translate(431.516 246.871)">
        <rect id="Rectángulo_2254" data-name="Rectángulo 2254" width="29" height="2" transform="translate(0.484 0.129)" fill="#5f3bbf"/>
      </g>
      <g id="Grupo_8877" data-name="Grupo 8877" transform="translate(431.516 251.71)">
        <rect id="Rectángulo_2255" data-name="Rectángulo 2255" width="29" height="2" transform="translate(0.484 0.29)" fill="#5f3bbf"/>
      </g>
      <g id="Grupo_8878" data-name="Grupo 8878" transform="translate(431.516 256.548)">
        <rect id="Rectángulo_2256" data-name="Rectángulo 2256" width="29" height="2" transform="translate(0.484 0.452)" fill="#5f3bbf"/>
      </g>
      <g id="Grupo_8879" data-name="Grupo 8879" transform="translate(460.548 266.226)">
        <rect id="Rectángulo_2257" data-name="Rectángulo 2257" width="2" height="6" transform="translate(0.452 -0.226)" fill="#5f3bbf"/>
      </g>
    </g>
  </g>
</svg>
