<svg xmlns="http://www.w3.org/2000/svg" width="118" height="118" viewBox="0 0 118 118">
  <g id="Grupo_9240" data-name="Grupo 9240" transform="translate(-396 -1496)">
    <g id="Elipse_554" data-name="Elipse 554" transform="translate(396 1496)" fill="#f0f0f0" stroke="#5f3bbf" stroke-width="2">
      <circle cx="59" cy="59" r="59" stroke="none"/>
      <circle cx="59" cy="59" r="58" fill="none"/>
    </g>
    <g id="Grupo_8848" data-name="Grupo 8848" transform="translate(96 1396)">
      <g id="Grupo_8827" data-name="Grupo 8827" transform="translate(321 181.581)">
        <path id="Trazado_18537" data-name="Trazado 18537" d="M391.79,181.419H327.21a6.217,6.217,0,0,1-6.21-6.21V169h77v6.21A6.217,6.217,0,0,1,391.79,181.419Zm-68.306-9.935v3.726a3.73,3.73,0,0,0,3.726,3.726H391.79a3.73,3.73,0,0,0,3.726-3.726v-3.726Z" transform="translate(-321 -169)" fill="#5f3bbf"/>
      </g>
      <g id="Grupo_8828" data-name="Grupo 8828" transform="translate(345.839 182.823)">
        <path id="Trazado_18538" data-name="Trazado 18538" d="M364.6,176.21H344.726A3.73,3.73,0,0,1,341,172.484V170h2.484v2.484a1.242,1.242,0,0,0,1.242,1.242H364.6a1.242,1.242,0,0,0,1.242-1.242V170h2.484v2.484A3.73,3.73,0,0,1,364.6,176.21Z" transform="translate(-341 -170)" fill="#5f3bbf"/>
      </g>
      <g id="Grupo_8829" data-name="Grupo 8829" transform="translate(328.452 186.548)">
        <rect id="Rectángulo_2231" data-name="Rectángulo 2231" width="3" height="2" transform="translate(-0.452 0.452)" fill="#5f3bbf"/>
      </g>
      <g id="Grupo_8830" data-name="Grupo 8830" transform="translate(333.419 186.548)">
        <rect id="Rectángulo_2232" data-name="Rectángulo 2232" width="3" height="2" transform="translate(-0.419 0.452)" fill="#5f3bbf"/>
      </g>
      <g id="Grupo_8831" data-name="Grupo 8831" transform="translate(338.387 186.548)">
        <rect id="Rectángulo_2233" data-name="Rectángulo 2233" width="3" height="2" transform="translate(-0.387 0.452)" fill="#5f3bbf"/>
      </g>
      <g id="Grupo_8832" data-name="Grupo 8832" transform="translate(393.032 143.081)">
        <rect id="Rectángulo_2234" data-name="Rectángulo 2234" width="3" height="40" transform="translate(-0.032 -0.081)" fill="#5f3bbf"/>
      </g>
      <g id="Grupo_8833" data-name="Grupo 8833" transform="translate(323.484 131.903)">
        <path id="Trazado_18539" data-name="Trazado 18539" d="M325.484,179.919H323V135.21a6.217,6.217,0,0,1,6.21-6.21h34.774v2.484H329.21a3.73,3.73,0,0,0-3.726,3.726Z" transform="translate(-323 -129)" fill="#5f3bbf"/>
      </g>
      <g id="Grupo_8834" data-name="Grupo 8834" transform="translate(388.065 143.081)">
        <rect id="Rectángulo_2235" data-name="Rectángulo 2235" width="3" height="40" transform="translate(-0.064 -0.081)" fill="#5f3bbf"/>
      </g>
      <g id="Grupo_8835" data-name="Grupo 8835" transform="translate(328.452 136.871)">
        <path id="Trazado_18540" data-name="Trazado 18540" d="M329.484,178.952H327V135.484A2.487,2.487,0,0,1,329.484,133h33.532v2.484H329.484Z" transform="translate(-327 -133)" fill="#5f3bbf"/>
      </g>
      <g id="Grupo_8836" data-name="Grupo 8836" transform="translate(363.226 117)">
        <path id="Trazado_18541" data-name="Trazado 18541" d="M367.419,153.232v-8.91h-8.694A3.73,3.73,0,0,1,355,140.6V120.726A3.73,3.73,0,0,1,358.726,117h27.323a3.73,3.73,0,0,1,3.726,3.726V140.6a3.73,3.73,0,0,1-3.726,3.726h-8.234Z" transform="translate(-355 -117)" fill="#3bdcf0"/>
      </g>
      <g id="Grupo_8837" data-name="Grupo 8837" transform="translate(376.887 124.452)">
        <path id="Trazado_18542" data-name="Trazado 18542" d="M369.726,135.419A3.73,3.73,0,0,1,366,131.694h2.484a1.242,1.242,0,1,0,1.242-1.242,3.726,3.726,0,1,1,3.726-3.726h-2.484a1.242,1.242,0,1,0-1.242,1.242,3.726,3.726,0,0,1,0,7.452Z" transform="translate(-366 -123)"/>
      </g>
      <g id="Grupo_8838" data-name="Grupo 8838" transform="translate(379.371 121.968)">
        <rect id="Rectángulo_2236" data-name="Rectángulo 2236" width="3" height="4" transform="translate(-0.371 0.032)"/>
      </g>
      <g id="Grupo_8839" data-name="Grupo 8839" transform="translate(379.371 135.629)">
        <rect id="Rectángulo_2237" data-name="Rectángulo 2237" width="3" height="3" transform="translate(-0.371 0.371)"/>
      </g>
      <g id="Grupo_8840" data-name="Grupo 8840" transform="translate(354.095 169.241)">
        <path id="Trazado_18543" data-name="Trazado 18543" d="M359.263,172.646h-2.484V167.4a3.741,3.741,0,0,0-2.418-3.49l-6.713-2.517.874-2.325,6.711,2.516a6.241,6.241,0,0,1,4.029,5.816Z" transform="translate(-347.648 -159.064)" fill="#5f3bbf"/>
      </g>
      <g id="Grupo_8841" data-name="Grupo 8841" transform="translate(335.903 169.241)">
        <path id="Trazado_18544" data-name="Trazado 18544" d="M335.484,172.646H333V167.4a6.241,6.241,0,0,1,4.029-5.816l6.711-2.516.874,2.325-6.713,2.517a3.741,3.741,0,0,0-2.418,3.49Z" transform="translate(-333 -159.064)" fill="#5f3bbf"/>
      </g>
      <g id="Grupo_8842" data-name="Grupo 8842" transform="translate(345.839 167.919)">
        <path id="Trazado_18545" data-name="Trazado 18545" d="M345.968,165.452A4.973,4.973,0,0,1,341,160.484V158h2.484v2.484a2.484,2.484,0,0,0,4.968,0V158h2.484v2.484A4.973,4.973,0,0,1,345.968,165.452Z" transform="translate(-341 -158)" fill="#5f3bbf"/>
      </g>
      <g id="Grupo_8843" data-name="Grupo 8843" transform="translate(343.355 156.742)">
        <path id="Trazado_18546" data-name="Trazado 18546" d="M346.452,162.661A7.459,7.459,0,0,1,339,155.21V149h2.484v6.21a4.968,4.968,0,1,0,9.935,0V149H353.9v6.21A7.459,7.459,0,0,1,346.452,162.661Z" transform="translate(-339 -149)" fill="#5f3bbf"/>
      </g>
      <g id="Grupo_8844" data-name="Grupo 8844" transform="translate(339.629 144.323)">
        <path id="Trazado_18547" data-name="Trazado 18547" d="M347.177,139A11.189,11.189,0,0,0,336,150.177v4.968h1.242a3.726,3.726,0,0,1,3.726-3.726,12.307,12.307,0,0,0,6.826-2.067l.626-.417.728.728a6,6,0,0,0,4.24,1.756,3.726,3.726,0,0,1,3.726,3.726h1.242v-4.968A11.189,11.189,0,0,0,347.177,139Z" transform="translate(-336 -139)" fill="#3bdcf0"/>
      </g>
      <g id="Grupo_8845" data-name="Grupo 8845" transform="translate(339.629 152.66)">
        <path id="Trazado_18548" data-name="Trazado 18548" d="M353.387,158.489V156a2.484,2.484,0,0,0,0-4.968,7.288,7.288,0,0,1-5.118-2.12l-.01-.01a13.5,13.5,0,0,1-7.291,2.13,2.484,2.484,0,0,0,0,4.968v2.484a4.968,4.968,0,0,1,0-9.935A11.036,11.036,0,0,0,347.1,146.7l1.473-.982,1.448,1.448a4.785,4.785,0,0,0,3.362,1.392,4.968,4.968,0,0,1,0,9.935Z" transform="translate(-336 -145.713)" fill="#5f3bbf"/>
      </g>
      <g id="Grupo_8846" data-name="Grupo 8846" transform="translate(358.258 176.613)">
        <rect id="Rectángulo_2238" data-name="Rectángulo 2238" width="3" height="6" transform="translate(-0.258 0.387)" fill="#5f3bbf"/>
      </g>
      <g id="Grupo_8847" data-name="Grupo 8847" transform="translate(340.871 176.613)">
        <rect id="Rectángulo_2239" data-name="Rectángulo 2239" width="2" height="6" transform="translate(0.129 0.387)" fill="#5f3bbf"/>
      </g>
    </g>
  </g>
</svg>
