<svg xmlns="http://www.w3.org/2000/svg" xmlns:xlink="http://www.w3.org/1999/xlink" width="491.221" height="294.001" viewBox="0 0 491.221 294.001">
  <defs>
    <linearGradient id="linear-gradient" x1="0.5" y1="0.954" x2="0.5" y2="0.196" gradientUnits="objectBoundingBox">
      <stop offset="0" stop-color="#fff"/>
      <stop offset="0.97" stop-color="#a793de"/>
      <stop offset="1" stop-color="#a793de"/>
    </linearGradient>
    <linearGradient id="linear-gradient-2" x1="0.5" y1="1.041" x2="0.5" y2="0.283" gradientUnits="objectBoundingBox">
      <stop offset="0" stop-color="#fff"/>
      <stop offset="0.704" stop-color="#a793de"/>
      <stop offset="1" stop-color="#a793de"/>
    </linearGradient>
  </defs>
  <g id="Grupo_8921" data-name="Grupo 8921" transform="translate(-674.099 -267.85)">
    <path id="Trazado_18569" data-name="Trazado 18569" d="M1010.393,407.293a92.882,92.882,0,1,1-92.88-92.879A92.881,92.881,0,0,1,1010.393,407.293Z" fill="#f1f7f8" opacity="0.85"/>
    <rect id="Rectángulo_2270" data-name="Rectángulo 2270" width="119.092" height="172.181" transform="translate(919.316 309.311)" opacity="0.25" fill="url(#linear-gradient)"/>
    <rect id="Rectángulo_2271" data-name="Rectángulo 2271" width="97.092" height="101.686" transform="translate(1042.317 337.31)" opacity="0.15" fill="url(#linear-gradient-2)"/>
    <g id="Grupo_8905" data-name="Grupo 8905">
      <g id="Grupo_8904" data-name="Grupo 8904">
        <path id="Trazado_18570" data-name="Trazado 18570" d="M1058.939,546.949a34.822,34.822,0,1,1,34.819-34.823A34.864,34.864,0,0,1,1058.939,546.949Zm0-66.662a31.839,31.839,0,1,0,31.836,31.839A31.876,31.876,0,0,0,1058.939,480.287Z" fill="#5f3bbf"/>
      </g>
      <path id="Trazado_18571" data-name="Trazado 18571" d="M1056.916,521.279l-15.293-12.373a1.491,1.491,0,1,1,1.875-2.319l12.945,10.473L1073.76,495.1a1.491,1.491,0,0,1,2.342,1.847Z" fill="#5f3bbf"/>
      <path id="Trazado_18572" data-name="Trazado 18572" d="M1061.59,468.122h-8.951a1.5,1.5,0,0,1,0-3h8.951a1.5,1.5,0,0,1,0,3Z" fill="#5f3bbf"/>
    </g>
    <g id="Grupo_8906" data-name="Grupo 8906">
      <path id="Trazado_18573" data-name="Trazado 18573" d="M995.09,279.932a.839.839,0,1,1,0-1.678l13.642-.02h0a.839.839,0,0,1,0,1.679l-13.64.019Z" fill="#243640"/>
      <path id="Trazado_18574" data-name="Trazado 18574" d="M1001.918,286.742a.838.838,0,0,1-.838-.839l-.016-13.64a.84.84,0,0,1,.838-.84h0a.839.839,0,0,1,.838.839l.016,13.64a.84.84,0,0,1-.838.84Z" fill="#243640"/>
    </g>
    <path id="Trazado_18575" data-name="Trazado 18575" d="M942.249,460.122H919.873a1.5,1.5,0,0,1,0-3h22.376a1.5,1.5,0,0,1,0,3Z" fill="#243640"/>
    <g id="Grupo_8907" data-name="Grupo 8907">
      <path id="Trazado_18576" data-name="Trazado 18576" d="M926.822,502.8a1.5,1.5,0,0,1-1.5-1.491V497c0-4.679-.68-5.874-3.684-5.874H913.16c-.824,0-1.492-.176-1.492-1s.668-1,1.492-1h8.477c6.44,0,6.684,4.146,6.684,7.874v4.314A1.5,1.5,0,0,1,926.822,502.8Z" fill="#243640"/>
      <path id="Trazado_18577" data-name="Trazado 18577" d="M938.519,534.122h-5.645c-5.527,0-7.553-2.1-7.553-7.272V501.31a1.5,1.5,0,0,1,3,0v25.54c0,3.532.607,4.272,4.553,4.272h5.645a1.5,1.5,0,0,1,0,3Z" fill="#243640"/>
    </g>
    <path id="Trazado_18578" data-name="Trazado 18578" d="M927.822,399.87a1.5,1.5,0,0,1-1.5-1.492v-7.03c0-6.614.657-9.226,7.712-9.226h13.438a1.5,1.5,0,0,1,0,3H934.033c-4.888,0-4.712.634-4.712,6.226v7.03A1.5,1.5,0,0,1,927.822,399.87Z" fill="#243640"/>
    <path id="Trazado_18579" data-name="Trazado 18579" d="M919.049,441.122H913.16a1.5,1.5,0,0,1,0-3h5.889c5.267,0,7.272-1.728,7.272-6.967V398.378a1.5,1.5,0,0,1,3,0v32.777C929.321,437.981,925.9,441.122,919.049,441.122Z" fill="#243640"/>
    <path id="Trazado_18580" data-name="Trazado 18580" d="M836.693,373.749l-9.641-9.64,9.641-9.64,9.641,9.64Zm-6.477-9.64,6.477,6.476,6.477-6.476-6.477-6.475Z" fill="#243640"/>
    <g id="Grupo_8908" data-name="Grupo 8908">
      <path id="Trazado_18581" data-name="Trazado 18581" d="M739.359,546.2a1.49,1.49,0,0,1-.956-2.636l17.266-14.406a4.731,4.731,0,0,0,.479-6.653L715.071,474.8a4.729,4.729,0,0,0-6.669-.5l-16.779,15.913,42.028,47.365a1.492,1.492,0,1,1-2.232,1.981l-42.986-48.445a1.492,1.492,0,0,1,.09-2.073L706.4,472.086a7.707,7.707,0,0,1,10.93.764l41.078,47.707a7.724,7.724,0,0,1-.811,10.877l-17.284,14.419A1.485,1.485,0,0,1,739.359,546.2Z" fill="#243640"/>
    </g>
    <path id="Trazado_18582" data-name="Trazado 18582" d="M745.4,522.088a4.143,4.143,0,1,1-5.842-.44A4.141,4.141,0,0,1,745.4,522.088Z" fill="#243640"/>
    <g id="Grupo_8910" data-name="Grupo 8910">
      <path id="Trazado_18583" data-name="Trazado 18583" d="M1099.82,352.134a1.5,1.5,0,0,1-1.5-1.492V312.6a1.5,1.5,0,0,1,3,0v38.04A1.5,1.5,0,0,1,1099.82,352.134Z" fill="#03abf2"/>
      <g id="Grupo_8909" data-name="Grupo 8909">
        <path id="Trazado_18584" data-name="Trazado 18584" d="M1093.223,317.347l1.094,1.018,5.006-5.388,5.01,5.388,1.092-1.018-6.1-6.561Z" fill="#03abf2"/>
      </g>
    </g>
    <g id="Grupo_8912" data-name="Grupo 8912">
      <path id="Trazado_18585" data-name="Trazado 18585" d="M896.822,309.619a1.5,1.5,0,0,1-1.5-1.492v-17.9a1.5,1.5,0,0,1,3,0v17.9A1.5,1.5,0,0,1,896.822,309.619Z" fill="#03abf2"/>
      <g id="Grupo_8911" data-name="Grupo 8911">
        <path id="Trazado_18586" data-name="Trazado 18586" d="M890.642,294.415l1.093,1.018,5.007-5.388,5.009,5.388,1.093-1.018-6.1-6.561Z" fill="#03abf2"/>
      </g>
    </g>
    <path id="Trazado_18587" data-name="Trazado 18587" d="M953.822,288.734a1.5,1.5,0,0,1-1.5-1.492v-17.9a1.5,1.5,0,0,1,3,0v17.9A1.5,1.5,0,0,1,953.822,288.734Z" fill="#243640"/>
    <g id="Grupo_8913" data-name="Grupo 8913">
      <path id="Trazado_18588" data-name="Trazado 18588" d="M962.949,553.644a1.118,1.118,0,1,1,0-2.236l16.43-.021h0a1.118,1.118,0,1,1,0,2.236l-16.432.021Z" fill="#243640"/>
      <path id="Trazado_18589" data-name="Trazado 18589" d="M971.176,561.851a1.12,1.12,0,0,1-1.119-1.118l-.018-16.432a1.118,1.118,0,0,1,1.117-1.12h0a1.117,1.117,0,0,1,1.117,1.117l.02,16.432a1.12,1.12,0,0,1-1.117,1.121Z" fill="#243640"/>
    </g>
    <g id="Grupo_8915" data-name="Grupo 8915">
      <path id="Trazado_18590" data-name="Trazado 18590" d="M1163.822,389.428a1.5,1.5,0,0,1-1.5-1.492V325.867l-12-9.97V283.513a1.5,1.5,0,0,1,3,0V314.5l12,9.969v63.464A1.5,1.5,0,0,1,1163.822,389.428Z" fill="#03abf2"/>
      <g id="Grupo_8914" data-name="Grupo 8914">
        <path id="Trazado_18591" data-name="Trazado 18591" d="M1144.4,289.405l1.311,1.221,6.01-6.465,6.01,6.465,1.311-1.221-7.32-7.873Z" fill="#03abf2"/>
      </g>
    </g>
    <path id="Trazado_18592" data-name="Trazado 18592" d="M864.844,402.092a42.762,42.762,0,0,0-40.747,29.8,70.665,70.665,0,0,1,10.31,1.354,2.945,2.945,0,0,1,.375-.124,26.931,26.931,0,0,1,12.292-.275c4.242-.466,8.423-.7,12.567,1.764,5.7,3.385,6.906,11.924,3.19,17.19-7.886,11.173-25.287,9.29-38.21,7.53a42.768,42.768,0,0,0,58.551,24.131v-77.25A42.57,42.57,0,0,0,864.844,402.092Z" fill="#03abf2" opacity="0.44"/>
    <g id="Grupo_8917" data-name="Grupo 8917">
      <rect id="Rectángulo_2272" data-name="Rectángulo 2272" width="58" height="3" transform="translate(1076.32 417.122)" fill="#03abf2"/>
      <rect id="Rectángulo_2273" data-name="Rectángulo 2273" width="58" height="3" transform="translate(1064.32 429.122)" fill="#03abf2"/>
      <rect id="Rectángulo_2274" data-name="Rectángulo 2274" width="38" height="3" transform="translate(1096.32 472.122)" fill="#03abf2"/>
      <rect id="Rectángulo_2275" data-name="Rectángulo 2275" width="28" height="3" transform="translate(1106.32 458.122)" fill="#03abf2"/>
      <rect id="Rectángulo_2276" data-name="Rectángulo 2276" width="59" height="3" transform="translate(1078.32 443.122)" fill="#03abf2"/>
      <rect id="Rectángulo_2277" data-name="Rectángulo 2277" width="87.519" height="2.983" transform="translate(1049.316 405.394) rotate(-0.113)" fill="#03abf2"/>
      <path id="Trazado_18593" data-name="Trazado 18593" d="M1136.457,500.122l0-160.837-86.142.128v-2.9l87.633.079c.825,0,1.492.36,1.492,1.183l0,162.349Z" fill="#03abf2"/>
      <g id="Grupo_8916" data-name="Grupo 8916">
        <path id="Trazado_18594" data-name="Trazado 18594" d="M1069.436,371.747a6.349,6.349,0,0,1-4.651-1.639c-1.892-1.841-2.148-4.879-2.148-7.608v-.673c.269-5.471,2.843-7.984,8.1-7.984H1086.6a1.492,1.492,0,1,1,0,2.983H1070.74c-3.158,0-4.91.809-5.121,5.075l0,.6c0,2.945.383,4.632,1.244,5.47a3.8,3.8,0,0,0,2.84.79h5.361a1.492,1.492,0,1,1,0,2.984h-5.322C1069.641,371.746,1069.537,371.747,1069.436,371.747Z" fill="#03abf2"/>
        <path id="Trazado_18595" data-name="Trazado 18595" d="M1081.318,386.66h-16.2a1.492,1.492,0,0,1,0-2.984h16.2c3.248,0,5.186-1.74,5.186-4.655v-2.659c0-2.936-1.889-4.619-5.186-4.619h-6.252a1.492,1.492,0,1,1,0-2.984h6.252c4.887,0,8.17,3.055,8.17,7.6v2.659C1089.488,383.59,1086.2,386.66,1081.318,386.66Z" fill="#03abf2"/>
        <rect id="Rectángulo_2278" data-name="Rectángulo 2278" width="2.982" height="6.764" transform="translate(1074.902 385.448)" fill="#03abf2"/>
        <rect id="Rectángulo_2279" data-name="Rectángulo 2279" width="2.982" height="7.717" transform="translate(1074.902 347.924)" fill="#03abf2"/>
      </g>
      <path id="Trazado_18596" data-name="Trazado 18596" d="M1117.059,373.768a4.073,4.073,0,1,1-4.073-4.074A4.074,4.074,0,0,1,1117.059,373.768Z" fill="#03abf2"/>
      <path id="Trazado_18597" data-name="Trazado 18597" d="M1136.133,362.529c-.211-.015-20.916-2.407-20.916-22.407h2.982c0,18,17.412,19.4,18.154,19.458Z" fill="#03abf2"/>
    </g>
    <g id="Grupo_8919" data-name="Grupo 8919">
      <rect id="Rectángulo_2280" data-name="Rectángulo 2280" width="59" height="3" transform="translate(975.32 389.122)" fill="#03abf2"/>
      <rect id="Rectángulo_2281" data-name="Rectángulo 2281" width="2.983" height="20.817" transform="matrix(0.016, -1, 1, 0.016, 973.922, 431.551)" fill="#03abf2"/>
      <rect id="Rectángulo_2282" data-name="Rectángulo 2282" width="59" height="3" transform="translate(966.32 470.122)" fill="#03abf2"/>
      <rect id="Rectángulo_2283" data-name="Rectángulo 2283" width="76.514" height="2.984" transform="matrix(1, -0.003, 0.003, 1, 957.228, 400.697)" fill="#03abf2"/>
      <path id="Trazado_18598" data-name="Trazado 18598" d="M1017.32,416.6l-59.875-.019.109-2.983,59.766.019Z" fill="#03abf2"/>
      <rect id="Rectángulo_2284" data-name="Rectángulo 2284" width="2.984" height="41.631" transform="translate(997.066 458.063) rotate(-89.77)" fill="#03abf2"/>
      <rect id="Rectángulo_2285" data-name="Rectángulo 2285" width="58" height="3" transform="translate(980.32 443.122)" fill="#03abf2"/>
      <rect id="Rectángulo_2286" data-name="Rectángulo 2286" width="2.983" height="42.681" transform="translate(965.159 488.924) rotate(-89.936)" fill="#03abf2"/>
      <rect id="Rectángulo_2287" data-name="Rectángulo 2287" width="63" height="3" transform="translate(957.32 376.122)" fill="#03abf2"/>
      <path id="Trazado_18599" data-name="Trazado 18599" d="M1038.328,375.122l0-62.158-114.388-.093.154,35.77-2.769-.019v-37.3c0-.823,0-1.491,1-1.491v0l117.433.037a1.618,1.618,0,0,1,1.521,1.6l.036,63.648Z" fill="#03abf2"/>
      <g id="Grupo_8918" data-name="Grupo 8918">
        <path id="Trazado_18600" data-name="Trazado 18600" d="M973.287,344.984a6.347,6.347,0,0,1-4.648-1.639c-1.893-1.842-2.149-4.879-2.149-7.607v-.673c.27-5.471,2.844-7.985,8.1-7.985h15.863a1.492,1.492,0,1,1,0,2.983H974.592c-3.156,0-4.908.809-5.119,5.076l0,.6c0,2.945.382,4.632,1.244,5.469a3.782,3.782,0,0,0,2.84.79h5.361a1.492,1.492,0,0,1,0,2.983H973.6C973.494,344.983,973.391,344.984,973.287,344.984Z" fill="#03abf2"/>
        <path id="Trazado_18601" data-name="Trazado 18601" d="M985.172,359.9h-16.2a1.492,1.492,0,1,1,0-2.983h16.2c3.246,0,5.185-1.74,5.185-4.655V349.6c0-2.935-1.89-4.619-5.185-4.619H978.92a1.492,1.492,0,1,1,0-2.983h6.252c4.887,0,8.168,3.055,8.168,7.6v2.66C993.34,356.828,990.059,359.9,985.172,359.9Z" fill="#03abf2"/>
        <rect id="Rectángulo_2288" data-name="Rectángulo 2288" width="2.984" height="6.764" transform="translate(978.754 358.685)" fill="#03abf2"/>
        <rect id="Rectángulo_2289" data-name="Rectángulo 2289" width="2.984" height="7.717" transform="translate(978.754 321.162)" fill="#03abf2"/>
      </g>
      <path id="Trazado_18602" data-name="Trazado 18602" d="M945.561,345.959a4.073,4.073,0,1,1-4.074-4.073A4.073,4.073,0,0,1,945.561,345.959Z" fill="#03abf2"/>
      <path id="Trazado_18603" data-name="Trazado 18603" d="M1020.912,347.005a4.073,4.073,0,1,1-4.072-4.073A4.074,4.074,0,0,1,1020.912,347.005Z" fill="#03abf2"/>
      <path id="Trazado_18604" data-name="Trazado 18604" d="M923.4,332.718l-.219-2.907.11,1.522-.112-1.608c.742-.056,18.154-1.6,18.154-19.6h2.983C944.314,331.122,923.607,332.7,923.4,332.718Z" fill="#03abf2"/>
      <path id="Trazado_18605" data-name="Trazado 18605" d="M1039.984,335.648c-.209-.015-20.916-1.526-20.916-22.526h2.985c0,18,17.412,19.461,18.152,19.517Z" fill="#03abf2"/>
      <rect id="Rectángulo_2290" data-name="Rectángulo 2290" width="3" height="107" transform="translate(1038.32 367.122)" fill="#03abf2"/>
    </g>
    <path id="Trazado_18606" data-name="Trazado 18606" d="M716.582,474.49a1.491,1.491,0,0,1-1.046-2.555l65.924-65.154c.279-.275.655-.659,1.046-.659h41.148a1.5,1.5,0,0,1,0,3H783.118l-65.49,64.718C717.338,474.125,716.961,474.49,716.582,474.49Z" fill="#243640"/>
    <path id="Trazado_18607" data-name="Trazado 18607" d="M757.862,516.086l-1.985-2.227,7.526-6.715a1.49,1.49,0,0,1,1.522-.281c.809.3,20.13,7.186,41.618-14.3,6.892-6.894,21.4-23.967,21.548-24.138l2.275,1.93c-.147.173-14.737,17.339-21.714,24.317-20.572,20.571-39.592,16.55-43.9,15.269Z" fill="#243640"/>
    <path id="Trazado_18608" data-name="Trazado 18608" d="M883.922,482.678a41.736,41.736,0,0,1-56.152-19.761,20.866,20.866,0,0,1-3.281-.018,44.71,44.71,0,0,0,59.433,23.071Z" fill="#03abf2"/>
    <path id="Trazado_18609" data-name="Trazado 18609" d="M883.922,404.34a44.757,44.757,0,0,0-59.437,23.1c1.058.12,2.126.161,3.2.176a41.815,41.815,0,0,1,37.888-24.218,41.282,41.282,0,0,1,18.354,4.254Z" fill="#03abf2"/>
    <path id="Trazado_18610" data-name="Trazado 18610" d="M890.038,518.122H872.882c-.824,0-1.561-1.071-1.561-1.9v-18.1h3v17h14v-141h-14v19h-3v-20.1c0-.823.737-1.9,1.561-1.9h17.156c.823,0,1.283,1.073,1.283,1.9V516.227C891.321,517.051,890.861,518.122,890.038,518.122Z" fill="#243640"/>
    <path id="Trazado_18611" data-name="Trazado 18611" d="M675.591,509.2a1.492,1.492,0,0,1-.978-2.619L690.8,492.534a1.491,1.491,0,1,1,1.955,2.253L676.568,508.83A1.489,1.489,0,0,1,675.591,509.2Z" fill="#243640"/>
    <path id="Trazado_18612" data-name="Trazado 18612" d="M883.006,471.059a31.3,31.3,0,0,1-46.253-11.435,3.178,3.178,0,0,1-1.8.436l-.644-.025a3.156,3.156,0,0,1-.832-.151,34.37,34.37,0,0,0,49.529,14.868Z" fill="#03abf2" opacity="0.4"/>
    <path id="Trazado_18613" data-name="Trazado 18613" d="M836.2,429.525c.509.063,1.012.158,1.515.252a31.293,31.293,0,0,1,45.293-9.67v-3.692a34.362,34.362,0,0,0-48.827,13.428A3.556,3.556,0,0,1,836.2,429.525Z" fill="#03abf2" opacity="0.4"/>
    <g id="Grupo_8920" data-name="Grupo 8920">
      <path id="Trazado_18614" data-name="Trazado 18614" d="M765.149,493.115c-.028,0-.058,0-.086,0l-6.788-.386.171-2.979,6.745.385a40.492,40.492,0,0,0,37.831-26.127,9.465,9.465,0,0,1,9.243-6.432c10.816,0,33.238-.051,33.238-.051,6.619,0,11.307-1.343,13.939-3.993,1.936-1.95,2.865-4.645,2.84-8.238-.036-5.134-1.919-8.7-5.6-10.685a13.05,13.05,0,0,0-5.79-1.485h0L806.73,433l0-3.007,44.144.062a15.569,15.569,0,0,1,10.227,4.085c2.728,2.673,4.127,6.418,4.16,11.133.03,4.368-1.217,7.852-3.707,10.36-3.257,3.28-8.508,4.874-16.052,4.874,0,0-22.422.051-33.241.051a6.481,6.481,0,0,0-6.391,4.33c-.012.035-.023.07-.037.106A43.481,43.481,0,0,1,765.149,493.115Z" fill="#243640"/>
    </g>
  </g>
</svg>
