<svg xmlns="http://www.w3.org/2000/svg" width="470.708" height="471.42" viewBox="0 0 470.708 471.42">
  <g id="Grupo_8807" data-name="Grupo 8807" transform="translate(-526.499 -2620.898)">
    <g id="Grupo_8801" data-name="Grupo 8801" transform="translate(527 2668.471)">
      <g id="Grupo_8799" data-name="Grupo 8799" transform="translate(0 0)">
        <g id="Grupo_8798" data-name="Grupo 8798" transform="translate(0)">
          <g id="Grupo_8796" data-name="Grupo 8796" transform="translate(4.351)">
            <path id="Trazado_18484" data-name="Trazado 18484" d="M143.041,138.1,80.947,164.135c-7.167,3-10.311,11.872-6.98,19.83,3.309,7.959,11.817,11.987,18.984,9.009l62.1-26.041c7.176-3,10.311-11.863,6.98-19.835C158.724,139.137,150.209,135.1,143.041,138.1Z" transform="translate(64.638 -94.133)" fill="#fff"/>
            <path id="Trazado_18485" data-name="Trazado 18485" d="M143.041,138.1,80.947,164.135c-7.167,3-10.311,11.872-6.98,19.83,3.309,7.959,11.817,11.987,18.984,9.009l62.1-26.041c7.176-3,10.311-11.863,6.98-19.835C158.724,139.137,150.209,135.1,143.041,138.1Z" transform="translate(64.638 -94.133)" fill="none" stroke="#5f3bbf" stroke-miterlimit="10" stroke-width="2"/>
            <path id="Trazado_18486" data-name="Trazado 18486" d="M167.911,195.558l-62.4-23.306-57.82,2.5,6.061,102.4a137.8,137.8,0,0,0,54.31,11.072,140.673,140.673,0,0,0,16.44-.97l2.642-34.9C155.69,234.4,167.911,195.558,167.911,195.558Z" transform="translate(-16.528 20.208)" fill="#a793de"/>
            <path id="Trazado_18487" data-name="Trazado 18487" d="M167.911,195.558l-62.4-23.306-57.82,2.5,6.061,102.4a137.8,137.8,0,0,0,54.31,11.072,140.673,140.673,0,0,0,16.44-.97l2.642-34.9C155.69,234.4,167.911,195.558,167.911,195.558Z" transform="translate(-16.528 20.208)" fill="none" stroke="#383d36" stroke-miterlimit="10" stroke-width="1"/>
            <g id="Grupo_8795" data-name="Grupo 8795" transform="translate(26.058)">
              <g id="Grupo_8794" data-name="Grupo 8794">
                <g id="Grupo_8793" data-name="Grupo 8793">
                  <g id="Grupo_8792" data-name="Grupo 8792">
                    <g id="Grupo_8790" data-name="Grupo 8790">
                      <rect id="Rectángulo_2218" data-name="Rectángulo 2218" width="114.383" height="77.953" transform="translate(13.377 16.297)" fill="#ffc700" stroke="#5f3bbf" stroke-width="2"/>
                      <path id="Trazado_18488" data-name="Trazado 18488" d="M187.626,127.006v217.88H46.49V127.006Zm-13.373,94.252V143.3H59.868v77.956Z" transform="translate(-46.49 -127.006)" fill="#fff" stroke="#5f3bbf" stroke-width="2"/>
                    </g>
                    <g id="Grupo_8791" data-name="Grupo 8791" transform="translate(0.002 0.001)">
                      <rect id="Rectángulo_2219" data-name="Rectángulo 2219" width="141.134" height="217.879" fill="none" stroke="#5f3bbf" stroke-miterlimit="10" stroke-width="2"/>
                      <rect id="Rectángulo_2220" data-name="Rectángulo 2220" width="114.383" height="77.953" transform="translate(13.376 16.296)" fill="none" stroke="#5f3bbf" stroke-miterlimit="10" stroke-width="2"/>
                      <path id="Trazado_18489" data-name="Trazado 18489" d="M49.635,152.878v13.787H68.477" transform="translate(-36.259 -42.831)" fill="none" stroke="#5f3bbf" stroke-miterlimit="10" stroke-width="2"/>
                      <path id="Trazado_18490" data-name="Trazado 18490" d="M57.125,152.878v13.787H75.968" transform="translate(-11.889 -42.831)" fill="none" stroke="#5f3bbf" stroke-miterlimit="10" stroke-width="2"/>
                      <path id="Trazado_18491" data-name="Trazado 18491" d="M64.608,152.878v13.787H115.3" transform="translate(12.456 -42.831)" fill="none" stroke="#5f3bbf" stroke-miterlimit="10" stroke-width="2"/>
                      <path id="Trazado_18492" data-name="Trazado 18492" d="M49.635,158.31v12.316H68.477" transform="translate(-36.259 -25.155)" fill="none" stroke="#5f3bbf" stroke-miterlimit="10" stroke-width="2"/>
                      <path id="Trazado_18493" data-name="Trazado 18493" d="M57.125,158.31v12.316H75.968" transform="translate(-11.889 -25.155)" fill="none" stroke="#5f3bbf" stroke-miterlimit="10" stroke-width="2"/>
                      <path id="Trazado_18494" data-name="Trazado 18494" d="M64.608,158.31v12.316H83.441" transform="translate(12.456 -25.155)" fill="none" stroke="#5f3bbf" stroke-miterlimit="10" stroke-width="2"/>
                      <path id="Trazado_18495" data-name="Trazado 18495" d="M72.1,158.31v12.316H90.938" transform="translate(36.821 -25.155)" fill="none" stroke="#5f3bbf" stroke-miterlimit="10" stroke-width="2"/>
                      <path id="Trazado_18496" data-name="Trazado 18496" d="M49.635,163.157v12.312H68.477" transform="translate(-36.259 -9.386)" fill="none" stroke="#5f3bbf" stroke-miterlimit="10" stroke-width="2"/>
                      <path id="Trazado_18497" data-name="Trazado 18497" d="M57.125,163.157v12.312H75.968" transform="translate(-11.889 -9.386)" fill="none" stroke="#5f3bbf" stroke-miterlimit="10" stroke-width="2"/>
                      <path id="Trazado_18498" data-name="Trazado 18498" d="M64.608,163.157v12.312H83.441" transform="translate(12.456 -9.386)" fill="none" stroke="#5f3bbf" stroke-miterlimit="10" stroke-width="2"/>
                      <path id="Trazado_18499" data-name="Trazado 18499" d="M72.1,163.157v12.312H90.938" transform="translate(36.821 -9.386)" fill="none" stroke="#5f3bbf" stroke-miterlimit="10" stroke-width="2"/>
                      <path id="Trazado_18500" data-name="Trazado 18500" d="M49.635,167.488V179.8H68.477" transform="translate(-36.259 4.705)" fill="none" stroke="#5f3bbf" stroke-miterlimit="10" stroke-width="2"/>
                      <path id="Trazado_18501" data-name="Trazado 18501" d="M57.125,167.488V179.8H75.968" transform="translate(-11.889 4.705)" fill="none" stroke="#5f3bbf" stroke-miterlimit="10" stroke-width="2"/>
                      <path id="Trazado_18502" data-name="Trazado 18502" d="M64.608,167.488V179.8H83.441" transform="translate(12.456 4.705)" fill="none" stroke="#5f3bbf" stroke-miterlimit="10" stroke-width="2"/>
                      <path id="Trazado_18503" data-name="Trazado 18503" d="M72.1,167.488V179.8H90.938" transform="translate(36.821 4.705)" fill="none" stroke="#5f3bbf" stroke-miterlimit="10" stroke-width="2"/>
                      <path id="Trazado_18504" data-name="Trazado 18504" d="M49.635,172.334v12.308H68.477" transform="translate(-36.259 20.475)" fill="none" stroke="#5f3bbf" stroke-miterlimit="10" stroke-width="2"/>
                      <path id="Trazado_18505" data-name="Trazado 18505" d="M57.125,172.334v12.308H75.968" transform="translate(-11.889 20.475)" fill="none" stroke="#5f3bbf" stroke-miterlimit="10" stroke-width="2"/>
                      <path id="Trazado_18506" data-name="Trazado 18506" d="M64.608,172.334v12.308H83.441" transform="translate(12.456 20.475)" fill="none" stroke="#5f3bbf" stroke-miterlimit="10" stroke-width="2"/>
                      <path id="Trazado_18507" data-name="Trazado 18507" d="M72.1,172.334v12.308H90.938" transform="translate(36.821 20.475)" fill="none" stroke="#5f3bbf" stroke-miterlimit="10" stroke-width="2"/>
                    </g>
                  </g>
                </g>
              </g>
            </g>
            <path id="Trazado_18508" data-name="Trazado 18508" d="M108.77,158.87l-24.833,7.065A14.5,14.5,0,0,0,91.922,193.8l24.841-7.061a14.5,14.5,0,0,0-7.993-27.87Z" transform="translate(68.509 -25.063)" fill="#fff"/>
            <path id="Trazado_18509" data-name="Trazado 18509" d="M113.392,149.908l-31.013,9.124a14.5,14.5,0,0,0,7.984,27.874l31.03-9.145a14.5,14.5,0,0,0-8-27.853Z" transform="translate(63.44 -54.231)" fill="#fff"/>
            <path id="Trazado_18510" data-name="Trazado 18510" d="M103.289,167.945,83.875,173.19a14.5,14.5,0,0,0,7.984,27.861l19.422-5.245a14.5,14.5,0,0,0-7.993-27.861Z" transform="translate(68.316 4.459)" fill="#fff"/>
            <path id="Trazado_18511" data-name="Trazado 18511" d="M108.77,158.87l-24.833,7.065A14.5,14.5,0,0,0,91.922,193.8l24.841-7.061a14.5,14.5,0,0,0-7.993-27.87Z" transform="translate(68.509 -25.063)" fill="none" stroke="#5f3bbf" stroke-miterlimit="10" stroke-width="2"/>
            <path id="Trazado_18512" data-name="Trazado 18512" d="M113.392,149.908l-31.013,9.124a14.5,14.5,0,0,0,7.984,27.874l31.03-9.145a14.5,14.5,0,0,0-8-27.853Z" transform="translate(63.44 -54.231)" fill="none" stroke="#5f3bbf" stroke-miterlimit="10" stroke-width="2"/>
            <path id="Trazado_18513" data-name="Trazado 18513" d="M103.289,167.945,83.875,173.19a14.5,14.5,0,0,0,7.984,27.861l19.422-5.245a14.5,14.5,0,0,0-7.993-27.861Z" transform="translate(68.316 4.459)" fill="none" stroke="#5f3bbf" stroke-miterlimit="10" stroke-width="2"/>
            <path id="Trazado_18514" data-name="Trazado 18514" d="M77.83,220.374l4.011-20.035a12.838,12.838,0,0,1,9.332-7.4c33.54-5.015,35.722-33.127,35.731-33.417a1.279,1.279,0,0,0-.374-1.034,1.37,1.37,0,0,0-1.012-.451H63.044a1.426,1.426,0,0,0-1.28.825L42.989,200.96c-2.561,3.607-2.624,15.1-2.624,16.419l8.154,89.11A137.692,137.692,0,0,0,92.1,328.637C127.372,270.452,83.572,225.836,77.83,220.374Z" transform="translate(-40.364 -26.029)" fill="#fff"/>
            <path id="Trazado_18515" data-name="Trazado 18515" d="M77.83,220.374l4.011-20.035a12.838,12.838,0,0,1,9.332-7.4c33.54-5.015,35.722-33.127,35.731-33.417a1.279,1.279,0,0,0-.374-1.034,1.37,1.37,0,0,0-1.012-.451H63.044a1.426,1.426,0,0,0-1.28.825L42.989,200.96c-2.561,3.607-2.624,15.1-2.624,16.419l8.154,89.11A137.692,137.692,0,0,0,92.1,328.637C127.372,270.452,83.572,225.836,77.83,220.374Z" transform="translate(-40.364 -26.029)" fill="none" stroke="#5f3bbf" stroke-miterlimit="10" stroke-width="2"/>
          </g>
          <g id="Grupo_8797" data-name="Grupo 8797" transform="translate(0 282.285)">
            <rect id="Rectángulo_2221" data-name="Rectángulo 2221" width="120.34" height="21.337" transform="translate(0 0.278) rotate(-0.132)" fill="#e2e5e9"/>
            <rect id="Rectángulo_2222" data-name="Rectángulo 2222" width="120.34" height="21.337" transform="translate(0 0.278) rotate(-0.132)" stroke-width="1" stroke="#383d36" stroke-linecap="round" stroke-linejoin="round" fill="none"/>
            <path id="Trazado_18516" data-name="Trazado 18516" d="M159.694,198.37l-60.107.158-60.24.133.083,120H159.752Z" transform="translate(-39.325 -177.099)" fill="#5f3bbf"/>
            <path id="Trazado_18517" data-name="Trazado 18517" d="M55.593,207.776a7.061,7.061,0,1,1-7.1-7.044A7.066,7.066,0,0,1,55.593,207.776Z" transform="translate(-32.411 -169.413)" fill="#e2e5e9"/>
            <path id="Trazado_18518" data-name="Trazado 18518" d="M39.936,318.539l-.59-120,60.24-.133" transform="translate(-39.325 -176.979)" fill="none" stroke="#383d36" stroke-linejoin="round" stroke-width="1"/>
            <path id="Trazado_18519" data-name="Trazado 18519" d="M53.508,198.527l60.107-.158.349,120.29" transform="translate(6.753 -177.099)" fill="none" stroke="#383d36" stroke-linejoin="round" stroke-width="1"/>
            <path id="Trazado_18520" data-name="Trazado 18520" d="M55.593,207.776a7.061,7.061,0,1,1-7.1-7.044A7.066,7.066,0,0,1,55.593,207.776Z" transform="translate(-32.411 -169.413)" fill="none" stroke="#383d36" stroke-linecap="round" stroke-linejoin="round" stroke-width="1"/>
          </g>
        </g>
      </g>
      <g id="Grupo_8800" data-name="Grupo 8800" transform="translate(55.085 40.964)">
        <path id="Trazado_18521" data-name="Trazado 18521" d="M75.242,152.511c0,8.711-4.139,15.777-9.23,15.777-5.109,0-9.247-7.065-9.247-15.777s4.139-15.768,9.247-15.768C71.1,136.743,75.242,143.8,75.242,152.511Z" transform="translate(-37.738 -136.289)" fill="none" stroke="#383d36" stroke-miterlimit="10" stroke-width="1"/>
        <path id="Trazado_18522" data-name="Trazado 18522" d="M80.8,152.511c0,8.711-4.135,15.777-9.23,15.777s-9.239-7.065-9.239-15.777,4.13-15.768,9.239-15.768S80.8,143.8,80.8,152.511Z" transform="translate(-19.642 -136.289)" fill="none" stroke="#383d36" stroke-miterlimit="10" stroke-width="1"/>
        <path id="Trazado_18523" data-name="Trazado 18523" d="M86.356,152.511c0,8.711-4.13,15.777-9.23,15.777s-9.239-7.065-9.239-15.777,4.139-15.768,9.239-15.768S86.356,143.8,86.356,152.511Z" transform="translate(-1.548 -136.289)" fill="none" stroke="#383d36" stroke-miterlimit="10" stroke-width="1"/>
        <path id="Trazado_18524" data-name="Trazado 18524" d="M52.291,136.636h10.36v34.357" transform="translate(-52.291 -136.636)" fill="none" stroke="#383d36" stroke-miterlimit="10" stroke-width="1"/>
      </g>
    </g>
    <g id="Grupo_8806" data-name="Grupo 8806" transform="translate(750.351 2622.88)">
      <g id="Grupo_8803" data-name="Grupo 8803" transform="translate(0 0)">
        <g id="Grupo_8802" data-name="Grupo 8802" transform="translate(42.275)">
          <path id="Trazado_18525" data-name="Trazado 18525" d="M135.151,370.458V173.117L150.9,146.238l12.255,21.02,12.341-21.02,12.255,21.02,12.341-21.02,12.255,21.02,12.359-21.02,12.237,21.02,12.359-21.02,12.237,21.02,12.359-21.02,12.237,21.02,12.359-21.02,12.237,21.02,12.359-21.02,15.639,26.879h0V390.732c0,.616-.017,1.232-.035,1.849v.217c-.017.634-.044,1.241-.1,1.849,0,.208,0,.391-.017.582v.1c-.052.616-.1,1.232-.174,1.84-.017.165-.017.321-.035.46l-.017.035c-.035.339-.078.668-.113,1.007l-.156,1.206v.017c-.052.243-.087.469-.121.694-.078.486-.148.955-.234,1.432v.069c-.052.217-.1.451-.139.677-.078.443-.165.868-.252,1.284l-.035.13c-.069.269-.13.529-.2.807-.069.338-.156.694-.234,1.041l-.052.2c-.069.286-.156.555-.226.833-.087.3-.148.59-.234.877l-.1.3c-.087.286-.165.564-.252.842-.07.252-.156.5-.217.738-.052.121-.087.26-.139.373-.1.3-.191.564-.286.842-.069.208-.139.417-.226.625a4.437,4.437,0,0,1-.165.434c-.1.3-.226.6-.338.885-.069.165-.122.339-.191.5s-.148.321-.217.486c-.1.286-.252.582-.373.868-.069.147-.122.312-.191.46s-.147.321-.234.486c-.156.3-.286.608-.425.9-.069.148-.13.286-.2.408-.087.165-.174.312-.243.469l-.5.955c-.087.139-.156.286-.226.425-.078.122-.147.269-.234.382-.182.339-.373.677-.573,1-.1.156-.174.3-.278.451a1.453,1.453,0,0,1-.182.286c-.252.391-.495.764-.764,1.154-.087.156-.182.3-.286.46a.413.413,0,0,1-.122.148c-.425.616-.859,1.224-1.319,1.805l-.035.043-.122.148c-.469.6-.963,1.172-1.458,1.727-.078.078-.13.182-.217.26-.087.1-.174.191-.269.286-.191.191-.373.408-.564.59-.217.217-.443.443-.66.668-.182.182-.391.365-.573.556-.121.1-.226.217-.339.321-.156.139-.33.278-.477.417a1.6,1.6,0,0,0-.321.269c-.391.339-.781.659-1.206.972a.72.72,0,0,1-.2.156c-.339.26-.694.521-1.05.772-.121.078-.243.156-.356.234-.356.243-.729.477-1.085.7-.069.035-.139.087-.208.13-.443.252-.877.486-1.319.729-.1.052-.226.113-.338.165-.356.182-.677.356-1.033.512-.139.052-.26.1-.373.156-.46.208-.9.382-1.38.564l-.13.043c-.425.139-.833.286-1.276.417a2.865,2.865,0,0,0-.391.113c-.391.1-.764.2-1.163.286l-.3.07c-.469.1-.946.182-1.441.26-.113.017-.234.035-.338.043-.391.052-.764.087-1.163.122l-.408.043c-.495.026-.989.043-1.493.043H135.151" transform="translate(-135.151 -146.238)" fill="none" stroke="#3a1b8d" stroke-width="2"/>
        </g>
        <path id="Trazado_18526" data-name="Trazado 18526" d="M130.28,174.288c.035,1.05.069,2.092.139,3.116l.017.139v.017c.069.877.148,1.719.234,2.56.017.26.069.529.087.79.069.564.148,1.154.234,1.718l.035.217c.017.156.052.312.069.477.139.772.269,1.536.425,2.3l.147.825c.191.885.391,1.779.634,2.647l.035.165c.234.911.486,1.823.772,2.708.069.252.156.5.243.764.217.686.451,1.354.694,2.031.052.156.113.321.165.46.017.069.069.156.087.226.252.677.529,1.337.816,2a1.167,1.167,0,0,0,.1.26c.3.738.642,1.458,1,2.17a.6.6,0,0,0,.069.174c.217.425.417.833.642,1.232a3.07,3.07,0,0,0,.165.339c.3.555.6,1.1.9,1.632l.035.069q.664,1.12,1.354,2.187l.139.234c.1.13.2.269.286.391.3.451.59.885.929,1.311.087.113.174.261.26.365l.2.286c.286.364.573.72.885,1.076.113.148.217.3.339.434l.147.174c.243.3.512.59.764.876.156.173.286.347.46.512l.1.122c.234.243.451.46.694.694.182.182.373.39.538.564l.122.113c.217.2.443.382.642.573l.608.59.139.087c.182.173.391.33.573.477.208.182.425.373.651.547a.626.626,0,0,0,.165.122c.191.165.408.313.608.46s.391.3.6.434l.217.156c.208.148.408.286.625.417.173.122.356.243.529.356.1.061.2.122.3.174.208.13.425.26.625.391.173.087.33.191.495.278a2.737,2.737,0,0,0,.39.191,5.625,5.625,0,0,0,.642.33c.139.078.269.148.391.226.174.078.321.13.46.191.234.121.477.226.712.33.1.043.234.087.356.147a5.147,5.147,0,0,0,.512.191c.234.087.486.182.712.278.113.035.217.078.321.1.165.061.373.1.538.165.269.1.547.174.816.243l.3.1c.174.035.339.069.495.113.321.087.625.148.946.208a1.932,1.932,0,0,0,.321.069c.156.035.286.052.46.078.338.052.677.113,1.015.147.139.009.269.043.39.061.139.017.252.009.373.017.443.043.885.078,1.337.1.156,0,.3.017.443.026H344.545c-.321,0-.633-.017-.972-.026-.434-.017-.877-.052-1.337-.1-.234-.017-.495-.052-.746-.078-.339-.035-.677-.1-1.016-.147-.269-.044-.547-.087-.8-.148-.3-.061-.608-.122-.929-.208-.26-.069-.529-.13-.8-.208s-.547-.147-.833-.243c-.269-.087-.555-.174-.842-.269-.243-.1-.477-.191-.712-.278-.3-.1-.581-.226-.868-.338-.252-.1-.477-.208-.712-.33-.269-.122-.573-.269-.851-.417a6.982,6.982,0,0,1-.677-.33c-.269-.148-.555-.3-.85-.469-.2-.13-.417-.26-.625-.391-.286-.174-.555-.347-.825-.529-.226-.13-.425-.269-.651-.417-.269-.191-.521-.382-.807-.59-.208-.147-.408-.3-.616-.46-.269-.208-.521-.434-.8-.668a6.035,6.035,0,0,1-.59-.486c-.234-.191-.477-.417-.712-.634-.217-.208-.443-.4-.66-.616s-.443-.434-.642-.651c-.26-.243-.477-.469-.712-.712-.191-.208-.373-.425-.564-.634-.252-.286-.521-.573-.764-.876-.182-.208-.338-.4-.5-.608-.3-.356-.581-.712-.851-1.076-.165-.217-.339-.434-.495-.651-.3-.425-.625-.868-.929-1.319-.139-.2-.269-.4-.408-.608-.46-.712-.929-1.449-1.354-2.2-.321-.564-.625-1.12-.955-1.692a1.336,1.336,0,0,0-.182-.347q-.351-.7-.677-1.406c-.356-.712-.694-1.441-1-2.17a1.427,1.427,0,0,1-.087-.217c-.3-.677-.581-1.371-.833-2.057-.087-.226-.165-.434-.252-.668-.234-.668-.477-1.354-.712-2.04-.07-.26-.156-.512-.226-.764-.286-.885-.538-1.8-.79-2.717l-.017-.139c-.243-.868-.425-1.77-.634-2.664-.043-.278-.113-.547-.147-.816-.156-.764-.286-1.536-.425-2.309-.035-.226-.069-.46-.121-.694-.078-.564-.148-1.154-.217-1.718l-.1-.79c-.087-.842-.165-1.684-.217-2.552a.623.623,0,0,0-.017-.165c-.069-1.024-.1-2.066-.122-3.116Z" transform="translate(-130.28 69.156)" fill="#5f3bbf"/>
        <path id="Trazado_18527" data-name="Trazado 18527" d="M130.28,174.288c.035,1.05.069,2.092.139,3.116l.017.139v.017c.069.877.148,1.719.234,2.56.017.26.069.529.087.79.069.564.148,1.154.234,1.718l.035.217c.017.156.052.312.069.477.139.772.269,1.536.425,2.3l.147.825c.191.885.391,1.779.634,2.647l.035.165c.234.911.486,1.823.772,2.708.069.252.156.5.243.764.217.686.451,1.354.694,2.031.052.156.113.321.165.46.017.069.069.156.087.226.252.677.529,1.337.816,2a1.167,1.167,0,0,0,.1.26c.3.738.642,1.458,1,2.17a.6.6,0,0,0,.069.174c.217.425.417.833.642,1.232a3.07,3.07,0,0,0,.165.339c.3.555.6,1.1.9,1.632l.035.069q.664,1.12,1.354,2.187l.139.234c.1.13.2.269.286.391.3.451.59.885.929,1.311.087.113.174.261.26.365l.2.286c.286.364.573.72.885,1.076.113.148.217.3.339.434l.147.174c.243.3.512.59.764.876.156.173.286.347.46.512l.1.122c.234.243.451.46.694.694.182.182.373.39.538.564l.122.113c.217.2.443.382.642.573l.608.59.139.087c.182.173.391.33.573.477.208.182.425.373.651.547a.626.626,0,0,0,.165.122c.191.165.408.313.608.46s.391.3.6.434l.217.156c.208.148.408.286.625.417.173.122.356.243.529.356.1.061.2.122.3.174.208.13.425.26.625.391.173.087.33.191.495.278a2.737,2.737,0,0,0,.39.191,5.625,5.625,0,0,0,.642.33c.139.078.269.148.391.226.174.078.321.13.46.191.234.121.477.226.712.33.1.043.234.087.356.147a5.147,5.147,0,0,0,.512.191c.234.087.486.182.712.278.113.035.217.078.321.1.165.061.373.1.538.165.269.1.547.174.816.243l.3.1c.174.035.339.069.495.113.321.087.625.148.946.208a1.932,1.932,0,0,0,.321.069c.156.035.286.052.46.078.338.052.677.113,1.015.147.139.009.269.043.39.061.139.017.252.009.373.017.443.043.885.078,1.337.1.156,0,.3.017.443.026H344.545c-.321,0-.633-.017-.972-.026-.434-.017-.877-.052-1.337-.1-.234-.017-.495-.052-.746-.078-.339-.035-.677-.1-1.016-.147-.269-.044-.547-.087-.8-.148-.3-.061-.608-.122-.929-.208-.26-.069-.529-.13-.8-.208s-.547-.147-.833-.243c-.269-.087-.555-.174-.842-.269-.243-.1-.477-.191-.712-.278-.3-.1-.581-.226-.868-.338-.252-.1-.477-.208-.712-.33-.269-.122-.573-.269-.851-.417a6.982,6.982,0,0,1-.677-.33c-.269-.148-.555-.3-.85-.469-.2-.13-.417-.26-.625-.391-.286-.174-.555-.347-.825-.529-.226-.13-.425-.269-.651-.417-.269-.191-.521-.382-.807-.59-.208-.147-.408-.3-.616-.46-.269-.208-.521-.434-.8-.668a6.035,6.035,0,0,1-.59-.486c-.234-.191-.477-.417-.712-.634-.217-.208-.443-.4-.66-.616s-.443-.434-.642-.651c-.26-.243-.477-.469-.712-.712-.191-.208-.373-.425-.564-.634-.252-.286-.521-.573-.764-.876-.182-.208-.338-.4-.5-.608-.3-.356-.581-.712-.851-1.076-.165-.217-.339-.434-.495-.651-.3-.425-.625-.868-.929-1.319-.139-.2-.269-.4-.408-.608-.46-.712-.929-1.449-1.354-2.2-.321-.564-.625-1.12-.955-1.692a1.336,1.336,0,0,0-.182-.347q-.351-.7-.677-1.406c-.356-.712-.694-1.441-1-2.17a1.427,1.427,0,0,1-.087-.217c-.3-.677-.581-1.371-.833-2.057-.087-.226-.165-.434-.252-.668-.234-.668-.477-1.354-.712-2.04-.07-.26-.156-.512-.226-.764-.286-.885-.538-1.8-.79-2.717l-.017-.139c-.243-.868-.425-1.77-.634-2.664-.043-.278-.113-.547-.147-.816-.156-.764-.286-1.536-.425-2.309-.035-.226-.069-.46-.121-.694-.078-.564-.148-1.154-.217-1.718l-.1-.79c-.087-.842-.165-1.684-.217-2.552a.623.623,0,0,0-.017-.165c-.069-1.024-.1-2.066-.122-3.116Z" transform="translate(-130.28 69.156)" fill="none" stroke="#383d36" stroke-width="1"/>
      </g>
      <g id="Grupo_8805" data-name="Grupo 8805" transform="translate(57.296 48.092)">
        <g id="Grupo_8804" data-name="Grupo 8804">
          <line id="Línea_95" data-name="Línea 95" x1="175.816" fill="none" stroke="#383d36" stroke-width="1"/>
          <path id="Trazado_18528" data-name="Trazado 18528" d="M174.757,197.872c-6.882-3.359-12.819-6.257-12.819-13.261,0-6,4.192-10.015,10.415-10.015,5.815,0,8.9,2.022,12.88,6.006a1.008,1.008,0,0,0,.729.286,1.029,1.029,0,0,0,.712-.33L191,175.732a.988.988,0,0,0-.017-1.337c-3.15-3.4-7.7-7.377-15.067-8.375v-9.937a.984.984,0,0,0-1-.981h-5.988a.988.988,0,0,0-1.015.981v10.085c-9.512,1.762-15.83,9.234-15.83,18.833,0,11.829,8.948,16.386,16.846,20.387,7.221,3.663,14.051,7.134,14.051,15.527,0,6.969-4.2,10.805-11.812,10.805-5.633,0-10.97-2.326-16.343-7.134a1.015,1.015,0,0,0-.8-.234,1.067,1.067,0,0,0-.694.417l-3.827,5.511a.992.992,0,0,0,.13,1.293,34.362,34.362,0,0,0,18.278,8.618v9.937a.989.989,0,0,0,1.015.989h5.988a.985.985,0,0,0,1-.989V240.069c10.458-1.753,16.915-9.234,16.915-19.744C192.826,206.69,183.228,202,174.757,197.872Z" transform="translate(-41.369 -126.265)" fill="#3a1b8d"/>
          <line id="Línea_96" data-name="Línea 96" x1="17.477" transform="translate(152.746 160.094)" fill="none" stroke="#383d36" stroke-width="1" stroke-dasharray="7"/>
          <line id="Línea_97" data-name="Línea 97" x1="17.459" transform="translate(123.523 160.094)" fill="none" stroke="#383d36" stroke-width="1" stroke-dasharray="7"/>
          <line id="Línea_98" data-name="Línea 98" x1="17.476" transform="translate(94.265 160.094)" fill="none" stroke="#383d36" stroke-width="1" stroke-dasharray="7"/>
          <line id="Línea_99" data-name="Línea 99" x1="17.477" transform="translate(65.024 160.094)" fill="none" stroke="#383d36" stroke-width="1" stroke-dasharray="7"/>
          <line id="Línea_100" data-name="Línea 100" x1="17.459" transform="translate(35.784 160.094)" fill="none" stroke="#383d36" stroke-width="1" stroke-dasharray="7"/>
          <line id="Línea_101" data-name="Línea 101" x1="17.46" transform="translate(6.543 160.094)" fill="none" stroke="#383d36" stroke-width="1" stroke-dasharray="7"/>
        </g>
        <line id="Línea_102" data-name="Línea 102" x1="59.905" transform="translate(33.072 47.556)" fill="none" stroke="#383d36" stroke-width="1"/>
        <line id="Línea_103" data-name="Línea 103" x1="66.99" transform="translate(25.987 68.075)" fill="none" stroke="#383d36" stroke-width="1"/>
        <line id="Línea_104" data-name="Línea 104" x1="80.348" transform="translate(12.629 88.595)" fill="none" stroke="#383d36" stroke-width="1"/>
        <line id="Línea_105" data-name="Línea 105" x1="80.348" transform="translate(12.629 109.122)" fill="none" stroke="#383d36" stroke-width="1"/>
      </g>
    </g>
  </g>
</svg>
