<svg xmlns="http://www.w3.org/2000/svg" width="395.104" height="315.606" viewBox="0 0 395.104 315.606">
  <g id="Grupo_8651" data-name="Grupo 8651" transform="translate(-1071 -42.869)">
    <g id="Grupo_8650" data-name="Grupo 8650" transform="translate(1071 34.663)">
      <path id="Trazado_18009" data-name="Trazado 18009" d="M1918.207,339.472c-112.292-15.742-107.284,46.565-182.313,52.756-128.941,10.638-166.02,195.179,2.691,234.618,110.882,25.921,192.127-3.843,223.488-28.484C2054.1,526.057,2035.429,355.9,1918.207,339.472Z" transform="translate(-1625.25 -328.725)" fill="#3a1b8d" opacity="0.144" style="mix-blend-mode: multiply;isolation: isolate"/>
      <path id="Trazado_18010" data-name="Trazado 18010" d="M1825.621,692.81c3.352,3.639,3.272,9.468,1.157,14.42-.527,1.236,4.826,4.913,4.067,5.991-.682.969-7.456-.641-8.291.128-5.492,5.058-18.141,4.917-23.08-.446s-3.24-17,2.5-21.774C1810.123,684.34,1820.682,687.446,1825.621,692.81Z" transform="translate(-1740.298 -563.978)" fill="#eead00"/>
      <path id="Trazado_18013" data-name="Trazado 18013" d="M2378.453,446.6,2363.3,435.835c-3.926-2.788-7.543-5.982-4.942-9.644l19.864-26.481c2.6-3.662,7.941-4.377,11.866-1.589l15.151,10.761c3.925,2.788,5.009,8.065,2.408,11.727l-18.629,25.33C2386.419,449.6,2382.379,449.385,2378.453,446.6Z" transform="translate(-2116.984 -368.675)" fill="#f2f5e0"/>
      <path id="Trazado_18014" data-name="Trazado 18014" d="M2454.386,403.009l3.652-5.113,3.652,2.556s2.191-3.287,4.017-1.826,4.017,6.208,2.921,6.938,4.017,2.191,4.017,2.191L2467.9,413.6Z" transform="translate(-2182.061 -369.667)" fill="#3fa9f5"/>
      <circle id="Elipse_567" data-name="Elipse 567" cx="13.146" cy="13.146" r="13.146" transform="translate(287.512 89.762) rotate(-45)" fill="#f08c70"/>
      <rect id="Rectángulo_2077" data-name="Rectángulo 2077" width="7.074" height="29.194" transform="translate(334.952 124.179)" fill="#5cd1c2"/>
      <rect id="Rectángulo_2078" data-name="Rectángulo 2078" width="7.622" height="20.841" transform="translate(323.175 131.985)" fill="#5cd1c2"/>
      <rect id="Rectángulo_2079" data-name="Rectángulo 2079" width="8.399" height="23.717" transform="translate(310.577 129.109)" fill="#5cd1c2"/>
      <rect id="Rectángulo_2080" data-name="Rectángulo 2080" width="8.399" height="13.512" transform="translate(299.895 139.791)" fill="#5cd1c2"/>
      <path id="Trazado_18015" data-name="Trazado 18015" d="M2023.49,438.959,1987.953,455.7l-6.488-3.825-9.043-23.454,39.981-19.131,11.453,24.936Z" transform="translate(-1858.396 -377.319)" fill="#f2f5e0"/>
      <path id="Trazado_18016" data-name="Trazado 18016" d="M1956.8,419.463l-1.826-4.382s-.73-2.922,1.826-3.652,37.613-17.711,37.613-17.711,3.287-.183,3.835,2.009a20.324,20.324,0,0,0,1.643,4.2Z" transform="translate(-1846.613 -366.858)" fill="#f2f5e0"/>
      <path id="Trazado_18017" data-name="Trazado 18017" d="M2003.551,399.934l-40.138,19.72-2.269-4.382v-3.834l38.393-17.711,2.094,1.1Z" transform="translate(-1850.822 -366.866)" fill="#69cfff"/>
      <path id="Trazado_18018" data-name="Trazado 18018" d="M1979.351,427.349l-3.834,1.278-2.556-6.208,2.739-2.008Z" transform="translate(-1858.757 -384.786)" fill="#ffe042"/>
      <path id="Trazado_18019" data-name="Trazado 18019" d="M2015.208,411.5l-3.834,1.278-2.556-6.208,2.739-2.008Z" transform="translate(-1882.837 -374.146)" fill="#ffe042"/>
      <path id="Trazado_18020" data-name="Trazado 18020" d="M2050.787,395.939l-3.834,1.278-2.556-6.208,2.739-2.008Z" transform="translate(-1906.73 -363.693)" fill="#ffe042"/>
      <path id="Trazado_18021" data-name="Trazado 18021" d="M1785.225,696.987c0,4.96-3.962,9.2-8.816,11.418-1.211.553.219,6.9-1.055,7.179-1.145.252-4.992-5.536-6.115-5.536a13.3,13.3,0,0,1-13.364-13.235c0-7.31,5.9-17.127,13.277-17.127S1785.225,689.678,1785.225,696.987Z" transform="translate(-1712.972 -558.905)" fill="#ffe042"/>
      <path id="Trazado_18024" data-name="Trazado 18024" d="M2121.7,1182.645c2.6,3.277,11.571,5,14.8,4.669,7.814-.8,10.827-2.647,18.252-4.836a46.573,46.573,0,0,1,20.541-.807c3.58.681,6.3,1.37,10.407-.822l1.1-9.464s1.5-20.015.92-23.479a139.042,139.042,0,0,0-3.834-14.242l-61.448-.348s-5.761,13.344-4.557,27.2C2118.439,1166.979,2120.984,1172.69,2121.7,1182.645Z" transform="translate(-1955.966 -863.542)" fill="#ddd"/>
      <path id="Trazado_18025" data-name="Trazado 18025" d="M2137.644,1187.8c2.191-3.286,3.031-29.967,7.943-47.625l-21.089-6.025a207.053,207.053,0,0,0-3.287,26.293c-.275,4.958,2.661,17.013,3.287,23.249C2129.669,1185.736,2132.259,1187.684,2137.644,1187.8Z" transform="translate(-1958.303 -864.102)" fill="#b4b4b4" opacity="0.69"/>
      <path id="Trazado_18026" data-name="Trazado 18026" d="M2189.116,648.535l-11.777-1.37-11.823,4.86a72.317,72.317,0,0,0-2.656,12.459c-3.012-.649-7.786,3.029-6.927,8.117.376,2.215,8.132,5.845,8.132,5.845l1.907,17.745,16.981-.274v-14.79s5.889-.411,6.847-5.615C2192.144,662.792,2190.5,663.4,2189.116,648.535Z" transform="translate(-1981.566 -537.065)" fill="#ffd4cd"/>
      <path id="Trazado_18027" data-name="Trazado 18027" d="M1972.732,790.169c1.851,1.209,18.806,19.537,18.806,19.537l6.756-21,13.975,4.182,39.523,33.978,36.335-30.675,5.3,5.66-36.7,39.987-7.486.365-32.866-19.9s0,.021.007,2.63c.011,3.945-5.751,10.956-5.751,10.956l2.191,39.165s4.382,17.528,8.216,26.293c-3.561,1.917-14.177,5.078-33.512,4.582-10.681-.274-31.223-6.026-31.223-6.026l7.219-37.174-4.656-43.273-41.82,26.4-9.86-1.46-33.6-39.8,6.573-6.025,33.962,31.223,29.214-25.928,4.93-4.2a57.277,57.277,0,0,1,7.121-5.843c9.637-6.425,16.078-10.112,16.078-10.112" transform="translate(-1792.022 -628.761)" fill="#7bdbe6"/>
      <path id="Trazado_18028" data-name="Trazado 18028" d="M1814.357,789.751l-1.643,4.382,2.739,2.465.821,4.61,16.844,7.03,6.261-5.951s-3.933-11.851-4.48-13.494c-2.739-.274-3.424.411-3.424.411a22.329,22.329,0,0,1-2.328,3.013C1826.271,791.942,1814.357,789.751,1814.357,789.751Z" transform="translate(-1751.143 -632.132)" fill="#ffd4cd"/>
      <path id="Trazado_18029" data-name="Trazado 18029" d="M2526.513,792.521l.091,10.071,4.565,3.9,15.064-5.751,4.382-3.149-1.369-4.656s-9.86,1.1-12.6,1.643c-2.236,0-3.611.771-4.382,0a13.691,13.691,0,0,1-2.465-3.15C2528.7,791.765,2526.513,792.521,2526.513,792.521Z" transform="translate(-2230.499 -633.944)" fill="#ffd4cd"/>
      <path id="Trazado_18030" data-name="Trazado 18030" d="M2135.321,612.406s-2.61-7.63-9.636-9.035c-7.1-1.419-15.043-1.561-19.861,2.454s-6.011,9.562-6.011,15.184.716,22.612.716,22.612-9.533,12.344-13.146,13.147-10.59,12.6-10.59,16.615-1.731,8.378.365,9.495c7.486-8.4,33.778-17.163,33.778-17.163l.695-24.6-1.059-10.46s-.647-6.829,2.967-8.034c1.93-.643,8.734,3.033,14.355-2.187S2135.321,612.406,2135.321,612.406Z" transform="translate(-1928.035 -507.046)" fill="#ffa111"/>
      <path id="Trazado_18031" data-name="Trazado 18031" d="M2167.435,694.878a5.167,5.167,0,1,0,5.168-5.166A5.168,5.168,0,0,0,2167.435,694.878Z" transform="translate(-1989.358 -565.637)" fill="#f9b6b2"/>
      <path id="Trazado_18032" data-name="Trazado 18032" d="M2127.748,910.872s10.942,9.336,11.544,26.8c.546,15.835-2.184,32.354-.9,40.356a35.2,35.2,0,0,0,3.687,11.653l-19.993-4.656s8.877-27.376,9.28-34.8-3.614-39.351-3.614-39.351" transform="translate(-1958.901 -714.159)" fill="#354678" opacity="0.58"/>
      <path id="Trazado_18033" data-name="Trazado 18033" d="M2185.837,607.127c5.615-.274,11.64,9.586,11.64,9.586s-.145,6.423-19.582,9.723c-3.65.62-4.264,5.086-5.067,7.9a37.229,37.229,0,0,0-4.565,3.742s-2.745-12.644,1.963-16.568C2177.454,615.483,2188.849,618.572,2185.837,607.127Z" transform="translate(-1989.38 -510.173)" fill="#f8690a"/>
      <path id="Trazado_18034" data-name="Trazado 18034" d="M2133.531,717.336l-1.643-.959s-.548,17.985-7.3,21.819c-13,7.376-11.5,11.868-11.5,11.868l10.59-3.652,13.511-3.652.046-24.056Z" transform="translate(-1952.822 -583.544)" fill="#f8690a"/>
      <path id="Trazado_18035" data-name="Trazado 18035" d="M1938.08,1158.775a2.115,2.115,0,1,1-1.929-2.286A2.114,2.114,0,0,1,1938.08,1158.775Z" transform="translate(-1832.497 -879.099)" fill="#17202e"/>
      <path id="Trazado_18036" data-name="Trazado 18036" d="M1949.694,622.8a2.115,2.115,0,1,1-1.929-2.287A2.114,2.114,0,0,1,1949.694,622.8Z" transform="translate(-1840.297 -519.163)" fill="#17202e"/>
      <path id="Trazado_18037" data-name="Trazado 18037" d="M2589.471,904.662a2.115,2.115,0,1,1-1.928-2.286A2.115,2.115,0,0,1,2589.471,904.662Z" transform="translate(-2269.943 -708.447)" fill="#17202e"/>
      <path id="Trazado_18040" data-name="Trazado 18040" d="M1999.782,1112.413a1.118,1.118,0,0,1-1.118-1.118v-18.639a1.118,1.118,0,0,1,2.237,0v18.639A1.118,1.118,0,0,1,1999.782,1112.413Z" transform="translate(-1876.018 -835.485)" fill="#419edd"/>
      <path id="Trazado_18041" data-name="Trazado 18041" d="M2020.212,669.763a1.118,1.118,0,0,1-1.118-1.118V650.005a1.118,1.118,0,0,1,2.237,0v18.639A1.118,1.118,0,0,1,2020.212,669.763Z" transform="translate(-1889.738 -538.221)" fill="#17202e"/>
      <path id="Trazado_18042" data-name="Trazado 18042" d="M1943.032,1029.947a1.118,1.118,0,0,1-1.118-1.118v-17.894a1.118,1.118,0,0,1,2.237,0v17.894A1.118,1.118,0,0,1,1943.032,1029.947Z" transform="translate(-1837.907 -780.606)" fill="#17202e"/>
      <path id="Trazado_18043" data-name="Trazado 18043" d="M1999.782,709.2a1.118,1.118,0,0,1-1.118-1.118V695.405a1.118,1.118,0,1,1,2.237,0V708.08A1.118,1.118,0,0,1,1999.782,709.2Z" transform="translate(-1876.018 -568.71)" fill="#419edd"/>
      <path id="Trazado_18044" data-name="Trazado 18044" d="M2358.442,773.5a1.118,1.118,0,0,1-1.118-1.118v-13.42a1.119,1.119,0,0,1,2.237,0v13.42A1.119,1.119,0,0,1,2358.442,773.5Z" transform="translate(-2116.879 -611.394)" fill="#419edd"/>
      <path id="Trazado_18045" data-name="Trazado 18045" d="M2410.652,1175.227a1.118,1.118,0,0,1-1.118-1.118v-17.894a1.118,1.118,0,0,1,2.237,0v17.894A1.119,1.119,0,0,1,2410.652,1175.227Z" transform="translate(-2151.941 -878.169)" fill="#17202e"/>
      <g id="Grupo_8632" data-name="Grupo 8632" transform="translate(136.811 227.72)">
        <path id="Trazado_18046" data-name="Trazado 18046" d="M2042.912,1079.834a1.118,1.118,0,0,1-1.118-1.118v-42.07l8.947-7.9V1006.4a1.118,1.118,0,1,1,2.236,0v23.361l-8.947,7.9v41.061A1.118,1.118,0,0,1,2042.912,1079.834Z" transform="translate(-2041.794 -1005.277)" fill="#17202e"/>
        <g id="Grupo_8631" data-name="Grupo 8631" transform="translate(4.657 0.096)">
          <path id="Trazado_18047" data-name="Trazado 18047" d="M2055.971,1011.144l.928.865,4.254-4.578,4.256,4.578.928-.865-5.183-5.574Z" transform="translate(-2055.971 -1005.57)" fill="#17202e"/>
        </g>
      </g>
      <path id="Trazado_18048" data-name="Trazado 18048" d="M2565.012,1033.1a1.119,1.119,0,0,1-1.118-1.119v-9.692a1.118,1.118,0,1,1,2.237,0v9.692A1.119,1.119,0,0,1,2565.012,1033.1Z" transform="translate(-2255.602 -788.228)" fill="#419edd"/>
      <g id="Grupo_8633" data-name="Grupo 8633" transform="translate(279.104 275.424)">
        <path id="Trazado_18049" data-name="Trazado 18049" d="M2476.32,1159.317a1.268,1.268,0,0,1-.9-2.162l6.246-6.263a1.268,1.268,0,0,1,1.8,1.791l-6.246,6.262A1.268,1.268,0,0,1,2476.32,1159.317Z" transform="translate(-2475.044 -1150.519)" fill="#17202e"/>
        <path id="Trazado_18050" data-name="Trazado 18050" d="M2482.557,1159.324a1.258,1.258,0,0,1-.894-.371l-6.262-6.247a1.267,1.267,0,1,1,1.79-1.794l6.262,6.247a1.267,1.267,0,0,1-.9,2.165Z" transform="translate(-2475.028 -1150.534)" fill="#17202e"/>
      </g>
      <path id="Trazado_18059" data-name="Trazado 18059" d="M2303.433,835.882a1.263,1.263,0,0,1-.895-.37c-.3-.3-29.688-29.568-37.372-34.516-5.307-3.416-15.432-4.786-15.534-4.8a1.268,1.268,0,0,1,.332-2.513c.438.058,10.787,1.456,16.574,5.182,7.248,4.667,31.922,29.026,36.937,34l34.772-31.462.914-6.163a1.268,1.268,0,0,1,2.508.371l-.98,6.612a1.269,1.269,0,0,1-.4.754l-36,32.573A1.264,1.264,0,0,1,2303.433,835.882Z" transform="translate(-2043.818 -635.453)" fill="#17202e"/>
      <path id="Trazado_18060" data-name="Trazado 18060" d="M2349.918,864.524c-2.952,0-6.028-1.276-8.984-3.831-13.792-8.749-23.139-14.894-23.232-14.955a1.267,1.267,0,0,1,1.393-2.117c.093.061,9.46,6.219,23.276,14.983a1.231,1.231,0,0,1,.155.115c5.055,4.41,10.07,4.367,14.123-.12,1.761-1.95,2.821-3.177,4.424-5.034,3.476-4.026,9.293-10.764,29.7-33.5a1.272,1.272,0,0,1,.472-.33l15.592-6.246a1.267,1.267,0,1,1,.942,2.353l-15.317,6.136c-20.234,22.539-26.015,29.235-29.473,33.24-1.615,1.87-2.681,3.105-4.461,5.077A11.545,11.545,0,0,1,2349.918,864.524Z" transform="translate(-2089.887 -648.701)" fill="#17202e"/>
      <path id="Trazado_18061" data-name="Trazado 18061" d="M1876.351,872.637a10.25,10.25,0,0,1-1.086-.058,10.041,10.041,0,0,1-7-4.165c-3.516-4.562-4.127-5.239-14.336-16.547-4.4-4.875-10.579-11.72-19.535-21.694l-15.317-6.136a1.268,1.268,0,1,1,.943-2.353l15.591,6.246a1.276,1.276,0,0,1,.472.33c9.06,10.092,15.3,17,19.728,21.909,10.271,11.376,10.886,12.058,14.462,16.7a7.6,7.6,0,0,0,5.261,3.191c4.438.482,8.771-3.125,8.815-3.161a1.276,1.276,0,0,1,.116-.087l36.265-24.052a1.267,1.267,0,1,1,1.4,2.112l-36.209,24.016C1885.347,869.356,1881.155,872.637,1876.351,872.637Z" transform="translate(-1754.882 -654.203)" fill="#17202e"/>
      <path id="Trazado_18062" data-name="Trazado 18062" d="M2227.545,1008.823c-.431,0-.7,0-.787-.007a1.118,1.118,0,0,1-1.094-1.118V981.85a1.118,1.118,0,0,1,2.237,0v24.73c4.193-.043,19.379-.608,27.21-6.391-4.247-8.983-6.378-15.474-8.287-30.449-1.224-9.6-.287-31.225-.247-32.141a1.118,1.118,0,0,1,2.234.1c-.009.223-.968,22.352.231,31.758,1.927,15.115,4.076,21.394,8.472,30.579a1.118,1.118,0,0,1-.3,1.345C2248.72,1008.408,2231.485,1008.823,2227.545,1008.823Z" transform="translate(-2028.462 -731.391)" fill="#17202e"/>
      <path id="Trazado_18063" data-name="Trazado 18063" d="M2141.406,986.173a1.208,1.208,0,0,1-.177-.012,104.392,104.392,0,0,1-18.81-4.435,1.268,1.268,0,0,1-.8-1.523c.06-.223,6-22.4,7.136-35.118,1.2-13.526-2.9-38.956-2.937-39.211a1.267,1.267,0,0,1,2.5-.408c.172,1.056,4.192,26,2.96,39.844-1.017,11.407-5.653,29.612-6.908,34.4a106.543,106.543,0,0,0,17.206,3.942,1.268,1.268,0,0,1-.175,2.523Z" transform="translate(-1958.563 -709.814)" fill="#17202e"/>
      <path id="Trazado_18064" data-name="Trazado 18064" d="M2224.429,691.66h-5.592a1.118,1.118,0,0,1,0-2.237h4.473V676.218a1.119,1.119,0,0,1,.924-1.1c.261-.047,6.448-1.243,6.929-7.133.956-11.7-2.137-26.624-2.169-26.773a1.118,1.118,0,1,1,2.188-.459c.131.622,3.192,15.391,2.21,27.415-.449,5.487-4.906,8.1-7.845,8.939v13.438A1.118,1.118,0,0,1,2224.429,691.66Z" transform="translate(-2023.126 -532.16)" fill="#17202e"/>
      <path id="Trazado_18065" data-name="Trazado 18065" d="M2073.825,673.359c-.038,0-.075,0-.113-.005a1.267,1.267,0,0,1-1.151-1.374c1.061-11.978,8.247-17.055,14.587-21.536,4.232-2.991,7.891-5.577,9.2-9.75.864-5.149.124-9.771-.592-14.241-.641-4.006-1.247-7.79-.649-11.62,2.39-12.821,12.374-19.2,26.046-16.677,4.353.8,10.286,3.4,13.831,11.206l.23.506-.217.512c-5.433,12.829-25.746,9.475-26.609,9.326a1.268,1.268,0,0,1,.431-2.5c.188.032,18.6,3.065,23.615-7.312a15.983,15.983,0,0,0-11.74-9.247c-12.33-2.27-20.96,3.192-23.089,14.612-.53,3.4.045,6.989.653,10.792.717,4.479,1.53,9.555.574,15.149l-.037.156c-1.536,5.048-5.735,8.015-10.181,11.157-6.179,4.366-12.568,8.881-13.525,19.689A1.268,1.268,0,0,1,2073.825,673.359Z" transform="translate(-1925.641 -503.787)" fill="#17202e"/>
      <path id="Trazado_18066" data-name="Trazado 18066" d="M1919.669,787.21a1.264,1.264,0,0,1-.86-.336L1883.543,754.3a1.266,1.266,0,0,1-.381-.675l-1.469-7.1a1.267,1.267,0,0,1,2.482-.513l1.387,6.7L1919.65,784.2c5.074-4.888,30.067-28.842,37.308-33.505,5.739-3.7,17.578-6.352,18.08-6.463l6.119-1.438-.2-23.6a1.267,1.267,0,1,1,2.534-.022l.212,24.614a1.267,1.267,0,0,1-.977,1.245L1975.6,746.7c-.133.03-11.914,2.673-17.271,6.123-7.693,4.954-37.48,33.737-37.78,34.028A1.264,1.264,0,0,1,1919.669,787.21Z" transform="translate(-1797.448 -584.577)" fill="#17202e"/>
      <path id="Trazado_18067" data-name="Trazado 18067" d="M2174.026,698.275a1.2,1.2,0,0,1-.125-.006c-3.765-.37-6.223-1.983-7.305-4.794a6.34,6.34,0,0,1,3.559-8.219,6.259,6.259,0,0,1,5.642.609,1.268,1.268,0,0,1-1.382,2.125,3.719,3.719,0,0,0-3.35-.369,3.8,3.8,0,0,0-2.1,4.942c.72,1.869,2.417,2.91,5.188,3.182a1.268,1.268,0,0,1-.123,2.529Z" transform="translate(-1988.502 -562.37)" fill="#17202e"/>
      <path id="Trazado_18068" data-name="Trazado 18068" d="M2281.489,896.3a1.268,1.268,0,0,1-.413-2.467,9.821,9.821,0,0,0,6.372-9.7,12.269,12.269,0,0,0-5.078-9.81,1.267,1.267,0,0,1,1.3-2.176,14.7,14.7,0,0,1,6.311,11.864c.439,9.177-7.993,12.189-8.078,12.219A1.262,1.262,0,0,1,2281.489,896.3Z" transform="translate(-2065.1 -688.03)" fill="#17202e"/>
      <path id="Trazado_18069" data-name="Trazado 18069" d="M2190.88,821.122a1.259,1.259,0,0,1-.914-.39l-19.912-20.726a1.268,1.268,0,0,1,1.828-1.756l19.911,20.726a1.267,1.267,0,0,1-.914,2.146Z" transform="translate(-1990.88 -638.265)" fill="#17202e"/>
      <path id="Trazado_18070" data-name="Trazado 18070" d="M2231.592,817.664a1.268,1.268,0,0,1-1.221-1.608l5.98-21.459a1.267,1.267,0,0,1,2.442.68l-5.98,21.46A1.268,1.268,0,0,1,2231.592,817.664Z" transform="translate(-2031.591 -635.45)" fill="#17202e"/>
      <path id="Trazado_18071" data-name="Trazado 18071" d="M2315.741,1175.167a1.177,1.177,0,0,1-.142-.008,1.266,1.266,0,0,1-1.119-1.4c1.609-14.489,2.344-29.138-3.13-38.142a1.267,1.267,0,0,1,2.166-1.318c5.869,9.653,5.143,24.8,3.483,39.739A1.268,1.268,0,0,1,2315.741,1175.167Z" transform="translate(-2085.881 -863.794)" fill="#17202e"/>
      <path id="Trazado_18072" data-name="Trazado 18072" d="M2120.245,1176.669a1.267,1.267,0,0,1-1.26-1.145c-.1-1.007-.2-2.054-.313-3.134-1.174-11.591-2.636-26.018,1.512-35.694a1.268,1.268,0,0,1,2.33,1c-3.89,9.074-2.4,23.734-1.32,34.439.11,1.083.216,2.134.314,3.145a1.267,1.267,0,0,1-1.14,1.383A1.108,1.108,0,0,1,2120.245,1176.669Z" transform="translate(-1955.778 -865.296)" fill="#17202e"/>
      <path id="Trazado_18073" data-name="Trazado 18073" d="M2190.492,911.23a1.268,1.268,0,0,1-.172-2.524c.275-.039,6.83-1.062,7-7.643a11.451,11.451,0,0,0-.939-5.461c-.12-.28-.22-.52-.288-.735a1.267,1.267,0,0,1,2.416-.768c.048.147.12.31.2.5a13.888,13.888,0,0,1,1.143,6.525c-.177,7-6.085,9.663-9.183,10.091A1.45,1.45,0,0,1,2190.492,911.23Z" transform="translate(-2003.992 -702.3)" fill="#17202e"/>
      <path id="Trazado_18074" data-name="Trazado 18074" d="M2231.692,869.073a1.269,1.269,0,0,1-1.267-1.245l-.1-5.572a1.268,1.268,0,0,1,1.244-1.29,1.282,1.282,0,0,1,1.291,1.244l.1,5.572a1.268,1.268,0,0,1-1.245,1.291Z" transform="translate(-2031.591 -680.643)" fill="#17202e"/>
      <g id="Grupo_8649" data-name="Grupo 8649" transform="translate(41.739 0.368)">
        <g id="Grupo_8644" data-name="Grupo 8644" transform="translate(253.634 107.49)">
          <path id="Trazado_18089" data-name="Trazado 18089" d="M2546.33,749.492l-9.421-.005.006-14.432,9.425.007Zm-6.884-2.539,4.351,0,.007-9.361-4.354,0Z" transform="translate(-2532.854 -703.945)" fill="#17202e"/>
          <path id="Trazado_18090" data-name="Trazado 18090" d="M2579.688,726.469l-9.423-.006.015-25.7,9.422,0Zm-6.886-2.539,4.353,0,.011-20.631-4.352,0Z" transform="translate(-2555.255 -680.916)" fill="#17202e"/>
          <path id="Trazado_18091" data-name="Trazado 18091" d="M2614.957,732.561l-9.423,0,.015-23.2,9.421.007Zm-6.886-2.538,4.352,0,.011-18.125-4.351,0Z" transform="translate(-2578.94 -686.69)" fill="#17202e"/>
          <path id="Trazado_18092" data-name="Trazado 18092" d="M2649.269,717.218l-9.423-.005.018-30.71,9.423,0Zm-6.886-2.539,4.353,0,.015-25.64-4.353,0Z" transform="translate(-2601.982 -671.34)" fill="#17202e"/>
          <path id="Trazado_18093" data-name="Trazado 18093" d="M2535.911,662.726a1.268,1.268,0,0,1-.89-2.171l11.433-11.263a1.267,1.267,0,0,1,1.307-.294l13.4,4.678L2578.25,640.6a1.267,1.267,0,1,1,1.541,2.012l-17.627,13.495a1.268,1.268,0,0,1-1.188.19l-13.3-4.644-10.87,10.71A1.266,1.266,0,0,1,2535.911,662.726Z" transform="translate(-2531.332 -640.337)" fill="#17202e"/>
          <rect id="Rectángulo_2081" data-name="Rectángulo 2081" width="50.716" height="2.535" transform="translate(0 43.331)" fill="#17202e"/>
        </g>
        <path id="Trazado_18094" data-name="Trazado 18094" d="M1773.195,715.811a1.266,1.266,0,0,1-.9-.37l-5.722-5.708a15.6,15.6,0,1,1,7.406-1.139l.474,5.847a1.268,1.268,0,0,1-1.263,1.37Zm-5.232-34.758a13.1,13.1,0,0,0-.75,26.185,1.269,1.269,0,0,1,.822.368l3.618,3.61-.273-3.366a1.268,1.268,0,0,1,.851-1.3,12.981,12.981,0,0,0,4.959-3.087,13.1,13.1,0,0,0-9.228-22.408Z" transform="translate(-1752.333 -558.488)" fill="#17202e"/>
        <path id="Trazado_18095" data-name="Trazado 18095" d="M1778.459,721.876a1.69,1.69,0,1,1-1.048-2.15A1.69,1.69,0,0,1,1778.459,721.876Z" transform="translate(-1767.67 -586.099)" fill="#17202e"/>
        <path id="Trazado_18096" data-name="Trazado 18096" d="M1797.427,722.269a1.689,1.689,0,1,1-1.045-2.147A1.689,1.689,0,0,1,1797.427,722.269Z" transform="translate(-1780.408 -586.365)" fill="#17202e"/>
        <path id="Trazado_18097" data-name="Trazado 18097" d="M1816.235,721.96a1.69,1.69,0,1,1-1.048-2.145A1.691,1.691,0,0,1,1816.235,721.96Z" transform="translate(-1793.039 -586.158)" fill="#17202e"/>
        <path id="Trazado_18098" data-name="Trazado 18098" d="M1863.917,711.56a1.268,1.268,0,0,1-1.127-.686l-3.35-6.488a1.264,1.264,0,0,1-.075-.985,13.108,13.108,0,0,0-11.077-17.209,1.268,1.268,0,0,1,.263-2.522,15.643,15.643,0,0,1,13.381,20.018l3.111,6.023a1.268,1.268,0,0,1-1.126,1.849Z" transform="translate(-1816.009 -561.943)" fill="#17202e"/>
        <path id="Trazado_18099" data-name="Trazado 18099" d="M1837.242,764.751a15.642,15.642,0,0,1-3.582-.418,1.267,1.267,0,0,1,.58-2.468,12.982,12.982,0,0,0,8.186-.732,9.166,9.166,0,0,0,4.021-2.76,1.272,1.272,0,0,1,1.138-.426l6.794.969a1.267,1.267,0,1,1-.357,2.51l-6.127-.874a11.826,11.826,0,0,1-4.462,2.909A15.561,15.561,0,0,1,1837.242,764.751Z" transform="translate(-1806.292 -611.82)" fill="#17202e"/>
        <g id="Grupo_8645" data-name="Grupo 8645" transform="translate(67.758 24.56)">
          <path id="Trazado_18100" data-name="Trazado 18100" d="M1976.939,444.25a4.718,4.718,0,0,1-1.174-.147,3.93,3.93,0,0,1-2.638-2.117l-14.136-29.638c-.978-2.051.1-4.465,2.515-5.615l1.536-.732a1.267,1.267,0,0,1,1.091,2.288l-1.536.732c-.941.449-1.723,1.386-1.318,2.236l14.136,29.639a1.441,1.441,0,0,0,.98.752,2.5,2.5,0,0,0,1.669-.2l33.259-15.862a2.884,2.884,0,0,0,1.319-1.264,1.448,1.448,0,0,0,.105-1.237l-14.136-29.638a1.152,1.152,0,0,0-.927-.6,3.18,3.18,0,0,0-1.829.306l-1.346.642a1.267,1.267,0,1,1-1.091-2.288l1.346-.642a5.686,5.686,0,0,1,3.338-.518,3.64,3.64,0,0,1,2.8,2.007L2015.036,422a3.924,3.924,0,0,1-.132,3.473,5.463,5.463,0,0,1-2.49,2.407l-33.258,15.862A5.152,5.152,0,0,1,1976.939,444.25Z" transform="translate(-1958.633 -389.484)" fill="#17202e"/>
          <path id="Trazado_18101" data-name="Trazado 18101" d="M1975.461,427.041a1.268,1.268,0,0,1-.55-2.41l35.935-17.3a1.268,1.268,0,0,1,1.1,2.284l-35.935,17.3A1.262,1.262,0,0,1,1975.461,427.041Z" transform="translate(-1969.082 -400.845)" fill="#17202e"/>
          <path id="Trazado_18102" data-name="Trazado 18102" d="M1990.069,474.351a1.268,1.268,0,0,1-.547-2.412l31.778-15.155a1.268,1.268,0,0,1,1.091,2.289l-31.778,15.155A1.267,1.267,0,0,1,1990.069,474.351Z" transform="translate(-1978.892 -434.058)" fill="#17202e"/>
          <path id="Trazado_18103" data-name="Trazado 18103" d="M2019.965,477.338a1.266,1.266,0,0,1-1.144-.722L2005.63,448.96a1.267,1.267,0,1,1,2.288-1.091l13.19,27.657a1.268,1.268,0,0,1-1.143,1.813Z" transform="translate(-1990.111 -427.669)" fill="#17202e"/>
          <path id="Trazado_18104" data-name="Trazado 18104" d="M2062.98,457.624a1.267,1.267,0,0,1-1.145-.722l-13.19-27.657a1.267,1.267,0,1,1,2.288-1.091l13.19,27.657a1.267,1.267,0,0,1-1.143,1.813Z" transform="translate(-2018.998 -414.43)" fill="#17202e"/>
          <path id="Trazado_18105" data-name="Trazado 18105" d="M1979.209,427.269a2.916,2.916,0,0,1-2.617-1.649l-1.678-3.52a2.9,2.9,0,0,1,1.366-3.863l.649-.309a2.882,2.882,0,0,1,1.245-.282,2.916,2.916,0,0,1,2.618,1.651l1.677,3.519a2.9,2.9,0,0,1-1.368,3.863l-.645.308A2.871,2.871,0,0,1,1979.209,427.269Zm-1.035-7.089a.362.362,0,0,0-.155.036l-.646.308a.365.365,0,0,0-.171.485l1.678,3.518a.35.35,0,0,0,.483.171l.645-.308a.362.362,0,0,0,.173-.483l-1.677-3.52A.362.362,0,0,0,1978.174,420.18Z" transform="translate(-1969.377 -407.857)" fill="#17202e"/>
          <path id="Trazado_18106" data-name="Trazado 18106" d="M2044.781,397.466a2.912,2.912,0,0,1-2.617-1.651l-1.678-3.517a2.9,2.9,0,0,1,1.369-3.863l.645-.308a2.879,2.879,0,0,1,1.247-.282,2.911,2.911,0,0,1,2.618,1.652l1.677,3.516a2.9,2.9,0,0,1-1.368,3.863l-.646.308A2.875,2.875,0,0,1,2044.781,397.466Zm-1.034-7.088a.359.359,0,0,0-.155.036l-.644.308a.364.364,0,0,0-.173.484l1.678,3.517a.35.35,0,0,0,.484.171l.646-.308a.362.362,0,0,0,.171-.483l-1.678-3.518A.36.36,0,0,0,2043.747,390.379Z" transform="translate(-2013.413 -387.844)" fill="#17202e"/>
          <path id="Trazado_18107" data-name="Trazado 18107" d="M2012.179,412.038a2.913,2.913,0,0,1-2.617-1.651l-1.677-3.518a2.9,2.9,0,0,1,1.368-3.863l.647-.308a2.876,2.876,0,0,1,1.246-.282,2.913,2.913,0,0,1,2.617,1.65l1.678,3.519a2.9,2.9,0,0,1-1.369,3.863l-.645.308A2.874,2.874,0,0,1,2012.179,412.038Zm-1.034-7.088a.357.357,0,0,0-.156.036l-.646.308a.363.363,0,0,0-.171.484l1.677,3.519a.35.35,0,0,0,.484.171l.645-.308a.362.362,0,0,0,.173-.483l-1.678-3.519A.363.363,0,0,0,2011.146,404.95Z" transform="translate(-1991.519 -397.629)" fill="#17202e"/>
          <path id="Trazado_18108" data-name="Trazado 18108" d="M2003.687,422.467a1.268,1.268,0,0,1-.546-2.412l2.353-1.122a1.267,1.267,0,0,1,1.091,2.288l-2.353,1.122A1.263,1.263,0,0,1,2003.687,422.467Z" transform="translate(-1988.037 -408.639)" fill="#17202e"/>
          <path id="Trazado_18109" data-name="Trazado 18109" d="M2025.182,410.181a1.268,1.268,0,0,1-.546-2.412l2.943-1.4a1.267,1.267,0,1,1,1.091,2.288l-2.943,1.4A1.261,1.261,0,0,1,2025.182,410.181Z" transform="translate(-2002.473 -400.2)" fill="#17202e"/>
          <path id="Trazado_18110" data-name="Trazado 18110" d="M2050.153,494.127a1.283,1.283,0,0,1-.494-.1l-4.2-1.751a1.284,1.284,0,1,1,.988-2.371l2.73,1.137,1.115-6.135a1.284,1.284,0,0,1,2.527.459l-1.4,7.7a1.285,1.285,0,0,1-1.263,1.055Z" transform="translate(-2016.409 -452.32)" fill="#17202e"/>
          <path id="Trazado_18111" data-name="Trazado 18111" d="M1989.431,475.356a1.268,1.268,0,0,1-.547-2.412l4.12-1.965a1.268,1.268,0,1,1,1.091,2.288l-4.12,1.965A1.266,1.266,0,0,1,1989.431,475.356Z" transform="translate(-1978.464 -443.591)" fill="#17202e"/>
          <path id="Trazado_18112" data-name="Trazado 18112" d="M2093.858,482.714a1.267,1.267,0,0,1-.546-2.412l1.766-.842a1.268,1.268,0,1,1,1.09,2.289l-1.767.842A1.26,1.26,0,0,1,2093.858,482.714Z" transform="translate(-2048.592 -449.286)" fill="#17202e"/>
        </g>
        <g id="Grupo_8647" data-name="Grupo 8647" transform="translate(249.823 71.344)">
          <g id="Grupo_8646" data-name="Grupo 8646" transform="translate(0 4.146)">
            <path id="Trazado_18113" data-name="Trazado 18113" d="M2526.986,570.984a14.037,14.037,0,1,1,12.8-8.258A13.935,13.935,0,0,1,2526.986,570.984Zm.014-25.541a11.5,11.5,0,0,0-4.742,21.983,11.411,11.411,0,0,0,4.729,1.023,11.5,11.5,0,0,0,4.742-21.982A11.41,11.41,0,0,0,2527,545.443Z" transform="translate(-2512.96 -542.908)" fill="#17202e"/>
          </g>
          <path id="Trazado_18114" data-name="Trazado 18114" d="M2540.368,578.467l-3.7-7.361a1.267,1.267,0,1,1,2.264-1.139l2.549,5.068,8.884-4.609a1.267,1.267,0,0,1,1.168,2.25Z" transform="translate(-2528.788 -556.465)" fill="#17202e"/>
          <path id="Trazado_18115" data-name="Trazado 18115" d="M2569.68,534.528a1.262,1.262,0,0,1-.522-.112l-3.778-1.708a1.268,1.268,0,0,1,1.044-2.31l3.778,1.708a1.267,1.267,0,0,1-.522,2.423Z" transform="translate(-2547.662 -530.285)" fill="#17202e"/>
        </g>
        <g id="Grupo_8648" data-name="Grupo 8648" transform="translate(198.538 26.115)">
          <path id="Trazado_18121" data-name="Trazado 18121" d="M2382.741,448.331a6.142,6.142,0,0,1-3.624-1.182l-19.749-14.33a6.2,6.2,0,0,1-1.375-8.652l21.108-29.033a6.193,6.193,0,0,1,8.651-1.374l3.185,2.3a1.268,1.268,0,0,1-1.485,2.055l-3.187-2.3a3.658,3.658,0,0,0-5.112.81l-9.118,12.567-11.992,16.468a3.664,3.664,0,0,0,.814,5.11l19.75,14.33a3.659,3.659,0,0,0,5.11-.813l21.11-29.033a3.658,3.658,0,0,0-.814-5.11l-3.365-2.384a1.267,1.267,0,1,1,1.465-2.069l3.377,2.392a6.194,6.194,0,0,1,1.388,8.66l-21.11,29.033a6.156,6.156,0,0,1-4.04,2.478A6.31,6.31,0,0,1,2382.741,448.331Z" transform="translate(-2356.814 -392.577)" fill="#17202e"/>
          <path id="Trazado_18122" data-name="Trazado 18122" d="M2464.063,410.648a1.268,1.268,0,0,1-.743-.241l-13.23-9.569a1.268,1.268,0,0,1-.285-1.77l3.844-5.314a1.267,1.267,0,0,1,1.77-.284l2.462,1.782a5.493,5.493,0,0,1,8.214,5.942l2.552,1.845a1.267,1.267,0,0,1,.285,1.77l-3.843,5.313a1.269,1.269,0,0,1-.826.509A1.294,1.294,0,0,1,2464.063,410.648Zm-11.46-11.121,11.176,8.083,2.357-3.259-2.28-1.648a1.268,1.268,0,0,1-.412-1.551,2.964,2.964,0,0,0-.962-3.612,3.017,3.017,0,0,0-3.732.217,1.267,1.267,0,0,1-1.6.094l-2.19-1.584Z" transform="translate(-2419.102 -393.015)" fill="#17202e"/>
          <path id="Trazado_18123" data-name="Trazado 18123" d="M2408.89,499.538a1.263,1.263,0,0,1-.742-.241L2394.3,489.272a1.267,1.267,0,1,1,1.487-2.053l13.851,10.025a1.268,1.268,0,0,1-.744,2.294Z" transform="translate(-2381.634 -455.972)" fill="#17202e"/>
          <path id="Trazado_18124" data-name="Trazado 18124" d="M2449.615,443.747a1.262,1.262,0,0,1-.743-.241l-13.851-10.025a1.268,1.268,0,0,1,1.487-2.053l13.851,10.026a1.268,1.268,0,0,1-.744,2.294Z" transform="translate(-2408.982 -418.505)" fill="#17202e"/>
          <path id="Trazado_18125" data-name="Trazado 18125" d="M2418.992,479.709a1.262,1.262,0,0,1-.734-.235l-10.833-7.705a1.267,1.267,0,1,1,1.469-2.066l10.833,7.705a1.268,1.268,0,0,1-.735,2.3Z" transform="translate(-2390.444 -444.214)" fill="#17202e"/>
          <path id="Trazado_18126" data-name="Trazado 18126" d="M2433.463,460.852a1.257,1.257,0,0,1-.74-.239l-10.505-7.567a1.267,1.267,0,1,1,1.481-2.057l10.506,7.567a1.267,1.267,0,0,1-.741,2.3Z" transform="translate(-2400.383 -431.643)" fill="#17202e"/>
        </g>
      </g>
    </g>
    <g id="Grupo_8380" data-name="Grupo 8380" transform="matrix(0.978, -0.208, 0.208, 0.978, 1135.984, 118.578)">
      <g id="Grupo_8379" data-name="Grupo 8379" transform="translate(0 3.556)">
        <g id="Grupo_8378" data-name="Grupo 8378">
          <path id="Trazado_12317" data-name="Trazado 12317" d="M22.683,11.342A11.342,11.342,0,1,1,11.342,0,11.342,11.342,0,0,1,22.683,11.342Z" transform="translate(0.9 0.9)" fill="#f08c70"/>
          <path id="Trazado_12318" data-name="Trazado 12318" d="M12.243,24.484A12.242,12.242,0,1,1,24.484,12.242,12.256,12.256,0,0,1,12.243,24.484Zm0-22.684A10.442,10.442,0,1,0,22.684,12.242,10.453,10.453,0,0,0,12.243,1.8Z" fill="#17202e"/>
        </g>
      </g>
      <path id="Trazado_12319" data-name="Trazado 12319" d="M5.846,10.049.334,5.588a.9.9,0,0,1,1.133-1.4L5.562,7.5,11.209.343a.9.9,0,0,1,1.414,1.116Z" transform="translate(5.77 9.418)" fill="#17202e"/>
      <path id="Trazado_12320" data-name="Trazado 12320" d="M4.4,1.8H.9A.9.9,0,1,1,.9,0H4.4a.9.9,0,1,1,0,1.8Z" transform="translate(8.602 0)" fill="#17202e"/>
    </g>
  </g>
</svg>
